<svg width="93" height="90" viewBox="0 0 93 90" fill="none" xmlns="http://www.w3.org/2000/svg">
<g clip-path="url(#clip0_2074_1458)">
<path d="M80.0622 44.7862C80.0622 65.2366 63.5998 81.8087 43.2848 81.8087C22.9698 81.8087 6.49902 65.2366 6.49902 44.7862C6.49902 24.3358 22.9698 7.76367 43.2848 7.76367C63.5998 7.76367 80.0622 24.3358 80.0622 44.7862Z" fill="#E60015"/>
<path d="M80.0622 44.7862C80.0622 65.2366 63.5998 81.8087 43.2848 81.8087C22.9698 81.8087 6.49902 65.2366 6.49902 44.7862C6.49902 24.3358 22.9698 7.76367 43.2848 7.76367C63.5998 7.76367 80.0622 24.3358 80.0622 44.7862Z" fill="url(#paint0_linear_2074_1458)"/>
<path d="M93.0004 24.7123C93.0004 27.6648 90.6226 30.0585 87.6896 30.0585C84.7567 30.0585 82.3789 27.6648 82.3789 24.7123C82.3789 21.7599 84.7567 19.3662 87.6896 19.3662C90.6226 19.3662 93.0004 21.7599 93.0004 24.7123Z" fill="#E60015"/>
<path d="M88.584 38.098C88.584 39.3907 87.5401 40.4333 86.2642 40.4333C84.9883 40.4333 83.9443 39.3824 83.9443 38.098C83.9443 36.8136 84.98 35.7627 86.2642 35.7627C87.5483 35.7627 88.584 36.8136 88.584 38.098Z" fill="#E60015"/>
<path d="M92.3369 64.0032C92.3369 65.296 91.293 66.3385 90.0171 66.3385C88.7412 66.3385 87.6973 65.2876 87.6973 64.0032C87.6973 62.7188 88.7412 61.668 90.0171 61.668C91.293 61.668 92.3369 62.7188 92.3369 64.0032Z" fill="#E60015"/>
<path d="M55.7334 2.33528C55.7334 3.62802 54.6978 4.67056 53.4136 4.67056C52.1294 4.67056 51.0938 3.61968 51.0938 2.33528C51.0938 1.05088 52.1294 0 53.4136 0C54.6978 0 55.7334 1.05088 55.7334 2.33528Z" fill="#E60015"/>
<path d="M4.64746 58.1732C4.64746 59.4659 3.60354 60.5085 2.32763 60.5085C1.05173 60.5085 0.0078125 59.4576 0.0078125 58.1732C0.0078125 56.8888 1.05173 55.8379 2.32763 55.8379C3.60354 55.8379 4.64746 56.8888 4.64746 58.1732Z" fill="#E60015"/>
<path d="M58.7326 85.9047C58.7326 88.1649 56.9099 89.9997 54.6647 89.9997C52.4194 89.9997 50.5967 88.1649 50.5967 85.9047C50.5967 83.6444 52.4194 81.8096 54.6647 81.8096C56.9099 81.8096 58.7326 83.6444 58.7326 85.9047Z" fill="#E60015"/>
<path d="M23.9518 5.78816C23.9518 8.98248 21.3752 11.5763 18.202 11.5763C15.0288 11.5763 12.4521 8.98248 12.4521 5.78816C12.4521 2.59383 15.0205 0 18.202 0C21.3835 0 23.9518 2.59383 23.9518 5.78816Z" fill="#E60015"/>
<path d="M21.6053 31.3447C23.2442 31.3447 23.9485 32.1079 23.9483 33.6631L23.9482 34.0231C23.9481 35.0599 23.6317 35.7224 22.9272 36.0536C23.7754 36.3848 24.1059 37.148 24.1057 38.2136L24.1056 39.0344C24.1054 40.5896 23.2858 41.4248 21.7044 41.4248L19.2172 41.4248L19.2187 31.3447L21.6053 31.3447ZM21.5038 36.8888L20.7993 36.8888L20.7988 39.9848L21.7046 39.9848C22.2365 39.9848 22.5241 39.74 22.5242 38.9912L22.5243 38.1128C22.5245 37.1768 22.2226 36.8888 21.5038 36.8888ZM21.5619 32.7847L20.7999 32.7847L20.7995 35.4487L21.4177 35.4487C22.0072 35.4487 22.3666 35.1895 22.3668 34.3831L22.3668 33.8215C22.3669 33.1015 22.1226 32.7847 21.5619 32.7847Z" fill="white"/>
<path d="M26.5109 33.6631L26.5101 39.1064C26.51 39.8264 26.8262 40.1 27.3294 40.1C27.8326 40.1 28.1489 39.8264 28.149 39.1064L28.1499 33.6631C28.15 32.9431 27.8337 32.6695 27.3305 32.6695C26.8274 32.6695 26.511 32.9431 26.5109 33.6631ZM24.9287 39.0056L24.9295 33.7639C24.9297 32.1511 25.7781 31.2295 27.3308 31.2295C28.8834 31.2295 29.7315 32.1511 29.7313 33.7639L29.7305 39.0056C29.7302 40.6184 28.8819 41.54 27.3292 41.54C25.7765 41.54 24.9284 40.6184 24.9287 39.0056Z" fill="white"/>
<path d="M34.8408 41.4248L34.2665 36.0536L33.6906 41.4248L31.5198 41.4248L30.3999 31.3447L31.9382 31.3447L32.7852 39.2936L33.5484 31.3447L35.0723 31.3447L35.8618 39.3512L36.6825 31.3447L38.0627 31.3447L36.9398 41.4248L34.8408 41.4248Z" fill="white"/>
<path d="M38.8587 41.4248L38.8602 31.3447L40.4417 31.3447L40.4403 39.9848L43.0425 39.9848L43.0423 41.4248L38.8587 41.4248Z" fill="white"/>
<path d="M43.5304 33.7639C43.5306 32.1511 44.3215 31.2295 45.8597 31.2295C47.398 31.2295 48.1886 32.1511 48.1884 33.7639L48.1883 34.0807L46.6932 34.0807L46.6932 33.6631C46.6933 32.9431 46.4058 32.6695 45.9027 32.6695C45.3995 32.6695 45.1119 32.9431 45.1118 33.6631C45.1115 35.7368 48.2024 36.1256 48.202 39.0056C48.2017 40.6184 47.3965 41.54 45.8438 41.54C44.2911 41.54 43.4862 40.6184 43.4864 39.0056L43.4865 38.3864L44.9817 38.3864L44.9816 39.1064C44.9815 39.8264 45.2977 40.0856 45.8009 40.0856C46.3041 40.0856 46.6204 39.8264 46.6205 39.1064C46.6208 37.0328 43.5299 36.644 43.5304 33.7639Z" fill="white"/>
<path d="M52.9227 32.7847L52.9222 35.8232L54.9637 35.8232L54.9635 37.2632L52.922 37.2632L52.9214 41.4248L51.34 41.4248L51.3415 31.3447L55.5251 31.3447L55.5249 32.7847L52.9227 32.7847Z" fill="white"/>
<path d="M57.7351 33.6631L57.7343 39.1064C57.7342 39.8264 58.0504 40.1 58.5536 40.1C59.0568 40.1 59.3731 39.8264 59.3732 39.1064L59.3741 33.6631C59.3742 32.9431 59.0579 32.6695 58.5548 32.6695C58.0516 32.6695 57.7352 32.9431 57.7351 33.6631ZM56.1529 39.0056L56.1537 33.7639C56.1539 32.1511 57.0023 31.2295 58.555 31.2295C60.1077 31.2295 60.9557 32.1511 60.9555 33.7639L60.9547 39.0056C60.9544 40.6184 60.1061 41.54 58.5534 41.54C57.0007 41.54 56.1527 40.6184 56.1529 39.0056Z" fill="white"/>
<path d="M66.8988 41.4248L65.2886 41.4248C65.2024 41.1656 65.1449 41.0072 65.1451 40.1864L65.1453 38.6024C65.1455 37.6664 64.8292 37.3208 64.1104 37.3208L63.5641 37.3208L63.5635 41.4248L61.982 41.4248L61.9836 31.3447L64.3701 31.3447C66.009 31.3447 66.7133 32.1079 66.7131 33.6631L66.713 34.4551C66.7128 35.4919 66.3821 36.1688 65.6776 36.5C66.4682 36.8312 66.7269 37.5944 66.7267 38.6456L66.7265 40.2008C66.7264 40.6904 66.7407 41.0504 66.8988 41.4248ZM64.3267 32.7847L63.5648 32.7847L63.5643 35.8808L64.1825 35.8808C64.7719 35.8808 65.1314 35.6216 65.1315 34.8151L65.1317 33.8215C65.1318 33.1015 64.8874 32.7847 64.3267 32.7847Z" fill="white"/>
<path d="M27.7879 54.745L27.7882 53.215L28.9922 53.215C28.5611 51.973 27.7166 51.145 27.7169 48.9489C27.7172 46.9329 28.7058 45.7809 30.6287 45.7809C32.5516 45.7809 33.5398 46.9329 33.5395 48.9489L33.5393 50.1909L31.6703 50.1909L31.6705 48.8229C31.6707 47.9229 31.3113 47.5809 30.6823 47.5809C30.0533 47.5809 29.6939 47.9229 29.6937 48.8229C29.6934 51.073 30.5559 51.847 30.8971 53.215L33.0716 53.215L33.0713 54.745L31.0227 54.745C30.9327 55.663 30.5552 56.293 30.016 56.725L33.4125 56.725L33.4122 58.5251L27.5358 58.5251L27.536 56.797C28.4705 56.797 29.2074 56.041 29.2436 54.745L27.7879 54.745Z" fill="white"/>
<path d="M40.6466 48.9489L40.6456 55.393C40.6453 57.517 39.6747 58.6691 37.6261 58.6691C35.6852 58.6691 34.679 57.517 34.6793 55.501L34.6794 55.177L36.5483 55.177L36.5483 55.627C36.5481 56.527 36.9434 56.869 37.5724 56.869C38.2733 56.869 38.6687 56.527 38.6689 55.321L38.6692 53.017C38.3277 53.737 37.7166 54.133 36.836 54.133C35.3804 54.133 34.6438 53.107 34.644 51.253L34.6444 48.9489C34.6447 46.9329 35.7051 45.7809 37.646 45.7809C39.5868 45.7809 40.6469 46.9329 40.6466 48.9489ZM37.645 52.333C38.274 52.333 38.6694 51.991 38.6695 51.091L38.6699 48.8229C38.67 47.9229 38.2747 47.5989 37.6457 47.5989C37.0167 47.5989 36.6213 47.9229 36.6212 48.8229L36.6208 51.091C36.6207 51.991 37.016 52.333 37.645 52.333Z" fill="white"/>
<path d="M41.966 56.617L43.8709 56.617L43.8706 58.5251L41.9657 58.5251L41.966 56.617Z" fill="white"/>
<path d="M51.1062 48.9489L51.1052 55.393C51.1049 57.517 50.1343 58.6691 48.0856 58.6691C46.1448 58.6691 45.1386 57.517 45.1389 55.501L45.1389 55.177L47.0079 55.177L47.0078 55.627C47.0077 56.527 47.403 56.869 48.032 56.869C48.7328 56.869 49.1282 56.527 49.1284 55.321L49.1288 53.017C48.7872 53.737 48.1762 54.133 47.2956 54.133C45.84 54.133 45.1033 53.107 45.1036 51.253L45.1039 48.9489C45.1042 46.9329 46.1647 45.7809 48.1055 45.7809C50.0464 45.7809 51.1065 46.9329 51.1062 48.9489ZM48.1045 52.333C48.7335 52.333 49.1289 51.991 49.1291 51.091L49.1294 48.8229C49.1295 47.9229 48.7342 47.5989 48.1053 47.5989C47.4763 47.5989 47.0809 47.9229 47.0807 48.8229L47.0804 51.091C47.0803 51.991 47.4756 52.333 48.1045 52.333Z" fill="white"/>
<path d="M58.2313 48.9489L58.2303 55.393C58.23 57.517 57.2594 58.6691 55.2107 58.6691C53.2699 58.6691 52.2637 57.517 52.264 55.501L52.2641 55.177L54.133 55.177L54.133 55.627C54.1328 56.527 54.5281 56.869 55.1571 56.869C55.858 56.869 56.2534 56.527 56.2536 55.321L56.2539 53.017C55.9124 53.737 55.3013 54.133 54.4207 54.133C52.9651 54.133 52.2284 53.107 52.2287 51.253L52.2291 48.9489C52.2294 46.9329 53.2898 45.7809 55.2307 45.7809C57.1715 45.7809 58.2316 46.9329 58.2313 48.9489ZM55.2297 52.333C55.8587 52.333 56.2541 51.991 56.2542 51.091L56.2545 48.8229C56.2547 47.9229 55.8594 47.5989 55.2304 47.5989C54.6014 47.5989 54.206 47.9229 54.2059 48.8229L54.2055 51.091C54.2054 51.991 54.6007 52.333 55.2297 52.333Z" fill="white"/>
</g>
<defs>
<linearGradient id="paint0_linear_2074_1458" x1="48.0376" y1="12.6157" x2="38.1851" y2="77.9513" gradientUnits="userSpaceOnUse">
<stop stop-color="#B30010"/>
<stop offset="0.5" stop-color="#E60015"/>
<stop offset="1" stop-color="#B30010"/>
</linearGradient>
<clipPath id="clip0_2074_1458">
<rect width="93" height="90" fill="white"/>
</clipPath>
</defs>
</svg>
