<?xml version="1.0" encoding="UTF-8"?>
<svg xmlns="http://www.w3.org/2000/svg" width="80" height="80" viewBox="0 0 80 80" fill="none">
  <g clip-path="url(#clip0_15_707)">
    <path d="M44.5145 1.91009C47.9493 -1.6182 53.9232 -0.0176178 55.1344 4.75687C55.3415 5.5726 55.7098 6.33858 56.2178 7.0096C56.7257 7.68063 57.363 8.2431 58.0919 8.66381C58.8208 9.08452 59.6266 9.35496 60.4617 9.45915C61.2968 9.56334 62.1444 9.49917 62.9543 9.27044C67.6937 7.93273 72.0671 12.3061 70.7294 17.0455C70.5007 17.8555 70.4365 18.703 70.5407 19.5381C70.6449 20.3733 70.9153 21.179 71.336 21.9079C71.7567 22.6368 72.3192 23.2741 72.9902 23.782C73.6613 24.29 74.4272 24.6584 75.2429 24.8654C80.0174 26.0746 81.618 32.0505 78.0898 35.4854C77.4865 36.0723 77.0071 36.7743 76.6797 37.5497C76.3523 38.3251 76.1835 39.1582 76.1835 39.9999C76.1835 40.8416 76.3523 41.6747 76.6797 42.4501C77.0071 43.2255 77.4865 43.9275 78.0898 44.5144C81.618 47.9512 80.0174 53.9252 75.2429 55.1363C74.4273 55.3432 73.6614 55.7114 72.9904 56.2191C72.3194 56.7269 71.7569 57.3639 71.3361 58.0927C70.9154 58.8214 70.645 59.6271 70.5408 60.4621C70.4365 61.2971 70.5007 62.1445 70.7294 62.9543C72.0671 67.6957 67.6937 72.069 62.9543 70.7294C62.1443 70.5007 61.2966 70.4366 60.4613 70.5409C59.6261 70.6452 58.8203 70.9158 58.0913 71.3367C57.3624 71.7576 56.7252 72.3203 56.2174 72.9915C55.7095 73.6628 55.3412 74.429 55.1344 75.2449C53.9252 80.0194 47.9493 81.62 44.5145 78.0897C43.9275 77.4865 43.2256 77.007 42.4502 76.6796C41.6748 76.3522 40.8416 76.1835 39.9999 76.1835C39.1583 76.1835 38.3251 76.3522 37.5497 76.6796C36.7743 77.007 36.0724 77.4865 35.4854 78.0897C32.0486 81.62 26.0746 80.0194 24.8635 75.2449C24.6571 74.4289 24.2892 73.6625 23.7817 72.9911C23.2741 72.3196 22.637 71.7567 21.9083 71.3356C21.1795 70.9145 20.3737 70.6437 19.5385 70.5392C18.7033 70.4348 17.8556 70.4988 17.0456 70.7274C12.3042 72.0671 7.93083 67.6937 9.27049 62.9523C9.49917 62.1424 9.56323 61.2949 9.45889 60.4598C9.35455 59.6247 9.08392 58.8189 8.663 58.0902C8.24207 57.3614 7.6794 56.7244 7.00818 56.2167C6.33695 55.709 5.57077 55.341 4.75494 55.1344C-0.0195498 53.9232 -1.62011 47.9493 1.91013 44.5125C2.51336 43.9255 2.99283 43.2236 3.32023 42.4482C3.64762 41.6728 3.81629 40.8396 3.81629 39.998C3.81629 39.1563 3.64762 38.3231 3.32023 37.5477C2.99283 36.7723 2.51336 36.0704 1.91013 35.4834C-1.62011 32.0486 -0.0195498 26.0746 4.75494 24.8635C5.57084 24.6566 6.33703 24.2884 7.00827 23.7805C7.67951 23.2727 8.24223 22.6355 8.66314 21.9065C9.08405 21.1776 9.35462 20.3718 9.45894 19.5365C9.56325 18.7013 9.49919 17.8536 9.27049 17.0436C7.93083 12.3042 12.3042 7.93078 17.0456 9.2685C17.8554 9.4972 18.7028 9.56135 19.5378 9.45714C20.3728 9.35292 21.1784 9.08247 21.9072 8.66174C22.6359 8.24101 23.2729 7.67854 23.7807 7.00753C24.2885 6.33652 24.6567 5.57058 24.8635 4.75493C26.0746 -0.0195639 32.0486 -1.62015 35.4854 1.90815C36.0722 2.5115 36.774 2.99113 37.5494 3.3187C38.3247 3.64626 39.1578 3.81512 39.9995 3.81531C40.8412 3.81549 41.6744 3.64699 42.4498 3.31975C43.2253 2.99252 43.9274 2.5132 44.5145 1.91009Z" fill="#3E6352"></path>
    <path d="M59.5818 35.0941C59.5869 34.4273 59.4201 33.7705 59.0974 33.1869C58.7748 32.6034 58.3072 32.1128 57.7398 31.7625L40.0049 21.3762L22.2699 31.7625C21.6987 32.1107 21.2269 32.6001 20.8998 33.1837C20.5727 33.7672 20.4015 34.4252 20.4026 35.0941V54.6984C20.4057 55.737 20.8196 56.7322 21.554 57.4666C22.2884 58.201 23.2836 58.615 24.3222 58.618H55.6719C56.7103 58.6149 57.7053 58.2009 58.4394 57.4665C59.1736 56.732 59.5871 55.7368 59.5896 54.6984L59.5818 35.0941ZM39.999 44.9001L23.8121 34.7884L39.999 25.3037L56.186 34.7884L39.999 44.9001Z" fill="#FDF9EE"></path>
  </g>
  <defs>
    <clipPath id="clip0_15_707">
      <rect width="80" height="80" fill="white"></rect>
    </clipPath>
  </defs>
</svg>
