<?xml version="1.0" encoding="UTF-8"?>
<svg xmlns="http://www.w3.org/2000/svg" width="244" height="144" viewBox="0 0 244 144" fill="none">
  <g clip-path="url(#clip0_16_846)">
    <path d="M8.5109 64.8033C8.63414 64.5288 8.81097 64.282 9.03087 64.0776C9.25018 63.8763 9.5053 63.7186 9.7828 63.6126C10.3598 63.3947 10.9957 63.3947 11.5727 63.6126C11.8502 63.7186 12.1054 63.8763 12.3247 64.0776C12.5446 64.282 12.7214 64.5288 12.8446 64.8033C12.9722 65.1058 13.0379 65.431 13.0379 65.7595C13.0379 66.0881 12.9722 66.4133 12.8446 66.7158C12.7225 66.99 12.5471 67.2368 12.3286 67.4416C12.1102 67.6465 11.8532 67.8052 11.5727 67.9084C10.9953 68.1236 10.3603 68.1236 9.7828 67.9084C9.50239 67.8052 9.24536 67.6465 9.0269 67.4416C8.80845 67.2368 8.63299 66.99 8.5109 66.7158C8.38336 66.4133 8.31763 66.0881 8.31763 65.7595C8.31763 65.431 8.38336 65.1058 8.5109 64.8033ZM9.0792 66.492C9.16364 66.7088 9.28902 66.907 9.4484 67.0757C9.60862 67.2399 9.80002 67.37 10.0112 67.4582C10.2224 67.5465 10.4491 67.591 10.6778 67.5893C10.9089 67.591 11.1379 67.5446 11.3504 67.4531C11.557 67.3651 11.7443 67.2369 11.9013 67.0757C12.0607 66.9066 12.1866 66.7085 12.2725 66.492C12.4125 66.153 12.452 65.7804 12.3861 65.4192C12.3203 65.0581 12.1519 64.7239 11.9013 64.457C11.7436 64.2966 11.5565 64.1685 11.3504 64.0796C10.917 63.9001 10.4308 63.9001 9.99736 64.0796C9.79128 64.1685 9.60421 64.2966 9.44646 64.457C9.2875 64.626 9.16218 64.8242 9.07726 65.0407C8.89952 65.5106 8.89952 66.0299 9.07726 66.4998L9.0792 66.492ZM11.7448 66.5582C11.6794 66.6757 11.5936 66.7804 11.4916 66.8675C11.3917 66.9528 11.277 67.0188 11.1533 67.0621C11.0289 67.1055 10.8983 67.1279 10.7667 67.1282C10.5798 67.131 10.3943 67.0952 10.2216 67.0231C10.0646 66.9567 9.92357 66.8572 9.80793 66.7313C9.69046 66.6055 9.59911 66.4573 9.53925 66.2955C9.47483 66.1227 9.44272 65.9393 9.44453 65.7547C9.44245 65.5674 9.47253 65.3811 9.53345 65.2041C9.5891 65.0413 9.67725 64.8916 9.79247 64.7644C9.90762 64.6393 10.048 64.5405 10.2042 64.4745C10.3781 64.4019 10.5649 64.3662 10.7532 64.3694C10.8897 64.3677 11.0255 64.3887 11.1552 64.4317C11.2774 64.4707 11.3914 64.5321 11.4916 64.6126C11.5914 64.696 11.6747 64.7977 11.737 64.9123C11.8051 65.0412 11.849 65.1817 11.8666 65.3267H11.3872C11.359 65.1893 11.2794 65.0681 11.1649 64.9881C11.0447 64.9028 10.9002 64.8591 10.7532 64.8636C10.6511 64.8575 10.5491 64.8767 10.4561 64.9194C10.3631 64.9622 10.2819 65.0272 10.2197 65.1088C10.0862 65.2923 10.0181 65.5157 10.0264 65.743C10.0259 65.8592 10.0435 65.9747 10.0785 66.0854C10.1104 66.1885 10.1609 66.2848 10.2274 66.3694C10.2889 66.4505 10.3675 66.5169 10.4574 66.564C10.5507 66.6118 10.6543 66.6358 10.759 66.634C10.9108 66.6409 11.0603 66.5948 11.1823 66.5037C11.2362 66.461 11.2811 66.4078 11.3143 66.3473C11.3475 66.2868 11.3683 66.2203 11.3756 66.1516H11.8724C11.8525 66.2935 11.8087 66.431 11.7428 66.5582H11.7448Z" fill="#FF2B3C"></path>
    <path d="M50.9744 108.793L3.82318 126.707L5.20414 130.389L52.3554 112.475L50.9744 108.793Z" fill="#FF2B3C"></path>
    <path d="M58.8071 105.693L9.42908 115.849L10.212 119.705L59.59 109.549L58.8071 105.693Z" fill="#FF2B3C"></path>
    <path d="M20.2615 121.801C23.9906 129.624 30.6279 135.655 38.7391 138.592C46.8502 141.529 55.7837 141.136 63.6092 137.497C71.4347 133.859 77.5237 127.268 80.5604 119.148C83.597 111.028 83.3375 102.032 79.8378 94.103L20.2615 121.801Z" fill="#FF2B3C"></path>
    <path d="M69.9508 131.876L55.2469 138.711L57.6735 144L72.3774 137.164L69.9508 131.876Z" fill="#FF2B3C"></path>
    <path d="M50.5459 47.1538L0.271912 43.5889L-0.00290793 47.5149L50.271 51.0799L50.5459 47.1538Z" fill="#FF2B3C"></path>
    <path d="M58.9432 47.6342L9.86816 36.0854L8.97787 39.9179L58.0529 51.4667L58.9432 47.6342Z" fill="#FF2B3C"></path>
    <path d="M17.246 46.0485C17.2196 50.4068 18.0505 54.7273 19.6908 58.7609C21.3311 62.7945 23.7483 66.4615 26.8032 69.5505C29.858 72.6396 33.4901 75.0895 37.49 76.7592C41.49 78.4288 45.7787 79.2852 50.109 79.2789C54.4393 79.2726 58.7255 78.4038 62.7206 76.7225C66.7158 75.0412 70.3408 72.5807 73.3868 69.4829C76.4328 66.385 78.8395 62.711 80.4682 58.6726C82.0969 54.6342 82.9154 50.3114 82.8765 45.9531L17.246 46.0485Z" fill="#FF2B3C"></path>
    <path d="M58.2 76.1091L42.0035 76.1318L42.0116 81.9567L58.208 81.934L58.2 76.1091Z" fill="#FF2B3C"></path>
    <path d="M43.9691 80.8228L93.6501 89.3521L94.3077 85.4723L44.6267 76.943L43.9691 80.8228Z" fill="#FF2B3C"></path>
    <path d="M36.3086 79.3554L86.7049 79.8335L86.7417 75.8979L36.3454 75.4198L36.3086 79.3554Z" fill="#FF2B3C"></path>
    <path d="M77.238 83.8213C76.2099 88.0336 74.3676 92.001 71.8162 95.4967C69.2648 98.9925 66.0542 101.948 62.3679 104.195C58.6815 106.442 54.5916 107.936 50.3315 108.592C46.0714 109.248 41.7247 109.053 37.5394 108.019C33.3542 106.984 29.4125 105.13 25.9392 102.562C22.466 99.9937 19.5293 96.7624 17.2969 93.0521C15.0644 89.3418 13.5799 85.2253 12.9281 80.9376C12.2763 76.6498 12.47 72.2749 13.498 68.0625L77.238 83.8213Z" fill="#FF2B3C"></path>
    <path d="M28.9941 108.904L44.7237 112.79L46.1032 107.133L30.3736 103.247L28.9941 108.904Z" fill="#FF2B3C"></path>
    <path d="M47.4721 0C45.7241 1.76403 44.3386 3.85734 43.3945 6.16039C42.4505 8.46343 41.9664 10.9311 41.97 13.4225C41.9736 15.9138 42.4647 18.3801 43.4154 20.6803C44.3661 22.9806 45.7577 25.0699 47.5107 26.8288C51.0399 23.2657 53.0185 18.4376 53.0112 13.4063C53.004 8.37512 51.0115 3.55281 47.4721 0Z" fill="#FF2B3C"></path>
    <path d="M74.1646 26.7898C70.6242 23.2382 65.8273 21.2471 60.8287 21.2544C55.8301 21.2617 51.0389 23.2668 47.5088 26.8287C51.0489 30.3808 55.8459 32.3722 60.8447 32.3649C65.8435 32.3576 70.6347 30.3522 74.1646 26.7898Z" fill="#FF2B3C"></path>
    <path d="M53.0468 40.4356C51.2668 38.6528 49.8597 36.5293 48.9086 34.1903C47.9574 31.8512 47.4814 29.3441 47.5088 26.8169C45.759 28.5822 44.3722 30.6773 43.4275 32.9825C42.4829 35.2876 41.999 37.7576 42.0034 40.2511C42.0079 42.7446 42.5007 45.2128 43.4537 47.5145C44.4066 49.8162 45.801 51.9062 47.5571 53.6651H66.1871V45.9784C61.2539 45.9388 56.534 43.9479 53.0468 40.4356Z" fill="#FF2B3C"></path>
    <path d="M73.8263 34.8346C74.2129 34.3288 75.1156 33.57 76.2637 33.5817C77.4119 33.5933 78.2721 34.3599 78.6336 34.8346C79.8398 36.4455 78.9197 39.786 76.2637 43.0389C73.5595 39.7879 72.6239 36.4397 73.8263 34.8346Z" fill="#FF2B3C"></path>
    <path d="M81.361 40.4628C81.6419 40.5014 81.9095 40.6073 82.1412 40.7715C82.373 40.9358 82.5622 41.1537 82.6929 41.4069C82.8236 41.6601 82.892 41.9411 82.8923 42.2264C82.8926 42.5118 82.8249 42.793 82.6948 43.0465C82.1748 44.1418 80.1471 44.5737 77.6845 44.0465C78.6587 41.6924 80.1761 40.2605 81.361 40.4628Z" fill="#FF2B3C"></path>
    <path d="M146.684 41.3348C150.954 52.722 144.981 61.4963 137.377 64.3854C131.532 66.6053 126.552 64.8115 125.044 63.2881L124.851 63.3601L131.021 79.8076L122.597 83.008L105.757 38.1014L114.179 34.901L115.84 39.329L116.033 39.257C116.16 37.1169 118.724 32.4477 124.569 30.2317C132.169 27.3329 142.414 29.9457 146.684 41.3348ZM138.324 44.5099C136.024 38.3737 130.366 36.6909 125.713 38.4593C120.937 40.2745 117.834 45.2123 120.16 51.4107C122.485 57.6092 128.054 59.2531 132.832 57.4418C137.483 55.6714 140.626 50.6461 138.324 44.5099Z" fill="#FDF9EE"></path>
    <path d="M136.6 66.6733C136.6 54.5001 145.267 48.4146 153.395 48.4146C159.645 48.4146 163.675 51.864 164.549 53.8251H164.742V49.0916H173.746V84.2531H164.75V79.5216H164.556C163.683 81.4807 159.653 84.9301 153.403 84.9301C145.267 84.9301 136.6 78.8445 136.6 66.6733ZM164.953 66.6733C164.953 60.0468 160.25 56.5293 155.211 56.5293C150.171 56.5293 145.468 60.113 145.468 66.6733C145.468 73.2336 150.171 76.8173 155.211 76.8173C160.25 76.8173 164.953 73.2998 164.953 66.6733Z" fill="#FDF9EE"></path>
    <path d="M206.313 36.6694C211.439 47.6928 206.152 56.9029 198.79 60.3698C193.13 63.0352 188.027 61.6305 186.409 60.2278L186.227 60.3153L193.63 76.2375L185.477 80.078L165.258 36.5955L173.413 32.7531L175.406 37.0332L175.588 36.9476C175.553 34.7978 177.753 29.9554 183.413 27.29C190.775 23.829 201.186 25.65 206.313 36.6694ZM198.219 40.4807C195.457 34.5391 189.689 33.2998 185.185 35.4223C180.562 37.6013 177.84 42.7628 180.635 48.7648C183.43 54.7667 189.103 55.9749 193.729 53.7959C198.231 51.6733 200.982 46.4223 198.219 40.4807Z" fill="#FDF9EE"></path>
    <path d="M198.113 56.817C201.621 45.1672 211.669 41.8734 219.449 44.247C225.428 46.0699 228.293 50.5466 228.563 52.6789L228.757 52.7372L230.11 48.208L238.729 50.8364L228.596 84.494L219.981 81.8676L221.345 77.3364L221.152 77.2781C219.751 78.8987 214.899 81.0232 208.92 79.2003C201.148 76.817 194.607 68.4649 198.113 56.817ZM225.246 65.0913C227.156 58.7508 223.669 54.0018 218.846 52.5407C214.023 51.0796 208.491 53.1244 206.601 59.4045C204.71 65.6847 208.188 70.4843 213.001 71.9532C217.814 73.4221 223.338 71.4337 225.246 65.0913Z" fill="#FDF9EE"></path>
    <path d="M146.76 96.6147C150.191 108.288 143.597 116.597 135.802 118.92C129.809 120.704 124.977 118.549 123.583 116.918L123.39 116.975L128.356 133.835L119.723 136.405L106.192 90.3696L114.825 87.7976L116.159 92.3365L116.352 92.2782C116.636 90.1381 119.53 85.6906 125.52 83.9124C133.3 81.5836 143.327 84.9416 146.76 96.6147ZM138.191 99.1673C136.341 92.8774 130.82 90.784 126.054 92.2042C121.157 93.6634 117.705 98.3599 119.572 104.714C121.439 111.068 126.879 113.115 131.775 111.656C136.542 110.235 140.041 105.457 138.191 99.1673Z" fill="#FDF9EE"></path>
    <path d="M144.631 108.833C145.495 96.9651 155.205 91.3075 164.317 91.9787C173.363 92.646 182.214 99.6733 181.35 111.543C180.486 123.413 170.719 129.064 161.665 128.397C152.553 127.724 143.767 120.702 144.631 108.833ZM172.439 110.885C172.895 104.613 168.749 100.51 163.723 100.138C158.698 99.7666 153.933 103.214 153.479 109.477C153.024 115.739 157.236 119.856 162.26 120.226C167.284 120.595 171.981 117.158 172.439 110.885Z" fill="#FDF9EE"></path>
    <path d="M193.789 106.374L190.462 112.016L192.159 120.5L183.335 122.29L173.916 75.222L182.742 73.4341L188.193 100.671L198.105 83.4321L208.642 81.2921L198.047 99.2356L217.056 115.455L207.177 117.457L193.789 106.374Z" fill="#FDF9EE"></path>
    <path d="M242.185 119.874L216.813 113.566C216.909 118.535 220.356 121.971 225.443 123.235C228.77 124.06 231.93 123.872 234.942 122.321L237.872 127.574C234.2 130.42 228.695 131.7 222.695 130.208C213.366 127.891 206.579 119.447 209.357 108.091C212.175 96.6011 222.184 92.4727 230.86 94.6284C239.479 96.7723 247.765 105.309 242.185 119.874ZM218.26 107.101L236.001 111.51C236.672 106.521 233.224 103.088 229.114 102.066C225.07 101.062 220.578 102.453 218.26 107.101Z" fill="#FDF9EE"></path>
  </g>
  <defs>
    <clipPath id="clip0_16_846">
      <rect width="244" height="144" fill="white"></rect>
    </clipPath>
  </defs>
</svg>
