<?xml version="1.0" encoding="UTF-8"?>
<svg xmlns="http://www.w3.org/2000/svg" width="197" height="117" viewBox="0 0 197 117" fill="none">
  <g clip-path="url(#clip0_7_123)">
    <path d="M6.86978 52.6549C6.96937 52.4318 7.11149 52.2308 7.28798 52.0634C7.46591 51.9006 7.67272 51.7736 7.89744 51.6889C8.36247 51.5108 8.87572 51.5108 9.34076 51.6889C9.56438 51.7742 9.77024 51.9013 9.94766 52.0634C10.1257 52.2299 10.2688 52.4311 10.3684 52.6549C10.4735 52.8993 10.5265 53.1633 10.524 53.4298C10.5273 53.6964 10.4743 53.9606 10.3684 54.2046C10.2688 54.4292 10.1258 54.6312 9.94766 54.7987C9.77101 54.9625 9.56499 55.0905 9.34076 55.1758C8.87466 55.348 8.36353 55.348 7.89744 55.1758C7.67159 55.0919 7.4648 54.9626 7.28952 54.7957C7.11423 54.6288 6.97407 54.4278 6.87743 54.2046C6.77033 53.961 6.71723 53.6965 6.72188 53.4298C6.71572 53.1637 6.76616 52.8995 6.86978 52.6549V52.6549ZM7.32878 54.0264C7.39543 54.199 7.49539 54.3565 7.6228 54.4895C7.75021 54.6226 7.90253 54.7286 8.07084 54.8013C8.24367 54.8746 8.42917 54.9124 8.61655 54.9124C8.80392 54.9124 8.98942 54.8746 9.16225 54.8013C9.32905 54.7301 9.47996 54.6255 9.60596 54.4939C9.73405 54.3584 9.83609 54.1998 9.90686 54.0264C10.019 53.7508 10.0503 53.4482 9.9969 53.155C9.94353 52.8618 9.80779 52.5904 9.60596 52.3734C9.47996 52.2417 9.32905 52.1372 9.16225 52.066C8.81247 51.9213 8.42062 51.9213 8.07084 52.066C7.90405 52.1372 7.75314 52.2417 7.62714 52.3734C7.49784 52.5074 7.39639 52.6664 7.32878 52.8409C7.18259 53.2222 7.18259 53.6451 7.32878 54.0264V54.0264ZM9.47846 54.0807C9.4271 54.1783 9.35887 54.2657 9.277 54.3389C9.19599 54.4068 9.10356 54.4593 9.00415 54.4939C8.90257 54.5301 8.79563 54.5485 8.68795 54.5482C8.53752 54.5506 8.3882 54.5216 8.24934 54.4629C8.12241 54.4076 8.00789 54.3268 7.91274 54.2253C7.81977 54.1222 7.74707 54.0021 7.69854 53.8714C7.64677 53.731 7.62085 53.5822 7.62204 53.4324C7.62 53.2803 7.64416 53.1291 7.69344 52.9855C7.73794 52.8525 7.80913 52.7303 7.90254 52.6265C7.99553 52.5255 8.10848 52.4454 8.23404 52.3914C8.37461 52.3325 8.52564 52.3035 8.67775 52.3062C8.78842 52.3051 8.89857 52.3217 9.00415 52.3553C9.10254 52.3881 9.19416 52.4388 9.27446 52.5051C9.35557 52.5716 9.4224 52.6542 9.47081 52.7479C9.52675 52.8519 9.56225 52.9659 9.57536 53.0837H9.18776C9.16578 52.9716 9.1018 52.8726 9.00925 52.8073C8.91154 52.7404 8.79565 52.7061 8.67775 52.7091C8.59561 52.7042 8.51351 52.7195 8.43847 52.7537C8.36343 52.7879 8.29767 52.8399 8.24679 52.9054C8.14164 53.056 8.08873 53.2377 8.09634 53.422C8.09665 53.5167 8.11127 53.6108 8.13969 53.701C8.16561 53.7843 8.20621 53.8622 8.25955 53.9309C8.3092 53.9968 8.37281 54.0506 8.4457 54.0884C8.52058 54.1273 8.60381 54.1468 8.68795 54.1452C8.81036 54.1498 8.93071 54.1125 9.02965 54.0393C9.07395 54.005 9.11083 53.9619 9.13802 53.9126C9.16522 53.8633 9.18214 53.8088 9.18776 53.7526H9.60086C9.58007 53.871 9.53862 53.9847 9.47846 54.0884V54.0807Z" fill="#FF2B3C"></path>
    <path d="M41.1557 88.394L3.08667 102.949L4.20154 105.941L42.2705 91.3856L41.1557 88.394Z" fill="#FF2B3C"></path>
    <path d="M47.4695 85.9399L7.59247 94.183L8.22386 97.3166L48.1009 89.0736L47.4695 85.9399Z" fill="#FF2B3C"></path>
    <path d="M16.3585 98.9662C17.8107 102.176 19.8741 105.064 22.4303 107.465C24.9865 109.866 27.9853 111.732 31.2549 112.956C34.5245 114.181 38.0005 114.74 41.4838 114.602C44.9671 114.463 48.3891 113.63 51.5539 112.149C54.7186 110.669 57.5638 108.57 59.9263 105.974C62.2889 103.378 64.1224 100.335 65.3218 97.0195C66.5212 93.7042 67.0629 90.1817 66.9158 86.654C66.7688 83.1262 65.9358 79.6626 64.4648 76.4615L16.3585 98.9662Z" fill="#FF2B3C"></path>
    <path d="M56.4789 107.151L44.6073 112.704L46.5661 117L58.4377 111.447L56.4789 107.151Z" fill="#FF2B3C"></path>
    <path d="M40.8038 38.3133L0.213562 35.4168L-0.0083038 38.6065L40.5819 41.5031L40.8038 38.3133Z" fill="#FF2B3C"></path>
    <path d="M47.5913 38.702L7.96906 29.3185L7.25031 32.4322L46.8725 41.8157L47.5913 38.702Z" fill="#FF2B3C"></path>
    <path d="M13.9359 37.4158C13.9461 44.5333 16.7472 51.3551 21.7231 56.3806C26.699 61.4061 33.4421 64.2237 40.469 64.2134C47.4958 64.2031 54.2309 61.3659 59.1924 56.3258C64.154 51.2858 66.9357 44.4558 66.9255 37.3383L13.9359 37.4158Z" fill="#FF2B3C"></path>
    <path d="M46.9844 61.8407L33.9079 61.8592L33.9144 66.5911L46.991 66.5726L46.9844 61.8407Z" fill="#FF2B3C"></path>
    <path d="M35.501 65.6675L75.6125 72.5977L76.1433 69.4456L36.0318 62.5154L35.501 65.6675Z" fill="#FF2B3C"></path>
    <path d="M29.3096 64.4786L69.9987 64.867L70.0284 61.6696L29.3394 61.2811L29.3096 64.4786Z" fill="#FF2B3C"></path>
    <path d="M62.3584 68.1006C60.6674 74.9954 56.3463 80.9297 50.3424 84.6024C44.3385 88.2752 37.1418 89.3868 30.33 87.6934C23.5182 86.0001 17.6473 81.64 14.0043 75.5691C10.3614 69.4982 9.24369 62.2118 10.8963 55.3075L62.3584 68.1006Z" fill="#FF2B3C"></path>
    <path d="M23.4135 88.4869L36.1132 91.644L37.2267 87.0485L24.5271 83.8914L23.4135 88.4869Z" fill="#FF2B3C"></path>
    <path d="M38.3269 0C35.477 2.89493 33.8791 6.81802 33.8848 10.9062C33.8906 14.9945 35.4994 18.9129 38.3575 21.7996C41.2069 18.9044 42.8043 14.9814 42.7986 10.8934C42.7928 6.80539 41.1844 2.88704 38.3269 0Z" fill="#FF2B3C"></path>
    <path d="M59.8772 21.7686C57.0193 18.8827 53.1466 17.2648 49.1111 17.2706C45.0755 17.2764 41.2074 18.9055 38.3575 21.7996C41.2159 24.6849 45.0884 26.3024 49.1237 26.2966C53.1591 26.2908 57.027 24.6621 59.8772 21.7686Z" fill="#FF2B3C"></path>
    <path d="M42.8278 32.8596C41.3918 31.412 40.2564 29.6878 39.4887 27.7888C38.721 25.8897 38.3363 23.8542 38.3576 21.8022C35.5082 24.6975 33.9108 28.6204 33.9165 32.7085C33.9223 36.7965 35.5307 40.7148 38.3882 43.6019H53.4333V37.359C49.4524 37.3261 45.6436 35.7102 42.8278 32.8596V32.8596Z" fill="#FF2B3C"></path>
    <path d="M59.6044 28.3034C59.8239 27.9889 60.1147 27.7324 60.4524 27.5553C60.7901 27.3783 61.1648 27.2859 61.545 27.2859C61.9252 27.2859 62.2999 27.3783 62.6376 27.5553C62.9753 27.7324 63.2661 27.9889 63.4856 28.3034C64.4597 29.6129 63.7176 32.3275 61.573 34.9698C59.3877 32.3275 58.6329 29.6077 59.6044 28.3034Z" fill="#FF2B3C"></path>
    <path d="M65.7015 32.8777C65.9282 32.9093 66.1441 32.9955 66.3311 33.1291C66.518 33.2628 66.6706 33.4399 66.776 33.6456C66.8815 33.8513 66.9366 34.0796 66.9369 34.3114C66.9372 34.5431 66.8826 34.7716 66.7776 34.9776C66.3569 35.8661 64.7197 36.2174 62.7333 35.7886C63.5059 33.8747 64.7325 32.7124 65.7015 32.8777Z" fill="#FF2B3C"></path>
    <path d="M118.428 37.8523C121.876 47.1043 117.054 54.2356 110.914 56.5835C106.193 58.3915 102.172 56.9296 100.968 55.6924L100.815 55.7492L105.796 69.1131L98.9947 71.7141L85.3954 35.2178L92.1938 32.6194L93.5351 36.2174L93.6881 36.1579C93.7926 34.4145 95.8607 30.6305 100.573 28.8251C106.709 26.4773 114.981 28.6004 118.428 37.8523ZM111.679 40.4352C109.822 35.4502 105.252 34.0839 101.499 35.5277C97.6406 37.0026 95.1237 41.0138 97.0133 46.0504C98.9029 51.0871 103.388 52.4224 107.244 50.9579C111 49.5012 113.538 45.4202 111.679 40.4326V40.4352Z" fill="#3E6352"></path>
    <path d="M110.286 58.4406C110.286 48.5507 117.284 43.607 123.847 43.607C128.891 43.607 132.148 46.4095 132.851 47.9979H133.022V44.1572H140.29V72.7266H133.022V68.8807H132.859C132.155 70.4717 128.899 73.2716 123.855 73.2716C117.284 73.2767 110.286 68.3305 110.286 58.4406ZM133.178 58.4406C133.178 53.0578 129.381 50.1986 125.311 50.1986C121.241 50.1986 117.447 53.1121 117.447 58.4406C117.447 63.7691 121.244 66.6826 125.311 66.6826C129.378 66.6826 133.178 63.8259 133.178 58.4406Z" fill="#3E6352"></path>
    <path d="M166.57 34.0632C170.709 43.0207 166.44 50.5034 160.496 53.3213C155.927 55.4858 151.808 54.3545 150.503 53.2051L150.355 53.2748L156.332 66.2125L149.748 69.3275L133.428 33.9961L140.012 30.8759L141.621 34.3603L141.769 34.2905C141.741 32.5445 143.516 28.6082 148.085 26.4437C154.027 23.6309 162.432 25.1057 166.57 34.0632ZM160.037 37.1627C157.809 32.3353 153.152 31.3279 149.513 33.0507C145.78 34.82 143.587 39.0146 145.839 43.8989C148.09 48.7831 152.678 49.7569 156.411 47.9876C160.053 46.2545 162.269 41.9876 160.037 37.1601V37.1627Z" fill="#3E6352"></path>
    <path d="M159.951 50.4336C162.784 40.9673 170.895 38.294 177.176 40.2183C182.006 41.7009 184.316 45.3376 184.535 47.0707L184.691 47.1198L185.793 43.4392L192.749 45.5649L184.569 72.9152L177.612 70.7791L178.714 67.1011L178.558 67.052C177.429 68.3693 173.509 70.0946 168.682 68.6017C162.401 66.6852 157.12 59.8974 159.951 50.4336ZM181.858 57.1492C183.388 51.9834 180.583 48.1452 176.692 46.9519C172.8 45.7586 168.33 47.4272 166.805 52.5284C165.28 57.6296 168.08 61.5298 171.971 62.7256C175.863 63.9215 180.318 62.3098 181.858 57.1569V57.1492Z" fill="#3E6352"></path>
    <path d="M118.487 82.7586C121.256 92.2404 115.937 98.9946 109.639 100.883C104.793 102.332 100.897 100.581 99.775 99.2555L99.6169 99.302L103.62 112.991L96.6512 115.081L85.7218 77.6961L92.6936 75.6065L93.7697 79.2923L93.9278 79.2458C94.1573 77.5153 96.4931 73.8941 101.323 72.4425C107.621 70.557 115.718 73.2845 118.487 82.7586ZM111.569 84.8249C110.075 79.7159 105.617 78.0138 101.769 79.1683C97.8166 80.3539 95.0294 84.1688 96.5365 89.332C98.0435 94.4952 102.435 96.1586 106.387 94.9731C110.24 93.8366 113.063 89.9545 111.571 84.843L111.569 84.8249Z" fill="#3E6352"></path>
    <path d="M116.771 92.6975C117.47 83.053 125.308 78.4555 132.665 79.0082C139.969 79.5506 147.116 85.2588 146.418 94.9033C145.719 104.548 137.827 109.14 130.523 108.593C123.166 108.045 116.072 102.342 116.771 92.6975ZM139.211 94.3635C139.581 89.2675 136.233 85.9329 132.176 85.6333C128.119 85.3337 124.271 88.131 123.903 93.227C123.536 98.3231 126.935 101.66 130.992 101.962C135.05 102.265 138.854 99.4596 139.221 94.3635H139.211Z" fill="#3E6352"></path>
    <path d="M156.46 90.6984L153.774 95.2804L155.144 102.174L148.019 103.628L140.417 65.3886L147.542 63.9344L151.946 86.0698L159.948 72.0525L168.455 70.3168L159.9 84.8946L175.248 98.0674L167.272 99.6946L156.46 90.6984Z" fill="#3E6352"></path>
    <path d="M195.534 101.668L175.049 96.5435C175.126 100.581 177.91 103.37 182.019 104.398C184.704 105.07 187.256 104.915 189.687 103.657L192.053 107.926C189.085 110.251 184.643 111.284 179.798 110.068C172.267 108.185 166.792 101.324 169.036 92.0957C171.314 82.7611 179.395 79.406 186.397 81.1597C193.348 82.898 200.04 89.8331 195.534 101.668ZM176.217 91.2821L190.541 94.8646C191.084 90.812 188.299 88.0225 184.982 87.1908C181.728 86.3746 178.089 87.5137 176.217 91.2821Z" fill="#3E6352"></path>
  </g>
  <defs>
    <clipPath id="clip0_7_123">
      <rect width="197" height="117" fill="white"></rect>
    </clipPath>
  </defs>
</svg>
