<?xml version="1.0" encoding="UTF-8"?>
<svg xmlns="http://www.w3.org/2000/svg" width="114" height="114" viewBox="0 0 114 114" fill="none">
  <g clip-path="url(#clip0_15_699)">
    <path d="M114 53.9249C114.008 55.3836 113.646 56.8204 112.948 58.1012C112.25 59.382 111.238 60.465 110.008 61.249C109.028 61.8819 108.185 62.7049 107.528 63.6694C106.871 64.6338 106.415 65.7201 106.185 66.8641C105.955 68.008 105.957 69.1864 106.191 70.3296C106.424 71.4728 106.884 72.5576 107.544 73.5199C108.546 74.9625 109.084 76.6761 109.088 78.4325C109.094 80.6792 108.234 82.842 106.688 84.4716C105.141 86.1013 103.026 87.0726 100.782 87.1838C98.5474 87.2967 96.4411 88.2625 94.8973 89.8824C93.3536 91.5023 92.4901 93.6527 92.4848 95.8903C92.4848 96.1172 92.4848 96.3468 92.5112 96.5737C92.639 98.1243 92.3488 99.6808 91.6711 101.081C90.9933 102.482 89.9527 103.675 88.6574 104.537C87.3621 105.399 85.8596 105.898 84.306 105.982C82.7524 106.067 81.2046 105.733 79.8237 105.016C78.7845 104.482 77.6486 104.162 76.4833 104.075C75.318 103.987 74.1471 104.135 73.0399 104.509C71.9328 104.883 70.9118 105.475 70.0378 106.25C69.1637 107.026 68.4543 107.969 67.9515 109.024C67.2805 110.425 66.2483 111.622 64.961 112.491C63.6737 113.36 62.1779 113.87 60.6278 113.969C59.0778 114.067 57.5294 113.751 56.1423 113.052C54.7552 112.353 53.5796 111.297 52.7365 109.992C52.1032 109.012 51.2797 108.169 50.3149 107.513C49.35 106.856 48.2634 106.4 47.1192 106.171C45.975 105.941 44.7964 105.944 43.6532 106.178C42.51 106.412 41.4253 106.873 40.4633 107.533C39.0207 108.535 37.3069 109.072 35.5508 109.074C33.3045 109.078 31.1428 108.218 29.5139 106.671C27.8851 105.124 26.9141 103.01 26.8022 100.766C26.6901 98.5309 25.7244 96.4242 24.1044 94.8803C22.4845 93.3364 20.3337 92.473 18.0959 92.4684C17.869 92.4684 17.6395 92.4684 17.4127 92.4948C15.8621 92.6226 14.3056 92.3325 12.9051 91.6547C11.5046 90.9769 10.3114 89.9363 9.44944 88.641C8.58754 87.3456 8.08848 85.843 8.00419 84.2894C7.91989 82.7358 8.25346 81.188 8.97016 79.807C9.508 78.7688 9.83116 77.6328 9.92042 76.4669C10.0097 75.301 9.86316 74.1291 9.48964 73.021C9.11611 71.913 8.52323 70.8915 7.74635 70.0176C6.96947 69.1437 6.02449 68.4352 4.96785 67.9345C3.56659 67.2649 2.36931 66.2336 1.49951 64.9469C0.629704 63.6603 0.118862 62.165 0.0196604 60.6151C-0.0795411 59.0652 0.236526 57.5169 0.9352 56.1299C1.63387 54.7428 2.68989 53.5673 3.99434 52.7245C4.97515 52.0915 5.8191 51.2682 6.47629 50.3035C7.13348 49.3387 7.59058 48.2519 7.82055 47.1074C8.05053 45.9629 8.0487 44.7839 7.81521 43.6402C7.58171 42.4964 7.12131 41.4111 6.46116 40.4483C5.45737 39.0065 4.91793 37.2925 4.9151 35.5357C4.91031 33.2892 5.77068 31.1271 7.31763 29.4981C8.86458 27.869 10.9793 26.8982 13.223 26.787C15.458 26.6748 17.5648 25.7091 19.1087 24.0891C20.6525 22.4691 21.5158 20.3183 21.5204 18.0805C21.5204 17.8509 21.5204 17.624 21.4914 17.3945C21.3634 15.8435 21.6533 14.2865 22.3312 12.8857C23.0091 11.4848 24.0501 10.2912 25.3458 9.42923C26.6415 8.56721 28.1445 8.06826 29.6985 7.98429C31.2524 7.90033 32.8005 8.23442 34.1815 8.9518C35.2206 9.48583 36.3564 9.80592 37.5215 9.8931C38.6865 9.98027 39.8573 9.83276 40.9643 9.45931C42.0714 9.08586 43.0922 8.49405 43.9664 7.71894C44.8406 6.94384 45.5504 6.00116 46.0537 4.94679C46.7246 3.54636 47.7567 2.35008 49.0436 1.48113C50.3305 0.612188 51.8258 0.101994 53.3754 0.00309037C54.9251 -0.0958137 56.473 0.220167 57.86 0.918458C59.2469 1.61675 60.4226 2.67212 61.2661 3.9759C61.8998 4.95566 62.7233 5.79853 63.688 6.45478C64.6528 7.11103 65.7393 7.56734 66.8833 7.79679C68.0273 8.02623 69.2056 8.02417 70.3488 7.7907C71.492 7.55723 72.5769 7.0971 73.5394 6.43746C74.9817 5.43487 76.6953 4.89557 78.4518 4.89139C80.6988 4.88725 82.8611 5.74812 84.4905 7.29546C86.1198 8.84281 87.0911 10.9579 87.203 13.2022C87.3152 15.437 88.281 17.5435 89.901 19.087C91.521 20.6304 93.6717 21.4931 95.9093 21.4971C96.1388 21.4971 96.3657 21.4971 96.5953 21.4707C98.1458 21.3429 99.7023 21.633 101.103 22.3108C102.503 22.9886 103.697 24.0293 104.558 25.3246C105.42 26.6199 105.919 28.1225 106.004 29.6761C106.088 31.2297 105.754 32.7775 105.038 34.1585C104.503 35.1974 104.183 36.3331 104.095 37.4982C104.008 38.6632 104.155 39.834 104.528 40.9412C104.901 42.0483 105.493 43.0693 106.268 43.9436C107.043 44.8179 107.986 45.5277 109.04 46.031C110.533 46.7377 111.793 47.856 112.671 49.2545C113.55 50.653 114.011 52.2733 114 53.9249Z" fill="#FF2B3C"></path>
    <path d="M89.7041 76.7203C92.3424 69.9134 88.4324 65.9242 84.3827 64.9243C80.3329 63.9243 75.5946 65.8477 74.2676 71.2167C74.2412 71.3196 74.2174 71.4225 74.1963 71.528L68.9435 67.0745L73.9272 58.6872L68.9699 59.6871L64.3081 67.7499L61.8703 55.6426L63.0311 58.1226L66.8672 56.3285L63.3847 48.8858L63.469 48.8462C64.1603 49.4425 66.205 50.0387 68.5715 49.2077C68.0992 53.6242 70.8563 56.7375 74.0618 57.7084C76.8742 58.5606 79.1562 57.5686 79.8132 56.8114L79.9055 56.8377L79.2644 58.9484L83.3168 60.1753L88.0815 44.4481L84.0292 43.2213L83.388 45.332L83.2957 45.3056C83.1691 44.3083 81.8209 42.2161 79.0085 41.3639C77.2915 40.8451 75.449 40.927 73.7847 41.5961C73.7282 40.2866 73.404 39.0026 72.8323 37.8232C70.4209 32.6705 65.5217 31.8236 62.0602 33.4436C59.3982 34.6889 58.3667 36.9526 58.3667 37.9578L58.2822 37.9974L57.343 35.9949L53.5095 37.7889L56.2402 43.6276H53.2695V45.8411H53.1745C52.7629 44.923 50.8687 43.3136 47.9296 43.3136C47.0832 43.3145 46.2424 43.4508 45.4391 43.7173C45.4611 42.4473 45.2343 41.1853 44.7716 40.0025C42.7639 34.681 37.9437 33.4594 34.3688 34.8103C31.6171 35.8498 30.4114 38.0264 30.3534 39.0316L30.2637 39.0659L29.4722 36.9948L25.5148 38.4907L33.4296 59.4814L37.3871 57.9854L34.485 50.2999L34.572 50.2656C35.2526 50.949 37.4398 51.7484 40.049 50.8936C40.0227 51.2022 40.0069 51.5188 40.0069 51.8486C40.0069 57.5369 44.083 60.381 47.9085 60.381C50.8475 60.381 52.7418 58.769 53.1534 57.8509H53.2484V60.0987H57.4696V46.3635L61.5457 55.07L57.5461 55.8615L59.9575 67.8317C58.4933 65.3385 55.7811 63.8953 53.0321 63.6921C50.0139 63.4705 46.8611 64.7158 45.1172 67.4043C45.0399 66.8814 44.9253 66.3647 44.7742 65.8582C43.1623 60.4048 38.4423 58.835 34.7778 59.9193C31.9601 60.753 30.5988 62.8373 30.4669 63.832L30.3745 63.8584L29.7466 61.7477L25.6863 62.9508L32.0551 84.4638L36.1154 83.2634L33.7831 75.3853L33.8755 75.3589C34.5272 76.1187 36.804 77.1266 39.6217 76.2929C41.3074 75.7928 42.7775 74.7434 43.7981 73.3115C44.2703 77.7967 47.9665 80.4351 51.7867 80.7226C55.971 81.0287 60.4931 78.4774 61.0207 73.1163L61.9784 77.8653L66.1311 77.029L65.3396 73.0715L66.9041 70.4331L73.2017 75.6095L74.1356 75.4222C74.8453 78.5671 77.3675 80.7991 80.4991 81.5722C83.3221 82.2713 85.9103 81.6724 87.6383 80.3427L86.2585 77.8864C84.8749 78.5807 83.2816 78.7322 81.7919 78.3112C79.7155 77.7994 78.2223 76.5224 77.8344 74.6782H77.8503L77.8319 74.6623C77.7729 74.3775 77.7411 74.0878 77.7369 73.797L89.7041 76.7203ZM83.5569 68.3989C85.4881 68.8765 87.1107 70.4806 86.7967 72.8129L78.4518 70.7523C79.5414 68.5889 81.6547 67.9399 83.5569 68.4095V68.3989ZM38.2708 47.5561C36.023 48.403 33.4033 47.6379 32.3084 44.7383C31.2135 41.8388 32.6751 39.5355 34.9229 38.686C37.11 37.8602 39.7694 38.6464 40.8537 41.5143C41.9381 44.3822 40.4685 46.7276 38.2708 47.5534V47.5561ZM48.795 56.6109C46.4205 56.6109 44.2123 54.9355 44.2123 51.8618C44.2123 48.7882 46.4258 47.1128 48.795 47.1128C51.1641 47.1128 53.3776 48.7565 53.3776 51.8618C53.3776 54.9672 51.1641 56.6082 48.795 56.6082V56.6109ZM78.7262 45.266C80.9951 45.952 82.6361 48.1682 81.7365 51.131C80.8368 54.0939 78.2461 55.0252 75.9772 54.3366C73.7082 53.648 72.0777 51.4054 72.9668 48.4716C73.8559 45.5378 76.4573 44.5774 78.7236 45.266H78.7262ZM62.8966 37.2639C65.0072 36.2719 67.7272 36.8523 69.0279 39.6384C70.3286 42.4245 69.0279 44.8702 66.9173 45.8596C64.7433 46.878 62.0707 46.316 60.7595 43.5089C59.4483 40.7017 60.72 38.2823 62.8939 37.2639H62.8966ZM37.7749 72.8815C35.4717 73.5622 32.9152 72.6177 32.0366 69.6363C31.1581 66.655 32.7806 64.4705 35.0838 63.7898C37.3264 63.1249 39.9224 64.1037 40.7931 67.0428C41.6637 69.9819 40.0148 72.2351 37.7722 72.892L37.7749 72.8815ZM56.9024 72.52C56.6861 75.4512 54.4778 77.0633 52.1139 76.8891C49.75 76.715 47.7687 74.7969 47.9824 71.8763C48.1961 68.9556 50.4386 67.3357 52.8025 67.5072C55.1664 67.6787 57.1135 69.5968 56.8998 72.5306L56.9024 72.52Z" fill="#FDF9EE"></path>
  </g>
  <defs>
    <clipPath id="clip0_15_699">
      <rect width="114" height="114" fill="white"></rect>
    </clipPath>
  </defs>
</svg>
