<?xml version="1.0" encoding="UTF-8"?>
<svg xmlns="http://www.w3.org/2000/svg" width="115" height="114" viewBox="0 0 115 114" fill="none">
  <g clip-path="url(#clip0_15_697)">
    <path d="M114.003 53.9249C114.011 55.3836 113.649 56.8204 112.95 58.1012C112.252 59.382 111.241 60.465 110.011 61.249C109.031 61.8819 108.187 62.7049 107.531 63.6694C106.874 64.6338 106.417 65.7201 106.188 66.8641C105.958 68.008 105.96 69.1864 106.193 70.3295C106.427 71.4727 106.887 72.5576 107.547 73.5199C108.548 74.9625 109.087 76.6761 109.09 78.4325C109.096 80.6792 108.237 82.842 106.69 84.4716C105.144 86.1013 103.029 87.0726 100.785 87.1838C98.5497 87.2967 96.4434 88.2625 94.8996 89.8824C93.3558 91.5023 92.4923 93.6527 92.4871 95.8904C92.4871 96.1172 92.487 96.3467 92.5134 96.5736C92.6411 98.1243 92.3511 99.6808 91.6733 101.081C90.9955 102.482 89.9549 103.675 88.6596 104.537C87.3642 105.399 85.8616 105.898 84.308 105.982C82.7544 106.067 81.2066 105.733 79.8256 105.016C78.787 104.484 77.6522 104.166 76.4883 104.08C75.3244 103.993 74.1551 104.142 73.0494 104.515C71.9438 104.889 70.9244 105.48 70.0513 106.255C69.1782 107.029 68.4693 107.971 67.9664 109.024C67.2954 110.425 66.263 111.621 64.9757 112.491C63.6884 113.36 62.1926 113.87 60.6425 113.969C59.0924 114.067 57.544 113.751 56.1568 113.052C54.7697 112.353 53.594 111.297 52.751 109.992C52.1176 109.012 51.2942 108.169 50.3293 107.513C49.3645 106.856 48.2778 106.4 47.1335 106.171C45.9893 105.941 44.8107 105.944 43.6675 106.178C42.5242 106.412 41.4395 106.873 40.4774 107.533C39.0348 108.535 37.3211 109.072 35.5649 109.074C33.3186 109.078 31.1568 108.218 29.5279 106.671C27.899 105.124 26.928 103.01 26.8161 100.766C26.7039 98.5309 25.7383 96.4241 24.1183 94.8802C22.4983 93.3363 20.3475 92.4731 18.1096 92.4684C17.8827 92.4684 17.6532 92.4684 17.4263 92.4948C15.8757 92.6225 14.3191 92.3325 12.9186 91.6547C11.5181 90.9769 10.3248 89.9362 9.46287 88.6409C8.60095 87.3456 8.10188 85.843 8.01758 84.2894C7.93329 82.7358 8.26693 81.188 8.98365 79.807C9.52149 78.7687 9.8446 77.6328 9.93386 76.4669C10.0231 75.301 9.8766 74.129 9.50307 73.021C9.12953 71.9129 8.5367 70.8915 7.75981 70.0176C6.98291 69.1437 6.03784 68.4352 4.98118 67.9345C3.57989 67.2649 2.38264 66.2336 1.51282 64.9469C0.642995 63.6603 0.132206 62.1649 0.0330021 60.615C-0.0662016 59.0651 0.249744 57.5169 0.948434 56.1298C1.64712 54.7428 2.70316 53.5673 4.00764 52.7245C4.98848 52.0915 5.83251 51.2682 6.48972 50.3035C7.14693 49.3387 7.60403 48.2519 7.83401 47.1074C8.06399 45.9629 8.0621 44.7839 7.8286 43.6402C7.5951 42.4964 7.13469 41.411 6.47452 40.4483C5.47071 39.0065 4.93132 37.2925 4.92849 35.5357C4.9237 33.2892 5.78409 31.1271 7.33108 29.498C8.87806 27.869 10.9928 26.8982 13.2366 26.787C15.4716 26.6748 17.5784 25.7091 19.1223 24.0891C20.6662 22.4691 21.5296 20.3183 21.5342 18.0804C21.5342 17.8509 21.5342 17.624 21.5052 17.3945C21.3771 15.8435 21.6671 14.2865 22.345 12.8856C23.0229 11.4848 24.0639 10.2912 25.3596 9.4292C26.6554 8.56718 28.1584 8.06823 29.7124 7.98426C31.2664 7.9003 32.8146 8.23438 34.1956 8.95177C35.2342 9.4837 36.3688 9.8021 37.5325 9.88817C38.6961 9.97424 39.8652 9.82624 40.9707 9.4529C42.0762 9.07956 43.0957 8.48845 43.9689 7.7145C44.8422 6.94055 45.5515 5.99945 46.0549 4.94679C46.7258 3.54636 47.7579 2.35008 49.0448 1.48113C50.3317 0.612189 51.827 0.101996 53.3767 0.00309164C54.9263 -0.0958124 56.4744 0.220136 57.8613 0.918427C59.2483 1.61672 60.4241 2.67209 61.2676 3.97587C61.9013 4.95563 62.7247 5.79853 63.6895 6.45478C64.6543 7.11104 65.7408 7.56734 66.8849 7.79679C68.0289 8.02624 69.2073 8.02417 70.3505 7.7907C71.4938 7.55723 72.5787 7.0971 73.5411 6.43746C74.9835 5.43487 76.6972 4.89557 78.4538 4.89139C80.7008 4.88725 82.8632 5.74809 84.4926 7.29543C86.122 8.84278 87.0933 10.9579 87.2051 13.2022C87.3173 15.437 88.283 17.5434 89.9031 19.0869C91.5232 20.6304 93.674 21.4931 95.9116 21.4971C96.1412 21.4971 96.368 21.4971 96.5975 21.4707C98.1481 21.3429 99.7047 21.633 101.105 22.3108C102.506 22.9886 103.699 24.0293 104.561 25.3246C105.423 26.6199 105.922 28.1225 106.006 29.6761C106.091 31.2297 105.757 32.7775 105.04 34.1585C104.508 35.1968 104.189 36.3313 104.103 37.4949C104.016 38.6586 104.164 39.8278 104.537 40.9334C104.91 42.0389 105.501 43.0585 106.275 43.9318C107.049 44.8051 107.99 45.5144 109.043 46.0178C110.538 46.7254 111.799 47.8458 112.678 49.2469C113.556 50.6479 114.016 52.2711 114.003 53.9249Z" fill="#FF2B3C"></path>
    <path d="M26.9453 60.1516H41.7913V63.7846H30.9556V68.9425H41.4906V72.4515H30.9556V77.6966H41.7913V81.3296H26.9453V60.1516ZM82.7911 81.7095C87.3423 81.7095 89.9147 79.5302 89.9147 76.5383C89.9147 74.4066 88.3949 72.8156 85.2183 72.1244L81.8572 71.4384C79.9074 71.0743 79.2926 70.7103 79.2926 69.9847C79.2926 69.0428 80.2345 68.4677 81.9652 68.4677C83.8437 68.4677 85.2368 68.9716 85.5982 70.7076H89.5373C89.321 67.4387 86.9729 65.2805 82.2054 65.2805C78.0869 65.2805 75.1954 66.9796 75.1954 70.2749C75.1954 72.5518 76.7784 74.0346 80.2082 74.7601L83.9651 75.6281C85.4479 75.9183 85.8437 76.3194 85.8437 76.9473C85.8437 77.9235 84.725 78.5303 82.9151 78.5303C80.6408 78.5303 79.3401 78.0237 78.8362 76.2877H74.8787C75.4565 79.5487 77.8759 81.7174 82.7937 81.7174L82.7911 81.7095ZM73.7337 81.3137H69.4728C66.8002 81.3137 65.3174 79.6516 65.3174 77.5514V69.2328H62.3202V65.6868H65.3306V61.2386H69.2881V65.6868H73.7284V69.2328H69.2881V76.5383C69.2881 77.3694 69.8632 77.7704 70.7682 77.7704H73.7284L73.7337 81.3137ZM56.661 65.6948V67.1036C55.2667 65.9263 53.4994 65.283 51.6746 65.2885C50.5869 65.2502 49.5024 65.4285 48.4842 65.8129C47.4661 66.1974 46.5345 66.7804 45.7436 67.528C44.9527 68.2756 44.3184 69.173 43.8773 70.168C43.4362 71.1629 43.1972 72.2356 43.1743 73.3237C43.1514 74.4118 43.345 75.4936 43.7439 76.5062C44.1427 77.5189 44.7388 78.4421 45.4976 79.2223C46.2563 80.0026 47.1625 80.6243 48.1636 81.0512C49.1647 81.4782 50.2406 81.7019 51.329 81.7095H51.6746C53.4999 81.7175 55.268 81.0738 56.661 79.8943V81.3084H60.6185V65.6868L56.661 65.6948ZM52.0017 78.2823C51.0566 78.2932 50.1296 78.0236 49.3378 77.5076C48.546 76.9916 47.9251 76.2523 47.5535 75.3834C47.1818 74.5144 47.0763 73.5548 47.2501 72.6258C47.4239 71.6968 47.8693 70.8403 48.53 70.1645C49.1906 69.4886 50.0369 69.024 50.9617 68.8291C51.8865 68.6343 52.8482 68.7182 53.7254 69.07C54.6025 69.4219 55.3557 70.0259 55.8895 70.8058C56.4233 71.5857 56.7138 72.5065 56.7243 73.4515V73.5095C56.7355 74.7616 56.2491 75.9669 55.3719 76.8604C54.4947 77.7539 53.2986 78.2625 52.0465 78.2743H51.9938L52.0017 78.2823Z" fill="#FDF9EE"></path>
    <path d="M89.0228 42.6541C87.0229 42.6541 85.6062 44.2187 85.6062 46.6117V55.4184H82.5536V39.9156H85.5693V41.8072C85.9416 41.1801 86.4747 40.6639 87.1134 40.3119C87.7521 39.9598 88.4732 39.7847 89.2023 39.8047H90.2971V42.6462L89.0228 42.6541ZM80.4456 47.667C80.4456 43.0446 77.1557 39.5858 72.7048 39.5858C70.5904 39.6032 68.5693 40.459 67.0853 41.9652C65.6013 43.4715 64.7757 45.5051 64.7898 47.6195V47.667C64.7898 52.2867 68.3541 55.7799 73.0029 55.7799C74.3011 55.8045 75.5862 55.5164 76.7498 54.9402C77.9133 54.3639 78.9212 53.5163 79.6884 52.4688L77.4748 50.8462C76.9668 51.555 76.2947 52.1303 75.5159 52.5227C74.7371 52.9151 73.8748 53.1129 73.0029 53.0993C71.7605 53.0938 70.5611 52.6435 69.6221 51.8299C68.6832 51.0163 68.0668 49.8932 67.8845 48.6643H80.4615L80.4456 47.667ZM67.9425 46.2449C68.4886 43.8704 70.3777 42.2874 72.6678 42.2874C74.9579 42.2874 76.8469 43.8889 77.3561 46.2449H67.9425ZM55.1176 39.5858C54.0976 39.5871 53.088 39.7903 52.147 40.1838C51.206 40.5773 50.3523 41.1533 49.635 41.8785V34.127H46.5825V55.4184H49.5982V53.4502C51.0586 54.9277 53.0454 55.7656 55.1228 55.7799C57.2513 55.7955 59.3003 54.9726 60.8268 53.4892C62.3534 52.0059 63.2346 49.9813 63.2801 47.8532C63.3255 45.7252 62.5314 43.6648 61.0695 42.1176C59.6077 40.5705 57.5957 39.661 55.4685 39.5858H55.1176ZM54.8986 53.0413C53.8366 53.0465 52.7968 52.7366 51.911 52.1509C51.0251 51.5652 50.3329 50.7299 49.9218 49.7507C49.5107 48.7715 49.3993 47.6924 49.6015 46.6498C49.8038 45.6072 50.3106 44.6481 51.058 43.8936C51.8055 43.1392 52.76 42.6233 53.8006 42.4113C54.8412 42.1994 55.9212 42.3007 56.9042 42.7027C57.8872 43.1046 58.729 43.7891 59.3229 44.6694C59.9169 45.5498 60.2365 46.5865 60.2412 47.6485V47.6934C60.2419 49.1062 59.6818 50.4615 58.6841 51.4617C57.6863 52.4619 56.3325 53.0253 54.9197 53.0281H54.8986V53.0413ZM35.3459 52.8962C38.2929 52.8962 40.5803 50.6377 40.5803 47.2528V34.1165H43.7463V55.4079H40.6225V53.3922C39.8928 54.148 39.0174 54.7481 38.0493 55.1562C37.0811 55.5643 36.0403 55.772 34.9897 55.7667C30.4464 55.7667 26.9506 52.4556 26.9506 47.4348V34.1244H30.1694V47.2791C30.1641 50.6931 32.3514 52.9146 35.3459 52.9146V52.8962Z" fill="#FDF9EE"></path>
  </g>
  <defs>
    <clipPath id="clip0_15_697">
      <rect width="114.003" height="114" fill="white"></rect>
    </clipPath>
  </defs>
</svg>
