<svg width="95" height="95" viewBox="0 0 95 95" fill="none" xmlns="http://www.w3.org/2000/svg">
<path d="M40.3997 3.82685C41.0112 2.689 41.915 1.73473 43.0179 1.06229C44.121 0.389838 45.3831 0.023529 46.6747 0.00109619C47.9664 -0.0213366 49.2406 0.300896 50.3663 0.934637C51.4918 1.56838 52.4282 2.49069 53.0789 3.60663C53.5674 4.44546 54.219 5.17789 54.9953 5.76061C55.7715 6.34334 56.6568 6.76459 57.5987 6.99943C58.5405 7.23427 59.5199 7.27794 60.4788 7.1279C61.4379 6.97785 62.3571 6.6371 63.1822 6.12581C64.2813 5.44616 65.5416 5.07173 66.8335 5.04108C68.1255 5.01041 69.4021 5.32463 70.5322 5.95136C71.6623 6.57809 72.6049 7.4947 73.263 8.60681C73.9212 9.71892 74.271 10.9863 74.2766 12.2785C74.2805 13.2494 74.4789 14.2098 74.8602 15.1027C75.2415 15.9956 75.7979 16.803 76.4966 17.4774C77.1952 18.1517 78.0217 18.6793 78.9276 19.0287C79.8334 19.3782 80.8001 19.5427 81.7706 19.5123C83.0622 19.4727 84.3411 19.7782 85.4754 20.3975C86.6096 21.0166 87.5584 21.9271 88.2236 23.0349C88.889 24.1428 89.2467 25.408 89.2602 26.7003C89.2736 27.9925 88.9423 29.265 88.3004 30.3864C87.8186 31.2293 87.5106 32.1598 87.3945 33.1237C87.2785 34.0874 87.3565 35.0645 87.6243 35.9977C87.892 36.9306 88.3441 37.8006 88.9536 38.5562C89.5631 39.3117 90.3179 39.9373 91.1733 40.3963C92.311 41.0079 93.2653 41.9117 93.9378 43.0146C94.6102 44.1176 94.9766 45.3798 94.9989 46.6714C95.0214 47.963 94.6992 49.2372 94.0655 50.3629C93.4318 51.4884 92.5094 52.4249 91.3934 53.0755C90.5545 53.5643 89.822 54.2163 89.2392 54.9929C88.6564 55.7695 88.2352 56.6549 88.0004 57.5971C87.7655 58.5392 87.722 59.5188 87.8719 60.4782C88.022 61.4374 88.363 62.3568 88.8743 63.1822C89.5548 64.2808 89.9303 65.5411 89.9616 66.8331C89.993 68.1251 89.6791 69.402 89.0526 70.5325C88.426 71.6627 87.5093 72.6057 86.3971 73.2638C85.2849 73.9219 84.0172 74.2715 82.7248 74.2766C81.7539 74.28 80.7936 74.4781 79.9005 74.859C79.0074 75.2399 78.1997 75.7959 77.525 76.4942C76.8505 77.1925 76.3225 78.0187 75.9726 78.9245C75.6227 79.8302 75.4578 80.7967 75.4877 81.7672C75.528 83.0592 75.2228 84.3385 74.6039 85.4732C73.985 86.608 73.0746 87.5571 71.9666 88.2228C70.8587 88.8885 69.5932 89.2467 68.3006 89.2603C67.0082 89.2739 65.7354 88.9425 64.6137 88.3004C63.771 87.8181 62.8402 87.5098 61.8764 87.3934C60.9125 87.277 59.9352 87.3551 59.0019 87.6229C58.0688 87.8908 57.1989 88.3428 56.4434 88.9526C55.6879 89.5624 55.0625 90.3176 54.6037 91.1733C53.9922 92.311 53.0884 93.2653 51.9855 93.9378C50.8825 94.6102 49.6203 94.9766 48.3287 94.9989C47.037 95.0214 45.7628 94.6991 44.6372 94.0655C43.5116 93.4318 42.5752 92.5094 41.9245 91.3934C41.4357 90.5545 40.7838 89.822 40.0071 89.2392C39.2306 88.6564 38.3451 88.2352 37.403 88.0003C36.4608 87.7655 35.4813 87.722 34.5219 87.8719C33.5626 88.022 32.6433 88.363 31.8178 88.8743C30.7188 89.5539 29.4583 89.9284 28.1665 89.9589C26.8746 89.9896 25.598 89.6755 24.4679 89.0488C23.3378 88.422 22.3952 87.5054 21.7371 86.3933C21.0789 85.2811 20.7291 84.0137 20.7235 82.7214C20.7196 81.7508 20.5212 80.7909 20.14 79.8981C19.759 79.0055 19.2029 78.1981 18.5048 77.5239C17.8065 76.8497 16.9802 76.3221 16.0748 75.9723C15.1694 75.6226 14.203 75.4578 13.2328 75.4877C11.9409 75.528 10.6616 75.2228 9.52681 74.6039C8.39205 73.985 7.44289 73.0746 6.77723 71.9666C6.11154 70.8587 5.75344 69.5932 5.73983 68.3006C5.72619 67.0082 6.05755 65.7354 6.69971 64.6137C7.18237 63.7711 7.49116 62.8404 7.60776 61.8764C7.72435 60.9124 7.64641 59.9349 7.37856 59.0016C7.11072 58.0683 6.65837 57.1982 6.04831 56.4427C5.43826 55.6874 4.68289 55.062 3.82687 54.6037C2.68902 53.9922 1.73475 53.0884 1.0623 51.9855C0.389858 50.8824 0.0235289 49.6203 0.00109613 48.3287C-0.0213367 47.037 0.300915 45.7628 0.934656 44.6371C1.5684 43.5116 2.49072 42.5752 3.60664 41.9245C4.44586 41.436 5.17868 40.7843 5.76177 40.0078C6.34488 39.2314 6.76646 38.3458 7.0016 37.4038C7.23674 36.4616 7.28068 35.4819 7.13084 34.5225C6.981 33.5631 6.6404 32.6434 6.12916 31.8178C5.44855 30.7192 5.07321 29.4589 5.04187 28.167C5.01052 26.8749 5.32431 25.5979 5.95084 24.4676C6.57738 23.3372 7.49399 22.3944 8.60626 21.7363C9.71852 21.0782 10.9862 20.7286 12.2786 20.7235C13.2492 20.7196 14.2092 20.5211 15.1019 20.14C15.9945 19.759 16.8019 19.2029 17.4762 18.5046C18.1504 17.8065 18.678 16.9802 19.0278 16.0748C19.3774 15.1694 19.5423 14.203 19.5123 13.2328C19.4728 11.9411 19.7782 10.6623 20.3975 9.52802C21.0166 8.39372 21.9271 7.44505 23.0349 6.77977C24.1428 6.1145 25.408 5.75667 26.7003 5.74318C27.9925 5.72969 29.265 6.06103 30.3864 6.70304C31.2296 7.18517 32.1607 7.4934 33.125 7.60957C34.0891 7.72573 35.0669 7.64744 36.0004 7.37932C36.9338 7.11119 37.8041 6.6587 38.5597 6.04853C39.3153 5.43837 39.941 4.68292 40.3997 3.82685Z" fill="#685197"/>
<path d="M17 45.0039V42.0039L43 49.5039V52.0039L17 45.0039Z" fill="white"/>
<path d="M10 52.0039V49.0039L27 50.0039V52.0039H10Z" fill="white"/>
<path d="M47.5 74.502C61.031 74.502 72 63.5329 72 50.002H23C23 63.5329 33.969 74.502 47.5 74.502Z" fill="white"/>
<path d="M41 76.002V73.002H53V76.002H41Z" fill="white"/>
<path d="M43.2122 54.7902C45.2591 56.8361 47.9798 57.9757 50.8733 58.0011C53.8244 58.0373 56.6271 56.885 58.7218 54.7892C62.083 51.4281 65.7468 42.9045 63.0695 37.7605L65.9569 34.8731C66.5915 35.5611 67.4881 36.0013 68.5001 36.0013C70.433 36.0013 72 34.4344 72 32.5014C72 30.7241 70.6702 29.2721 68.9543 29.0473C68.7294 27.3313 67.2774 26.0015 65.5001 26.0015C63.5671 26.0015 62.0002 27.5685 62.0002 29.5015C62.0002 30.5134 62.4406 31.4101 63.1284 32.0447L60.2321 34.9409C58.9934 34.2971 57.5753 33.9906 56.0636 33.9906C51.2961 33.9906 45.764 36.7279 43.2123 39.2796C41.1156 41.3752 39.976 44.1633 40.0004 47.129C40.0258 50.0217 41.1654 52.7424 43.2122 54.7902Z" fill="white"/>
</svg>
