<?xml version="1.0" encoding="UTF-8"?>
<svg xmlns="http://www.w3.org/2000/svg" width="114" height="114" viewBox="0 0 114 114" fill="none">
  <g clip-path="url(#clip0_15_698)">
    <path d="M114 53.9252C114.008 55.3838 113.645 56.8207 112.947 58.1015C112.249 59.3823 111.238 60.4652 110.008 61.2492C109.028 61.8822 108.185 62.7052 107.528 63.6696C106.871 64.6341 106.414 65.7204 106.185 66.8643C105.955 68.0082 105.957 69.1866 106.19 70.3298C106.424 71.473 106.884 72.5578 107.544 73.5201C108.546 74.9627 109.084 76.6764 109.087 78.4327C109.093 80.6794 108.234 82.8422 106.687 84.4719C105.141 86.1015 103.026 87.0728 100.782 87.1841C98.5472 87.2969 96.4409 88.2628 94.8971 89.8826C93.3534 91.5025 92.4898 93.6529 92.4845 95.8906C92.4845 96.1175 92.4846 96.347 92.5109 96.5739C92.6387 98.1245 92.3486 99.681 91.6709 101.082C90.9931 102.482 89.9524 103.675 88.6571 104.537C87.3618 105.399 85.8593 105.898 84.3057 105.983C82.7522 106.067 81.2044 105.733 79.8235 105.017C78.7849 104.484 77.6501 104.166 76.4862 104.08C75.3224 103.994 74.1531 104.142 73.0475 104.515C71.9418 104.889 70.9223 105.481 70.0492 106.255C69.1762 107.029 68.4673 107.971 67.9644 109.024C67.2935 110.425 66.2612 111.622 64.9739 112.491C63.6866 113.36 62.1909 113.87 60.6408 113.969C59.0907 114.068 57.5424 113.751 56.1553 113.052C54.7682 112.353 53.5925 111.297 52.7495 109.993C52.1161 109.012 51.2926 108.169 50.3278 107.513C49.363 106.856 48.2764 106.4 47.1322 106.171C45.988 105.942 44.8094 105.944 43.6661 106.178C42.5229 106.412 41.4382 106.873 40.4762 107.534C39.0336 108.535 37.3198 109.073 35.5637 109.074C33.3174 109.079 31.1557 108.218 29.5269 106.671C27.898 105.124 26.927 103.01 26.8152 100.766C26.703 98.5312 25.7373 96.4244 24.1173 94.8805C22.4974 93.3366 20.3467 92.4733 18.1089 92.4687C17.882 92.4687 17.6524 92.4686 17.4255 92.495C15.8749 92.6228 14.3184 92.3327 12.918 91.655C11.5175 90.9772 10.3243 89.9365 9.46238 88.6412C8.60048 87.3458 8.10142 85.8432 8.01713 84.2896C7.93283 82.736 8.26634 81.1882 8.98304 79.8073C9.52087 78.769 9.8441 77.633 9.93336 76.4671C10.0226 75.3012 9.8761 74.1293 9.50258 73.0212C9.12905 71.9132 8.53617 70.8917 7.75929 70.0178C6.98241 69.1439 6.03743 68.4355 4.98079 67.9347C3.57953 67.2651 2.38225 66.2338 1.51244 64.9472C0.642643 63.6606 0.131801 62.1652 0.0325999 60.6153C-0.0666016 59.0654 0.249466 57.5171 0.948139 56.1301C1.64681 54.743 2.70283 53.5675 4.00728 52.7247C4.98809 52.0917 5.83204 51.2685 6.48923 50.3037C7.14642 49.3389 7.60352 48.2521 7.83349 47.1076C8.06347 45.9632 8.06164 44.7842 7.82814 43.6404C7.59465 42.4966 7.13419 41.4113 6.47403 40.4485C5.47025 39.0067 4.93087 37.2927 4.92804 35.5359C4.92325 33.2894 5.78362 31.1273 7.33057 29.4983C8.87752 27.8692 10.9923 26.8984 13.236 26.7872C15.471 26.675 17.5777 25.7093 19.1216 24.0893C20.6655 22.4693 21.5287 20.3186 21.5333 18.0807C21.5333 17.8512 21.5334 17.6242 21.5044 17.3947C21.3763 15.8437 21.6663 14.2867 22.3441 12.8859C23.022 11.485 24.063 10.2915 25.3587 9.42944C26.6544 8.56742 28.1575 8.06847 29.7114 7.9845C31.2654 7.90054 32.8134 8.23463 34.1944 8.95201C35.233 9.48394 36.3676 9.80234 37.5313 9.88841C38.6949 9.97448 39.864 9.82648 40.9695 9.45314C42.0749 9.0798 43.0944 8.4887 43.9676 7.71475C44.8408 6.94079 45.5501 5.9997 46.0535 4.94703C46.7243 3.54661 47.7564 2.35032 49.0433 1.48138C50.3302 0.612433 51.8255 0.10224 53.3752 0.00333579C54.9248 -0.0955683 56.4728 0.22038 57.8597 0.918671C59.2466 1.61696 60.4224 2.67233 61.2658 3.97611C61.8995 4.95587 62.723 5.79878 63.6878 6.45503C64.6525 7.11128 65.7389 7.56758 66.8829 7.79703C68.0269 8.02648 69.2054 8.02442 70.3486 7.79095C71.4918 7.55747 72.5766 7.09734 73.539 6.4377C74.9814 5.43512 76.695 4.89582 78.4515 4.89164C80.6985 4.8875 82.8609 5.74833 84.4902 7.29568C86.1196 8.84302 87.0909 10.9582 87.2027 13.2024C87.3149 15.4372 88.2807 17.5437 89.9007 19.0872C91.5208 20.6307 93.6714 21.4934 95.909 21.4973C96.1385 21.4973 96.3655 21.4973 96.595 21.471C98.1456 21.3432 99.7021 21.6333 101.103 22.3111C102.503 22.9888 103.696 24.0295 104.558 25.3248C105.42 26.6201 105.919 28.1227 106.003 29.6763C106.088 31.2299 105.754 32.7777 105.037 34.1587C104.505 35.197 104.186 36.3315 104.1 37.4952C104.013 38.6588 104.161 39.828 104.534 40.9336C104.907 42.0392 105.498 43.0588 106.272 43.9321C107.046 44.8054 107.987 45.5147 109.04 46.0181C110.535 46.7257 111.796 47.8461 112.675 49.2471C113.554 50.6481 114.013 52.2713 114 53.9252Z" fill="#FF2B3C"></path>
    <path d="M65.9384 26.5681L63.0179 54.2206L58.0342 30.9082L42.4103 34.2114L47.3914 57.5238L24.8632 62.2728L28.8416 80.8942L68.4554 89.2656L77.5153 69.0322L81.8262 28.2171L65.9384 26.5681ZM53.4252 66.6709C52.6073 67.4149 51.5282 67.3463 50.3806 66.9664C49.2329 66.5864 48.729 65.2119 49.1617 63.5365C49.4862 62.3018 51.0085 62.1145 51.7657 62.1013C52.0537 62.0956 52.3394 62.1542 52.602 62.2728C53.1296 62.5155 54.0477 63.0326 54.2324 63.8188C54.4963 64.9823 54.2404 65.9374 53.4252 66.6814V66.6709ZM64.8937 67.9557C64.3001 68.9794 62.7409 69.1166 61.2002 68.37C60.1686 67.8661 60.1765 66.5838 60.29 65.8029C60.3489 65.3773 60.521 64.9755 60.7886 64.6394C61.1579 64.1724 61.7753 63.5682 62.485 63.5497C63.024 63.5178 63.5617 63.6329 64.0404 63.883C64.519 64.133 64.9207 64.5084 65.2025 64.9692C65.7723 65.9216 65.4899 66.9374 64.8937 67.9663V67.9557Z" fill="#FDF9EE"></path>
  </g>
  <defs>
    <clipPath id="clip0_15_698">
      <rect width="114" height="114" fill="white"></rect>
    </clipPath>
  </defs>
</svg>
