<svg width="454" height="691" viewBox="0 0 454 691" fill="none" xmlns="http://www.w3.org/2000/svg">
<g clip-path="url(#clip0_15_823)">
<path d="M368.248 414.632L450.836 428.766L454 410.151L290.572 382.143L289.214 381.816L417.438 383.077L417.614 364.19L310.366 363.163C336.981 350.112 359.401 329.815 375.068 304.591C390.734 279.367 399.015 250.232 398.966 220.512L318.583 220.633C294.52 220.399 271.536 210.587 254.684 193.355C237.831 176.123 228.491 152.881 228.717 128.741C218.304 139.206 210.592 152.061 206.251 166.191C201.91 180.322 201.071 195.302 203.806 209.832L47.4688 173.161L43.1881 191.552L168.071 220.848H166.666L1.29355 209.169L-0.0277901 228.009L83.5377 233.909C85.3484 255.851 91.7019 277.172 102.192 296.511C112.683 315.849 127.08 332.779 144.463 346.219L64.9448 326.614C56.5813 360.833 59.8167 396.872 74.1402 429.042C88.4636 461.212 113.059 487.679 144.044 504.265L139.568 522.563L170.686 530.228L45.3469 555.976L49.116 574.48L174.744 548.731L173.478 549.31L18.3697 608.051L25.0232 625.724L103.396 596.036C119.594 624.774 144.328 647.724 174.148 661.686C203.967 675.649 237.387 679.927 269.746 673.925L277.628 691.037L348.407 658.231L340.535 641.128C367.788 618.912 386.891 588.224 394.828 553.906C402.765 519.588 399.083 483.596 384.365 451.611L329.712 476.939C347.264 459.5 360.467 438.153 368.248 414.632Z" fill="#FF2B3C"/>
<path d="M357.043 128.554C339.999 111.511 316.906 101.957 292.841 101.992C268.777 102.027 245.712 111.649 228.717 128.741C237.131 120.275 243.8 110.23 248.344 99.1789C252.888 88.1276 255.219 76.2865 255.201 64.3318C255.184 52.3771 252.82 40.5429 248.244 29.5048C243.668 18.4667 236.969 8.44098 228.531 0C211.541 17.0981 202.015 40.2663 202.05 64.4092C202.085 88.552 211.678 111.692 228.717 128.741C245.76 145.786 268.854 155.342 292.919 155.307C316.984 155.272 340.05 145.649 357.043 128.554Z" fill="#FF2B3C"/>
<path d="M355.405 167.158C349.617 174.86 354.121 190.927 367.149 206.527C379.935 190.917 384.365 174.888 378.558 167.158C376.809 164.842 372.593 161.201 367.14 161.145C361.687 161.089 357.229 164.73 355.405 167.158Z" fill="#FF2B3C"/>
<path d="M398.101 206.564C398.727 205.349 399.053 204 399.052 202.631C399.05 201.263 398.722 199.915 398.094 198.7C397.466 197.485 396.556 196.44 395.441 195.651C394.327 194.862 393.04 194.353 391.689 194.166C385.984 193.233 378.661 200.067 374.008 211.363C385.798 213.893 395.597 211.82 398.101 206.564Z" fill="#FF2B3C"/>
</g>
<defs>
<clipPath id="clip0_15_823">
<rect width="454" height="691" fill="white"/>
</clipPath>
</defs>
</svg>
