<svg width="32" height="32" viewBox="0 0 32 32" fill="none" xmlns="http://www.w3.org/2000/svg">
<path fill-rule="evenodd" clip-rule="evenodd" d="M3.99976 4V6.4H6.39976L10.7198 15.508L9.09976 18.448C8.90776 18.784 8.79976 19.18 8.79976 19.6C8.79976 20.92 9.87976 22 11.1998 22H25.5998V19.6H11.7038C11.5358 19.6 11.4038 19.468 11.4038 19.3L11.4398 19.156L12.5198 17.2H21.4598C22.3598 17.2 23.1518 16.708 23.5598 15.964L27.8558 8.176C27.9518 8.008 27.9998 7.804 27.9998 7.6C27.9998 6.94 27.4598 6.4 26.7998 6.4H9.05176L7.92376 4H3.99976ZM11.1998 23.2C9.87977 23.2 8.81177 24.28 8.81177 25.6C8.81177 26.92 9.87977 28 11.1998 28C12.5198 28 13.5998 26.92 13.5998 25.6C13.5998 24.28 12.5198 23.2 11.1998 23.2ZM20.8116 25.6C20.8116 24.28 21.8796 23.2 23.1996 23.2C24.5196 23.2 25.5996 24.28 25.5996 25.6C25.5996 26.92 24.5196 28 23.1996 28C21.8796 28 20.8116 26.92 20.8116 25.6Z" fill="#3098F3"/>
</svg>
