<svg width="42" height="22" viewBox="0 0 42 22" fill="none" xmlns="http://www.w3.org/2000/svg">
<path d="M41.5188 9.8388C41.5183 9.83831 41.5179 9.83773 41.5173 9.83724L32.9447 1.30599C32.3025 0.666886 31.2638 0.669265 30.6245 1.31157C29.9853 1.95379 29.9878 2.99255 30.63 3.63174L36.3856 9.35949H1.64062C0.734508 9.35949 0 10.094 0 11.0001C0 11.9062 0.734508 12.6407 1.64062 12.6407H36.3855L30.6301 18.3685C29.9878 19.0077 29.9854 20.0464 30.6246 20.6887C31.2638 21.331 32.3027 21.3333 32.9448 20.6942L41.5174 12.163C41.5179 12.1625 41.5183 12.1619 41.5189 12.1614C42.1614 11.5201 42.1594 10.478 41.5188 9.8388Z" fill="white"/>
</svg>
