<svg width="39" height="42" viewBox="0 0 39 42" fill="none" xmlns="http://www.w3.org/2000/svg">
<path d="M21.8107 21.623L17.4785 21.624V27.4821H21.8106C23.3103 27.4821 24.5305 26.1679 24.5305 24.5526C24.5306 23.7746 24.2465 23.0401 23.7307 22.4845C23.2149 21.9289 22.5329 21.6229 21.8107 21.623Z" fill="#1A482D"/>
<path d="M23.3575 16.8404C23.3576 16.2238 23.1323 15.6418 22.7232 15.2012C22.3141 14.7606 21.7735 14.5179 21.2012 14.518H17.4785V19.162H21.2363C22.409 19.1415 23.3575 18.1083 23.3575 16.8404Z" fill="#1A482D"/>
<path d="M19.5 6.89062C12.2758 6.89062 6.39844 13.2201 6.39844 21C6.39844 28.7799 12.2758 35.1094 19.5 35.1094C26.7242 35.1094 32.6016 28.7799 32.6016 21C32.6016 13.2201 26.7242 6.89062 19.5 6.89062ZM21.8104 29.943H20.6426V32.3203H18.3574V29.943H13.3271V27.482H15.1932V14.518H13.3271V12.057H18.3574V9.67969H20.6426V12.057H21.2009C22.3836 12.057 23.4981 12.5555 24.3389 13.461C25.1796 14.3665 25.6426 15.5667 25.6425 16.8404C25.6425 18.0606 25.2155 19.1749 24.5148 20.0208C24.8112 20.2275 25.0904 20.4685 25.3463 20.7443C26.2938 21.7648 26.8155 23.1172 26.8154 24.5526C26.8155 27.5248 24.5702 29.943 21.8104 29.943Z" fill="#1A482D"/>
<path d="M33.2886 6.1507C29.6055 2.18441 24.7086 0 19.5 0C14.2914 0 9.39451 2.18441 5.71137 6.1507C2.02838 10.1172 0 15.3907 0 21C0 26.6093 2.02838 31.8828 5.71137 35.8493C9.39451 39.8156 14.2914 42 19.5 42C24.7086 42 29.6055 39.8156 33.2886 35.8493C36.9716 31.8828 39 26.6093 39 21C39 15.3907 36.9716 10.1172 33.2886 6.1507ZM19.5 37.5703C11.0157 37.5703 4.11328 30.1369 4.11328 21C4.11328 11.8631 11.0157 4.42969 19.5 4.42969C27.9843 4.42969 34.8867 11.8631 34.8867 21C34.8867 30.1369 27.9843 37.5703 19.5 37.5703Z" fill="#1A482D"/>
</svg>
