<svg width="60" height="60" viewBox="0 0 60 60" fill="none" xmlns="http://www.w3.org/2000/svg">
<path d="M25.5136 2.42068C25.8998 1.70209 26.4706 1.09944 27.1671 0.674772C27.8637 0.250101 28.6608 0.0187655 29.4765 0.00459852C30.2922 -0.00956847 31.0969 0.193931 31.8078 0.594158C32.5186 0.994384 33.11 1.57685 33.5209 2.2816C33.8294 2.81135 34.2409 3.2739 34.7312 3.64191C35.2214 4.00992 35.7805 4.27595 36.3753 4.42426C36.9701 4.57257 37.5886 4.60015 38.1942 4.50539C38.7999 4.41063 39.3804 4.19544 39.9015 3.87254C40.5956 3.44332 41.3915 3.20686 42.2074 3.1875C43.0233 3.16813 43.8295 3.36657 44.5432 3.76237C45.2569 4.15817 45.8522 4.73704 46.2678 5.43937C46.6835 6.1417 46.9044 6.94209 46.9079 7.75817C46.9104 8.37134 47.0357 8.97781 47.2765 9.54172C47.5173 10.1056 47.8687 10.6155 48.3099 11.0414C48.7511 11.4672 49.2731 11.8004 49.8452 12.0211C50.4172 12.2418 51.0277 12.3457 51.6406 12.3265C52.4563 12.3015 53.264 12.4944 53.9803 12.8855C54.6966 13.2765 55.2958 13.8515 55.7159 14.5511C56.1361 15.2508 56.362 16.0498 56.3705 16.8659C56.379 17.682 56.1698 18.4856 55.7644 19.1938C55.4601 19.7261 55.2656 20.3138 55.1923 20.9225C55.119 21.5311 55.1683 22.1482 55.3374 22.7375C55.5065 23.3267 55.792 23.8761 56.1769 24.3533C56.5618 24.8304 57.0385 25.2255 57.5787 25.5154C58.2972 25.9016 58.8999 26.4724 59.3246 27.1689C59.7492 27.8655 59.9806 28.6626 59.9947 29.4783C60.0089 30.294 59.8054 31.0987 59.4052 31.8096C59.005 32.5204 58.4225 33.1118 57.7177 33.5227C57.1879 33.8314 56.7253 34.2431 56.3573 34.7336C55.9892 35.224 55.7232 35.7832 55.5749 36.3782C55.4266 36.9732 55.3991 37.5918 55.4938 38.1977C55.5886 38.8035 55.8039 39.3841 56.1268 39.9054C56.5566 40.5992 56.7937 41.3951 56.8135 42.211C56.8333 43.027 56.6351 43.8334 56.2394 44.5473C55.8437 45.2611 55.2648 45.8566 54.5624 46.2722C53.86 46.6878 53.0594 46.9086 52.2432 46.9118C51.6301 46.914 51.0236 47.0391 50.4596 47.2796C49.8956 47.5202 49.3855 47.8713 48.9594 48.3123C48.5334 48.7533 48.2 49.2751 47.979 49.8471C47.758 50.4191 47.6539 51.0295 47.6728 51.6424C47.6982 52.4583 47.5055 53.2662 47.1146 53.9828C46.7238 54.6995 46.1488 55.2989 45.4491 55.7193C44.7494 56.1397 43.9502 56.3659 43.1339 56.3745C42.3177 56.3831 41.5139 56.1738 40.8055 55.7683C40.2733 55.4637 39.6855 55.269 39.0768 55.1955C38.4681 55.122 37.8509 55.1713 37.2615 55.3404C36.6722 55.5096 36.1228 55.7951 35.6457 56.1802C35.1686 56.5653 34.7736 57.0422 34.4839 57.5826C34.0977 58.3011 33.5269 58.9038 32.8304 59.3285C32.1338 59.7531 31.3367 59.9845 30.521 59.9986C29.7053 60.0128 28.9006 59.8093 28.1897 59.4091C27.4789 59.0089 26.8875 58.4264 26.4766 57.7216C26.1679 57.1918 25.7562 56.7292 25.2657 56.3612C24.7753 55.9931 24.2161 55.7271 23.6211 55.5788C23.0261 55.4305 22.4075 55.403 21.8016 55.4977C21.1958 55.5925 20.6152 55.8078 20.0939 56.1307C19.3998 56.5599 18.6038 56.7964 17.788 56.8157C16.9721 56.8351 16.1659 56.6367 15.4522 56.2409C14.7385 55.8451 14.1432 55.2662 13.7276 54.5639C13.3119 53.8615 13.091 53.0611 13.0875 52.245C13.085 51.632 12.9597 51.0258 12.719 50.462C12.4784 49.8983 12.1272 49.3884 11.6863 48.9626C11.2453 48.5368 10.7235 48.2036 10.1517 47.9827C9.57993 47.7619 8.96964 47.6578 8.35694 47.6767C7.54103 47.7021 6.73311 47.5094 6.01648 47.1185C5.29984 46.7277 4.70042 46.1527 4.28003 45.453C3.85963 44.7533 3.63348 43.9541 3.62488 43.1378C3.61627 42.3216 3.82553 41.5178 4.23108 40.8094C4.53589 40.2773 4.7309 39.6895 4.80454 39.0807C4.87817 38.4719 4.82895 37.8546 4.65979 37.2652C4.49064 36.6758 4.20497 36.1263 3.8197 35.6492C3.43443 35.1722 2.95739 34.7772 2.41679 34.4878C1.6982 34.1016 1.09555 33.5308 0.670878 32.8343C0.246207 32.1377 0.0148592 31.3406 0.000692239 30.5249C-0.0134748 29.7092 0.190037 28.9045 0.590264 28.1936C0.99049 27.4828 1.57297 26.8914 2.27771 26.4805C2.8077 26.172 3.2705 25.7604 3.63874 25.27C4.00699 24.7797 4.27323 24.2204 4.42173 23.6255C4.57023 23.0305 4.59798 22.4118 4.50335 21.8059C4.40872 21.2 4.19362 20.6192 3.87076 20.0978C3.44093 19.404 3.20389 18.6081 3.1841 17.7922C3.1643 16.9762 3.36247 16.1697 3.75814 15.4559C4.15382 14.742 4.73269 14.1466 5.43512 13.731C6.13755 13.3154 6.93811 13.0946 7.75429 13.0914C8.36727 13.0889 8.97355 12.9636 9.53732 12.7229C10.101 12.4823 10.6109 12.1311 11.0367 11.6901C11.4625 11.2492 11.7957 10.7274 12.0166 10.1556C12.2374 9.58382 12.3415 8.97353 12.3226 8.36083C12.2976 7.5451 12.4905 6.73747 12.8816 6.02114C13.2726 5.3048 13.8476 4.70568 14.5472 4.28554C15.2469 3.8654 16.0459 3.63942 16.862 3.6309C17.6781 3.62238 18.4817 3.83163 19.1899 4.23708C19.7224 4.54156 20.3104 4.73622 20.9194 4.80958C21.5283 4.88294 22.1458 4.8335 22.7353 4.66417C23.3248 4.49484 23.8744 4.20908 24.3516 3.82374C24.8288 3.4384 25.2239 2.96131 25.5136 2.42068Z" fill="#3E6352"/>
<path d="M43.7034 42.5821C43.7034 43.8328 43.2066 45.0323 42.3222 45.9167C41.4378 46.8011 40.2383 47.298 38.9875 47.298C37.7368 47.298 36.5373 46.8011 35.6529 45.9167C34.7685 45.0323 34.2717 43.8328 34.2717 42.5821H37.4767C37.4763 42.8814 37.5646 43.1741 37.7306 43.4232C37.8966 43.6723 38.1328 43.8666 38.4092 43.9814C38.6856 44.0962 38.9899 44.1265 39.2835 44.0683C39.5771 44.0102 39.8469 43.8663 40.0587 43.6548C40.2705 43.4433 40.4148 43.1737 40.4734 42.8801C40.5319 42.5866 40.5021 42.2823 40.3876 42.0057C40.2732 41.7291 40.0793 41.4927 39.8304 41.3264C39.5816 41.16 39.289 41.0713 38.9896 41.0713H28.5127C28.6791 41.5576 28.7638 42.0681 28.7635 42.5821C28.7374 43.8158 28.229 44.9903 27.3472 45.8536C26.4655 46.7169 25.2806 47.2004 24.0465 47.2004C22.8125 47.2004 21.6276 46.7169 20.7459 45.8536C19.8641 44.9903 19.3557 43.8158 19.3296 42.5821H22.5346C22.5338 42.8821 22.622 43.1756 22.7882 43.4254C22.9544 43.6752 23.191 43.87 23.468 43.9852C23.745 44.1004 24.0499 44.1308 24.3442 44.0725C24.6385 44.0142 24.9089 43.8698 25.121 43.6576C25.3331 43.4455 25.4775 43.1752 25.5358 42.8809C25.5942 42.5866 25.5638 42.2816 25.4486 42.0046C25.3334 41.7276 25.1386 41.491 24.8888 41.3248C24.639 41.1587 24.3455 41.0704 24.0455 41.0713H21.4958L20.5033 37.8662L19.9828 36.1805L16.9864 26.5106L15.9139 23.0527H11.0547V19.8477H18.276L20.0461 25.5602L22.345 32.9754H39.4132L42.2305 23.8829H23.5861V20.6779H46.5776L41.7669 36.1847H23.329L23.8495 37.8704H38.9833C40.2337 37.8704 41.433 38.3666 42.318 39.2499C43.2029 40.1333 43.7012 41.3317 43.7034 42.5821Z" fill="#FDF9EE"/>
</svg>
