<svg width="60" height="60" viewBox="0 0 60 60" fill="none" xmlns="http://www.w3.org/2000/svg">
<g clip-path="url(#clip0_5_26)">
<path d="M25.5138 2.42114C25.9 1.70255 26.4708 1.0999 27.1673 0.67523C27.8639 0.250559 28.661 0.0192233 29.4767 0.00505629C30.2924 -0.0091107 31.0971 0.194389 31.808 0.594616C32.5188 0.994842 33.1102 1.57731 33.5211 2.28206C33.8296 2.81181 34.2411 3.27436 34.7314 3.64237C35.2216 4.01038 35.7807 4.27641 36.3755 4.42472C36.9703 4.57303 37.5888 4.60061 38.1944 4.50585C38.8001 4.41109 39.3806 4.1959 39.9017 3.873C40.5958 3.44378 41.3917 3.20732 42.2076 3.18796C43.0235 3.16859 43.8297 3.36703 44.5434 3.76283C45.2571 4.15863 45.8524 4.7375 46.268 5.43983C46.6837 6.14216 46.9046 6.94255 46.9081 7.75863C46.9106 8.3718 47.0359 8.97827 47.2767 9.54218C47.5175 10.1061 47.8689 10.616 48.3101 11.0419C48.7513 11.4677 49.2733 11.8009 49.8454 12.0216C50.4174 12.2423 51.0279 12.3462 51.6408 12.327C52.4565 12.302 53.2642 12.4949 53.9805 12.886C54.6968 13.277 55.296 13.852 55.7161 14.5516C56.1363 15.2513 56.3622 16.0503 56.3707 16.8664C56.3792 17.6825 56.17 18.4861 55.7646 19.1943C55.4603 19.7266 55.2658 20.3143 55.1925 20.923C55.1192 21.5316 55.1685 22.1487 55.3376 22.738C55.5067 23.3272 55.7922 23.8766 56.1771 24.3538C56.562 24.8309 57.0387 25.226 57.5789 25.5159C58.2974 25.9021 58.9001 26.4729 59.3248 27.1694C59.7494 27.866 59.9808 28.6631 59.9949 29.4788C60.0091 30.2945 59.8056 31.0992 59.4054 31.8101C59.0052 32.5209 58.4227 33.1123 57.7179 33.5232C57.1881 33.8319 56.7255 34.2436 56.3575 34.7341C55.9894 35.2245 55.7234 35.7837 55.5751 36.3787C55.4268 36.9737 55.3993 37.5923 55.494 38.1982C55.5888 38.804 55.8041 39.3846 56.127 39.9059C56.5568 40.5997 56.7939 41.3956 56.8137 42.2115C56.8335 43.0275 56.6353 43.8339 56.2396 44.5478C55.8439 45.2616 55.265 45.8571 54.5626 46.2727C53.8602 46.6883 53.0596 46.9091 52.2434 46.9123C51.6303 46.9145 51.0238 47.0396 50.4598 47.2801C49.8958 47.5207 49.3857 47.8718 48.9596 48.3128C48.5336 48.7538 48.2002 49.2756 47.9792 49.8476C47.7582 50.4196 47.6541 51.03 47.673 51.6429C47.6984 52.4588 47.5057 53.2667 47.1148 53.9833C46.724 54.7 46.149 55.2994 45.4493 55.7198C44.7496 56.1402 43.9504 56.3664 43.1341 56.375C42.3179 56.3836 41.5141 56.1743 40.8057 55.7688C40.2735 55.4642 39.6857 55.2695 39.077 55.196C38.4683 55.1225 37.8511 55.1718 37.2617 55.3409C36.6724 55.5101 36.123 55.7956 35.6459 56.1807C35.1688 56.5658 34.7738 57.0427 34.4841 57.5831C34.0979 58.3016 33.5271 58.9043 32.8306 59.329C32.134 59.7536 31.3369 59.985 30.5212 59.9991C29.7055 60.0133 28.9008 59.8098 28.1899 59.4096C27.4791 59.0094 26.8877 58.4269 26.4768 57.7221C26.1681 57.1923 25.7564 56.7297 25.2659 56.3617C24.7755 55.9936 24.2163 55.7276 23.6213 55.5793C23.0263 55.431 22.4077 55.4035 21.8018 55.4982C21.196 55.593 20.6154 55.8083 20.0941 56.1312C19.4 56.5604 18.604 56.7969 17.7882 56.8162C16.9723 56.8356 16.1661 56.6372 15.4524 56.2414C14.7387 55.8456 14.1434 55.2667 13.7278 54.5644C13.3121 53.862 13.0912 53.0616 13.0877 52.2455C13.0852 51.6325 12.9599 51.0263 12.7192 50.4625C12.4786 49.8988 12.1274 49.3889 11.6865 48.9631C11.2455 48.5373 10.7237 48.2041 10.1519 47.9832C9.58008 47.7624 8.96979 47.6583 8.35709 47.6772C7.54118 47.7026 6.73326 47.5099 6.01663 47.119C5.29999 46.7282 4.70057 46.1532 4.28018 45.4535C3.85978 44.7538 3.63363 43.9546 3.62503 43.1383C3.61642 42.3221 3.82568 41.5183 4.23123 40.8099C4.53604 40.2778 4.73105 39.69 4.80469 39.0812C4.87832 38.4724 4.8291 37.8551 4.65994 37.2657C4.49079 36.6763 4.20512 36.1268 3.81985 35.6497C3.43458 35.1727 2.95754 34.7777 2.41694 34.4883C1.69835 34.1021 1.0957 33.5313 0.671031 32.8348C0.24636 32.1382 0.0150118 31.3411 0.000844822 30.5254C-0.0133222 29.7097 0.19019 28.905 0.590417 28.1941C0.990643 27.4833 1.57312 26.8919 2.27786 26.481C2.80785 26.1725 3.27065 25.7609 3.63889 25.2705C4.00714 24.7802 4.27338 24.2209 4.42188 23.626C4.57038 23.031 4.59813 22.4123 4.5035 21.8064C4.40887 21.2005 4.19377 20.6197 3.87091 20.0983C3.44108 19.4045 3.20404 18.6086 3.18425 17.7927C3.16445 16.9767 3.36262 16.1702 3.75829 15.4564C4.15397 14.7425 4.73284 14.1471 5.43527 13.7315C6.1377 13.3159 6.93826 13.0951 7.75444 13.0919C8.36742 13.0894 8.9737 12.9641 9.53747 12.7234C10.1012 12.4828 10.6111 12.1316 11.0369 11.6906C11.4627 11.2497 11.7959 10.7279 12.0168 10.1561C12.2376 9.58428 12.3417 8.97399 12.3228 8.36129C12.2978 7.54556 12.4907 6.73793 12.8818 6.0216C13.2728 5.30526 13.8478 4.70614 14.5474 4.286C15.2471 3.86586 16.0461 3.63988 16.8622 3.63136C17.6783 3.62284 18.4819 3.83209 19.1901 4.23754C19.7226 4.54202 20.3106 4.73668 20.9196 4.81004C21.5285 4.8834 22.146 4.83396 22.7355 4.66463C23.325 4.4953 23.8746 4.20954 24.3518 3.8242C24.829 3.43886 25.2241 2.96177 25.5138 2.42114Z" fill="#FF2B3C"/>
<path d="M43.7042 42.5841C43.7042 43.8348 43.2074 45.0343 42.323 45.9187C41.4386 46.8031 40.2391 47.3 38.9883 47.3C37.7376 47.3 36.5381 46.8031 35.6537 45.9187C34.7693 45.0343 34.2725 43.8348 34.2725 42.5841H37.4775C37.4771 42.8834 37.5654 43.1761 37.7314 43.4252C37.8974 43.6743 38.1336 43.8686 38.41 43.9834C38.6864 44.0982 38.9907 44.1285 39.2843 44.0703C39.5779 44.0122 39.8477 43.8683 40.0595 43.6568C40.2713 43.4453 40.4156 43.1757 40.4742 42.8821C40.5327 42.5886 40.5029 42.2843 40.3884 42.0077C40.274 41.7311 40.0801 41.4947 39.8312 41.3284C39.5824 41.162 39.2898 41.0733 38.9904 41.0733H28.5135C28.6799 41.5596 28.7646 42.0701 28.7643 42.5841C28.7382 43.8178 28.2298 44.9923 27.348 45.8556C26.4663 46.7189 25.2814 47.2024 24.0473 47.2024C22.8133 47.2024 21.6284 46.7189 20.7467 45.8556C19.8649 44.9923 19.3565 43.8178 19.3304 42.5841H22.5354C22.5346 42.8841 22.6228 43.1776 22.789 43.4274C22.9552 43.6772 23.1918 43.872 23.4688 43.9872C23.7458 44.1024 24.0507 44.1328 24.345 44.0745C24.6393 44.0162 24.9097 43.8718 25.1218 43.6596C25.3339 43.4475 25.4783 43.1772 25.5366 42.8829C25.595 42.5886 25.5646 42.2836 25.4494 42.0066C25.3342 41.7296 25.1394 41.493 24.8896 41.3268C24.6398 41.1607 24.3463 41.0724 24.0463 41.0733H21.4966L20.5041 37.8682L19.9836 36.1825L16.9872 26.5126L15.9147 23.0547H11.0555V19.8497H18.2768L20.0469 25.5622L22.3458 32.9774H39.414L42.2313 23.8849H23.5869V20.6799H46.5784L41.7677 36.1867H23.3298L23.8503 37.8724H38.9841C40.2345 37.8724 41.4338 38.3686 42.3188 39.2519C43.2037 40.1353 43.702 41.3337 43.7042 42.5841Z" fill="#FDF9EE"/>
</g>
<defs>
<clipPath id="clip0_5_26">
<rect width="60" height="60" fill="white"/>
</clipPath>
</defs>
</svg>
