<svg width="60" height="60" viewBox="0 0 60 60" fill="none" xmlns="http://www.w3.org/2000/svg">
<path d="M25.5139 2.41904C25.8999 1.70034 26.4705 1.09756 27.1669 0.672694C27.8634 0.247834 28.6605 0.0162853 29.4761 0.00190363C30.2918 -0.012478 31.0966 0.1908 31.8076 0.590846C32.5186 0.990891 33.1101 1.57323 33.5212 2.27788C33.8295 2.8078 34.2409 3.27053 34.731 3.63875C35.2212 4.00698 35.7802 4.27324 36.3751 4.42175C36.9699 4.57025 37.5884 4.598 38.1942 4.50339C38.7999 4.40878 39.3805 4.19374 39.9017 3.87092C40.5955 3.44109 41.3914 3.20403 42.2074 3.18424C43.0233 3.16444 43.8298 3.36263 44.5437 3.75831C45.2575 4.15399 45.8529 4.73288 46.2685 5.43531C46.6842 6.13774 46.9049 6.93828 46.9081 7.75445C46.9106 8.36762 47.036 8.97409 47.2768 9.538C47.5176 10.1019 47.869 10.6118 48.3101 11.0377C48.7513 11.4635 49.2733 11.7967 49.8454 12.0174C50.4175 12.2381 51.028 12.342 51.6408 12.3228C52.4565 12.2981 53.2641 12.4912 53.9803 12.8822C54.6965 13.2733 55.2956 13.8482 55.7159 14.5477C56.1362 15.2472 56.3624 16.046 56.3713 16.862C56.3802 17.678 56.1716 18.4816 55.7667 19.1902C55.4624 19.7222 55.2678 20.3099 55.1943 20.9184C55.1208 21.527 55.17 22.1441 55.3389 22.7333C55.5078 23.3226 55.793 23.872 56.1778 24.3492C56.5625 24.8263 57.0389 25.2217 57.5789 25.5117C58.2975 25.8979 58.9001 26.4687 59.3248 27.1652C59.7495 27.8617 59.9808 28.6589 59.995 29.4746C60.0092 30.2903 59.8057 31.095 59.4054 31.8058C59.0052 32.5167 58.4227 33.1081 57.718 33.519C57.1882 33.8275 56.7257 34.239 56.3577 34.7293C55.9897 35.2195 55.7237 35.7786 55.5754 36.3734C55.427 36.9682 55.3995 37.5867 55.4942 38.1923C55.589 38.798 55.8041 39.3785 56.127 39.8996C56.5569 40.5934 56.7939 41.3893 56.8137 42.2052C56.8335 43.0212 56.6353 43.8277 56.2397 44.5415C55.844 45.2554 55.2651 45.8507 54.5627 46.2664C53.8603 46.682 53.0597 46.9028 52.2435 46.906C51.6303 46.9085 51.0237 47.0338 50.4597 47.2746C49.8957 47.5154 49.3856 47.8667 48.9596 48.3078C48.5336 48.749 48.2002 49.271 47.9792 49.8431C47.7583 50.4152 47.6542 51.0257 47.673 51.6387C47.6985 52.4546 47.5058 53.2626 47.1149 53.9792C46.724 54.6958 46.1491 55.2952 45.4494 55.7156C44.7497 56.136 43.9505 56.3622 43.1342 56.3708C42.318 56.3794 41.5141 56.1701 40.8057 55.7646C40.2737 55.46 39.686 55.2651 39.0774 55.1914C38.4688 55.1178 37.8516 55.1669 37.2623 55.3358C36.673 55.5048 36.1235 55.7901 35.6463 56.175C35.1692 56.5599 34.774 57.0365 34.4842 57.5767C34.0979 58.2953 33.5272 58.898 32.8307 59.3227C32.1341 59.7473 31.3369 59.9787 30.5212 59.9928C29.7056 60.007 28.9009 59.8035 28.19 59.4033C27.4791 59.0031 26.8878 58.4206 26.4768 57.7158C26.1682 57.186 25.7564 56.7234 25.266 56.3554C24.7755 55.9873 24.2163 55.7213 23.6213 55.573C23.0264 55.4247 22.4077 55.3971 21.8019 55.4919C21.1961 55.5867 20.6154 55.802 20.0942 56.1249C19.4004 56.5547 18.6045 56.7917 17.7885 56.8115C16.9726 56.8313 16.1661 56.6332 15.4523 56.2375C14.7384 55.8418 14.143 55.2629 13.7274 54.5605C13.3118 53.8581 13.091 53.0575 13.0878 52.2414C13.0855 51.6282 12.9604 51.0217 12.7199 50.4577C12.4794 49.8937 12.1282 49.3836 11.6872 48.9575C11.2463 48.5315 10.7244 48.1981 10.1524 47.9771C9.58048 47.7561 8.97004 47.652 8.35716 47.6709C7.54156 47.696 6.73399 47.5033 6.01765 47.1126C5.30132 46.7218 4.70212 46.1471 4.28179 45.4477C3.86147 44.7483 3.63521 43.9495 3.62633 43.1335C3.61746 42.3176 3.82626 41.5141 4.23128 40.8057C4.53559 40.2736 4.73022 39.6859 4.8037 39.0774C4.87718 38.4688 4.82806 37.8517 4.65914 37.2625C4.49023 36.6733 4.20496 36.1238 3.82023 35.6466C3.43551 35.1694 2.95912 34.7742 2.41913 34.4841C1.70042 34.0981 1.09759 33.5275 0.672725 32.831C0.247864 32.1346 0.0163157 31.3375 0.00193399 30.5218C-0.0124477 29.7062 0.190882 28.9014 0.590927 28.1904C0.990973 27.4794 1.57331 26.8879 2.27796 26.4768C2.80795 26.1683 3.27069 25.7567 3.63894 25.2663C4.00718 24.7759 4.27343 24.2168 4.42193 23.6218C4.57043 23.0268 4.59821 22.4081 4.50357 21.8022C4.40894 21.1963 4.19382 20.6155 3.87096 20.0941C3.44112 19.4003 3.20411 18.6044 3.18432 17.7885C3.16452 16.9725 3.36266 16.1661 3.75834 15.4522C4.15402 14.7384 4.73291 14.1429 5.43535 13.7273C6.13778 13.3117 6.93836 13.0909 7.75453 13.0878C8.36752 13.0852 8.97375 12.9599 9.53751 12.7193C10.1013 12.4786 10.6112 12.1274 11.037 11.6864C11.4628 11.2455 11.7959 10.7237 12.0168 10.1519C12.2377 9.58007 12.3418 8.96983 12.3229 8.35713C12.2975 7.54122 12.4902 6.73328 12.881 6.01664C13.2719 5.30001 13.8468 4.70062 14.5466 4.28022C15.2463 3.85983 16.0455 3.63362 16.8617 3.62502C17.678 3.61641 18.4817 3.8257 19.1902 4.23125C19.7224 4.53589 20.3102 4.73078 20.919 4.80444C21.5278 4.8781 22.1451 4.82902 22.7346 4.66009C23.3241 4.49116 23.8737 4.20583 24.3511 3.82092C24.8284 3.43601 25.2238 2.95932 25.5139 2.41904Z" fill="#FF2B3C"/>
<path d="M41.6841 16.0485L16.0486 41.6841L18.3149 43.9504L43.9504 18.3148L41.6841 16.0485Z" fill="#FDF9EE"/>
<path d="M43.9515 41.6841L18.3159 16.0486L16.0496 18.3148L41.6852 43.9504L43.9515 41.6841Z" fill="#FDF9EE"/>
</svg>
