<svg width="80" height="80" viewBox="0 0 80 80" fill="none" xmlns="http://www.w3.org/2000/svg">
<g clip-path="url(#clip0_15_703)">
<path d="M44.5127 1.90998C47.9494 -1.61832 53.9234 -0.0177329 55.1346 4.75676C55.3414 5.57263 55.7096 6.33877 56.2175 7.00994C56.7254 7.6811 57.3627 8.24368 58.0917 8.66443C58.8206 9.08518 59.6265 9.35557 60.4617 9.45964C61.2969 9.56371 62.1445 9.49934 62.9544 9.27033C67.6939 7.93262 72.0673 12.306 70.7296 17.0454C70.5006 17.8554 70.4362 18.703 70.5402 19.5382C70.6443 20.3734 70.9147 21.1793 71.3354 21.9082C71.7562 22.6372 72.3188 23.2745 72.9899 23.7824C73.6611 24.2902 74.4273 24.6585 75.2431 24.8653C80.0176 26.0745 81.6182 32.0504 78.088 35.4852C77.4847 36.0722 77.0052 36.7742 76.6778 37.5496C76.3504 38.325 76.1818 39.1581 76.1818 39.9998C76.1818 40.8415 76.3504 41.6746 76.6778 42.45C77.0052 43.2254 77.4847 43.9274 78.088 44.5143C81.6163 47.9511 80.0157 53.9251 75.2412 55.1362C74.4254 55.3428 73.6593 55.7109 72.9881 56.2186C72.317 56.7263 71.7544 57.3633 71.3336 58.0921C70.9129 58.8209 70.6425 59.6267 70.5384 60.4618C70.4343 61.2969 70.4986 62.1444 70.7276 62.9542C72.0653 67.6955 67.6919 72.0689 62.9525 70.7293C62.1424 70.5006 61.2948 70.4365 60.4596 70.5408C59.6243 70.6451 58.8185 70.9157 58.0896 71.3366C57.3606 71.7575 56.7234 72.3202 56.2155 72.9914C55.7077 73.6627 55.3395 74.4289 55.1326 75.2448C53.9215 80.0193 47.9475 81.6199 44.5107 78.0896C43.9239 77.4864 43.2222 77.007 42.4469 76.6796C41.6717 76.3522 40.8387 76.1836 39.9972 76.1836C39.1556 76.1836 38.3226 76.3522 37.5474 76.6796C36.7722 77.007 36.0704 77.4864 35.4836 78.0896C32.0468 81.6199 26.0729 80.0193 24.8617 75.2448C24.6551 74.4289 24.2871 73.6627 23.7794 72.9914C23.2718 72.3201 22.6348 71.7573 21.9061 71.3362C21.1773 70.9152 20.3716 70.6443 19.5365 70.5397C18.7014 70.4352 17.8539 70.4989 17.0438 70.7273C12.3044 72.067 7.93095 67.6936 9.26867 62.9522C9.49765 62.1424 9.56201 61.2949 9.45792 60.4598C9.35383 59.6248 9.08341 58.819 8.66265 58.0902C8.24188 57.3614 7.67931 56.7243 7.00816 56.2166C6.33701 55.7089 5.57091 55.3409 4.75511 55.1343C-0.0154853 53.9251 -1.61999 47.9453 1.90831 44.5143C2.51178 43.9275 2.99151 43.2256 3.31906 42.4502C3.64662 41.6748 3.81537 40.8416 3.81537 39.9998C3.81537 39.158 3.64662 38.3248 3.31906 37.5494C2.99151 36.774 2.51178 36.0721 1.90831 35.4852C-1.61999 32.0504 -0.0193797 26.0765 4.75511 24.8653C5.57098 24.6585 6.33714 24.2902 7.0083 23.7824C7.67947 23.2745 8.24204 22.6372 8.66279 21.9082C9.08354 21.1793 9.35395 20.3734 9.45801 19.5382C9.56208 18.703 9.49767 17.8554 9.26867 17.0454C7.93095 12.306 12.3044 7.93262 17.0438 9.27033C17.8537 9.49934 18.7013 9.56371 19.5365 9.45964C20.3718 9.35557 21.1776 9.08518 21.9066 8.66443C22.6355 8.24368 23.2728 7.6811 23.7807 7.00994C24.2886 6.33877 24.6568 5.57263 24.8637 4.75676C26.0748 -0.0177329 32.0488 -1.61832 35.4856 1.90998C36.0724 2.51315 36.7741 2.99259 37.5494 3.31996C38.3246 3.64734 39.1576 3.81601 39.9991 3.81601C40.8406 3.81601 41.6736 3.64734 42.4489 3.31996C43.2241 2.99259 43.9259 2.51315 44.5127 1.90998Z" fill="#3E6352"/>
<path d="M56.8091 50.2821V56.885C56.8092 57.3581 56.6297 57.8136 56.307 58.1595C55.9842 58.5054 55.5422 58.7159 55.0702 58.7485C54.2537 58.8043 53.5877 58.8329 53.0724 58.8342C49.1477 58.8344 45.2615 58.0616 41.6355 56.5598C38.0095 55.058 34.7149 52.8567 31.9397 50.0815C29.1645 47.3064 26.9632 44.0117 25.4614 40.3857C23.9596 36.7598 23.1868 32.8735 23.187 28.9488C23.187 28.4348 23.2163 27.7669 23.2747 26.951C23.3073 26.4792 23.5178 26.0374 23.8637 25.7149C24.2097 25.3925 24.6652 25.2135 25.1381 25.2141H31.743C31.9746 25.214 32.198 25.3 32.3697 25.4555C32.5414 25.611 32.6491 25.8248 32.6718 26.0553C32.7146 26.4837 32.7555 26.8342 32.7925 27.0854C33.1628 29.6762 33.9237 32.1959 35.0493 34.5586C35.135 34.7394 35.1545 34.9445 35.1043 35.1381C35.0541 35.3317 34.9374 35.5016 34.7747 35.6179L30.7499 38.4978C33.2136 44.2402 37.7892 48.8165 43.5312 51.281L46.4091 47.2582C46.5263 47.0937 46.6976 46.9757 46.8931 46.9248C47.0885 46.8739 47.2956 46.8933 47.4781 46.9797C49.8412 48.1015 52.36 48.8603 54.9495 49.2307C55.2104 49.2677 55.5512 49.3085 55.9776 49.3494C56.2079 49.3731 56.4213 49.4814 56.5763 49.6533C56.7314 49.8253 56.8171 50.0487 56.8169 50.2802L56.8091 50.2821Z" fill="#FDF9EE"/>
</g>
<defs>
<clipPath id="clip0_15_703">
<rect width="80" height="80" fill="white"/>
</clipPath>
</defs>
</svg>
