<svg width="80" height="80" viewBox="0 0 80 80" fill="none" xmlns="http://www.w3.org/2000/svg">
<g clip-path="url(#clip0_15_179)">
<path d="M44.5126 1.91034C47.9494 -1.61796 53.9233 -0.0173737 55.1345 4.75712C55.3413 5.57299 55.7096 6.33913 56.2175 7.0103C56.7254 7.68146 57.3626 8.24403 58.0916 8.66479C58.8205 9.08554 59.6264 9.35593 60.4617 9.46C61.2969 9.56407 62.1445 9.4997 62.9544 9.27069C67.6938 7.93297 72.0672 12.3063 70.7295 17.0458C70.5005 17.8557 70.4361 18.7033 70.5402 19.5385C70.6443 20.3738 70.9147 21.1796 71.3354 21.9086C71.7562 22.6376 72.3187 23.2748 72.9899 23.7827C73.6611 24.2906 74.4272 24.6588 75.243 24.8657C80.0175 26.0749 81.6181 32.0508 78.0899 35.4856C77.4866 36.0726 77.0072 36.7745 76.6798 37.5499C76.3524 38.3253 76.1836 39.1585 76.1836 40.0002C76.1836 40.8418 76.3524 41.675 76.6798 42.4504C77.0072 43.2258 77.4866 43.9277 78.0899 44.5147C81.6181 47.9515 80.0175 53.9254 75.243 55.1366C74.4273 55.3432 73.6612 55.7112 72.99 56.2189C72.3189 56.7266 71.7563 57.3637 71.3355 58.0925C70.9147 58.8213 70.6443 59.6271 70.5402 60.4622C70.4361 61.2972 70.5005 62.1447 70.7295 62.9545C72.0672 67.6959 67.6938 72.0693 62.9544 70.7296C62.1444 70.5009 61.2967 70.4368 60.4614 70.5411C59.6262 70.6455 58.8204 70.9161 58.0914 71.337C57.3625 71.7579 56.7253 72.3206 56.2175 72.9918C55.7096 73.663 55.3413 74.4292 55.1345 75.2451C53.9233 80.0196 47.9494 81.6202 44.5126 78.09C43.9258 77.4868 43.224 77.0074 42.4488 76.68C41.6736 76.3526 40.8406 76.1839 39.999 76.1839C39.1575 76.1839 38.3245 76.3526 37.5493 76.68C36.774 77.0074 36.0723 77.4868 35.4855 78.09C32.0487 81.6202 26.0747 80.0196 24.8636 75.2451C24.657 74.4291 24.2889 73.6627 23.7811 72.9912C23.2734 72.3197 22.6362 71.7568 21.9072 71.3357C21.1783 70.9146 20.3724 70.6439 19.537 70.5394C18.7017 70.435 17.8539 70.499 17.0437 70.7277C12.3043 72.0673 7.93092 67.694 9.26864 62.9526C9.49763 62.1428 9.56198 61.2953 9.45789 60.4602C9.3538 59.6251 9.08338 58.8194 8.66262 58.0906C8.24185 57.3617 7.67923 56.7247 7.00808 56.217C6.33693 55.7093 5.57083 55.3412 4.75503 55.1346C-0.0194583 53.9235 -1.62002 47.9495 1.91023 44.5127C2.51346 43.9258 2.99292 43.2238 3.32032 42.4484C3.64772 41.673 3.81638 40.8399 3.81638 39.9982C3.81638 39.1565 3.64772 38.3234 3.32032 37.548C2.99292 36.7726 2.51346 36.0706 1.91023 35.4837C-1.62002 32.0488 -0.0194583 26.0749 4.75503 24.8637C5.5709 24.6569 6.33706 24.2887 7.00822 23.7808C7.67939 23.2729 8.24196 22.6356 8.66271 21.9067C9.08346 21.1777 9.35387 20.3718 9.45794 19.5366C9.562 18.7014 9.49765 17.8538 9.26864 17.0438C7.93092 12.3044 12.3043 7.93103 17.0437 9.26874C17.8536 9.49775 18.7012 9.56212 19.5365 9.45805C20.3717 9.35399 21.1776 9.08359 21.9065 8.66284C22.6355 8.24209 23.2728 7.67951 23.7807 7.00835C24.2886 6.33718 24.6568 5.57104 24.8636 4.75517C26.0747 -0.0193198 32.0487 -1.6199 35.4855 1.90839C36.0722 2.51169 36.7738 2.99128 37.549 3.31882C38.3242 3.64636 39.1571 3.81521 39.9987 3.81539C40.8402 3.81557 41.6732 3.64708 42.4485 3.31988C43.2238 2.99267 43.9257 2.51338 44.5126 1.91034Z" fill="#3E6352"/>
<path d="M39.999 21.7052C38.0325 21.7037 36.0849 22.0899 34.2677 22.8417C32.4506 23.5936 30.7995 24.6964 29.4089 26.0869C28.0183 27.4775 26.9156 29.1286 26.1637 30.9458C25.4119 32.7629 25.0256 34.7105 25.0272 36.6771C25.0272 47.9065 39.999 64.4809 39.999 64.4809C39.999 64.4809 54.9709 47.9065 54.9709 36.6771C54.9725 34.7105 54.5863 32.7629 53.8344 30.9458C53.0825 29.1286 51.9798 27.4775 50.5892 26.0869C49.1986 24.6964 47.5475 23.5936 45.7303 22.8417C43.9132 22.0899 41.9656 21.7037 39.999 21.7052ZM39.999 42.0241C39.2968 42.0243 38.6014 41.8862 37.9525 41.6176C37.3037 41.3489 36.7142 40.9551 36.2176 40.4585C35.7211 39.962 35.3272 39.3724 35.0586 38.7236C34.79 38.0748 34.6518 37.3793 34.6521 36.6771C34.6518 35.9748 34.79 35.2794 35.0586 34.6306C35.3272 33.9818 35.7211 33.3922 36.2176 32.8956C36.7142 32.3991 37.3037 32.0052 37.9525 31.7366C38.6014 31.468 39.2968 31.3299 39.999 31.3301C40.7013 31.3299 41.3967 31.468 42.0455 31.7366C42.6944 32.0052 43.2839 32.3991 43.7805 32.8956C44.2771 33.3922 44.6709 33.9818 44.9395 34.6306C45.2082 35.2794 45.3462 35.9748 45.346 36.6771C45.3462 37.3793 45.2082 38.0748 44.9395 38.7236C44.6709 39.3724 44.2771 39.962 43.7805 40.4585C43.2839 40.9551 42.6944 41.3489 42.0455 41.6176C41.3967 41.8862 40.7013 42.0243 39.999 42.0241Z" fill="#FDF9EE"/>
</g>
<defs>
<clipPath id="clip0_15_179">
<rect width="80" height="80" fill="white"/>
</clipPath>
</defs>
</svg>
