<svg width="27" height="27" viewBox="0 0 27 27" fill="none" xmlns="http://www.w3.org/2000/svg">
<path d="M11.2529 1.62982H15.7654V2.38911H17.395V1.52353C17.3952 0.683487 16.7121 0 15.8725 0H11.1458C10.3061 0 9.62305 0.683487 9.62305 1.52353V2.38911H11.2529V1.62982Z" fill="#999999"/>
<path d="M21.1572 8.84619H5.85842C5.43923 8.84619 5.10922 9.2038 5.14301 9.62176L6.42202 25.4371C6.49329 26.32 7.22972 27 8.11446 27H18.9009C19.7857 27 20.5221 26.32 20.5934 25.4369L21.8724 9.62176C21.9064 9.2038 21.5764 8.84619 21.1572 8.84619ZM9.56281 25.3131C9.54571 25.3141 9.52861 25.3148 9.51172 25.3148C9.08449 25.3148 8.72585 24.9821 8.69928 24.5499L7.89776 11.5663C7.87016 11.1171 8.2119 10.7304 8.66097 10.7028C9.10859 10.6756 9.49689 11.0165 9.52449 11.466L10.3258 24.4496C10.3536 24.8989 10.0119 25.2853 9.56281 25.3131ZM14.3318 24.4999C14.3318 24.9497 13.967 25.3146 13.5169 25.3146C13.0668 25.3146 12.7019 24.9497 12.7019 24.4999V11.5161C12.7019 11.066 13.0668 10.7012 13.5169 10.7012C13.9667 10.7012 14.3318 11.066 14.3318 11.5161V24.4999ZM19.1178 11.5641L18.3526 24.5476C18.3272 24.9806 17.968 25.3146 17.5399 25.3146C17.5238 25.3146 17.5076 25.3141 17.4913 25.3133C17.042 25.2868 16.6993 24.9011 16.7258 24.4519L17.4909 11.4681C17.5173 11.0188 17.9016 10.676 18.3521 10.7026C18.8014 10.729 19.1442 11.1148 19.1178 11.5641Z" fill="#999999"/>
<path d="M23.9756 6.33141L23.4404 4.72713C23.2993 4.30422 22.9034 4.01892 22.4574 4.01892H4.55882C4.11305 4.01892 3.71692 4.30422 3.57602 4.72713L3.04085 6.33141C2.93765 6.64081 3.07196 6.95639 3.32265 7.11377C3.42482 7.17783 3.54574 7.21635 3.67861 7.21635H23.3378C23.4707 7.21635 23.5918 7.17783 23.6938 7.11356C23.9445 6.95618 24.0788 6.6406 23.9756 6.33141Z" fill="#999999"/>
</svg>
