<svg width="173" height="201" viewBox="0 0 173 201" fill="none" xmlns="http://www.w3.org/2000/svg">
<g clip-path="url(#clip0_44_801)">
<path d="M57.4689 8.10242C63.1715 -2.49029 78.2503 -2.75166 84.2999 7.6272C85.3337 9.40282 86.7129 10.9532 88.356 12.1867C89.9991 13.4202 91.8729 14.3119 93.8665 14.809C95.8601 15.3061 97.9331 15.3985 99.963 15.0807C101.993 14.763 103.939 14.0416 105.685 12.9592C115.907 6.62921 129.109 13.9524 129.156 25.9708C129.164 28.0247 129.583 30.0561 130.39 31.9452C131.196 33.8343 132.372 35.5428 133.849 36.9696C135.327 38.3965 137.075 39.5128 138.991 40.2528C140.907 40.9927 142.952 41.3412 145.005 41.2777C157.023 40.907 164.798 53.8473 158.829 64.2832C157.808 66.0658 157.155 68.035 156.909 70.0742C156.662 72.1135 156.826 74.1815 157.393 76.1561C157.959 78.1307 158.915 79.9717 160.205 81.5704C161.495 83.1691 163.092 84.493 164.902 85.4639C175.49 91.1665 175.756 106.245 165.378 112.295C163.602 113.329 162.052 114.708 160.818 116.351C159.585 117.994 158.693 119.868 158.196 121.861C157.699 123.855 157.606 125.928 157.924 127.958C158.242 129.988 158.963 131.934 160.046 133.68C166.376 143.902 159.057 157.104 147.034 157.151C144.98 157.159 142.949 157.578 141.06 158.384C139.17 159.191 137.462 160.367 136.035 161.844C134.608 163.322 133.492 165.07 132.752 166.986C132.012 168.902 131.664 170.947 131.727 173C132.098 185.018 119.157 192.793 108.726 186.824C106.943 185.803 104.974 185.15 102.934 184.903C100.895 184.657 98.8262 184.821 96.8512 185.387C94.8763 185.954 93.0348 186.91 91.4357 188.2C89.8366 189.49 88.5122 191.087 87.5409 192.897C81.8382 203.485 66.7642 203.751 60.7099 193.373C59.6761 191.597 58.2969 190.047 56.6538 188.813C55.0106 187.579 53.1369 186.688 51.1433 186.191C49.1497 185.694 47.0767 185.601 45.0468 185.919C43.0169 186.237 41.0712 186.958 39.3249 188.041C29.1076 194.37 15.9012 187.052 15.8536 175.029C15.8457 172.975 15.4264 170.944 14.6203 169.054C13.8142 167.165 12.6377 165.457 11.1603 164.03C9.68299 162.603 7.93468 161.487 6.0187 160.747C4.10272 160.007 2.05789 159.659 0.00498009 159.722C-12.0086 160.093 -19.7833 147.152 -13.8145 136.721C-12.795 134.938 -12.1429 132.969 -11.8969 130.929C-11.6508 128.89 -11.8156 126.822 -12.3817 124.847C-12.9478 122.873 -13.9036 121.032 -15.1928 119.432C-16.482 117.833 -18.0784 116.508 -19.8878 115.536C-30.4805 109.833 -30.7419 94.7545 -20.363 88.7049C-18.5878 87.6707 -17.0379 86.2912 -15.8048 84.6479C-14.5717 83.0046 -13.6806 81.1308 -13.1839 79.1372C-12.6873 77.1437 -12.5954 75.0707 -12.9134 73.041C-13.2315 71.0113 -13.9532 69.066 -15.0358 67.3199C-21.3658 57.1026 -14.0426 43.8961 -2.02423 43.8486C0.0296535 43.8407 2.06112 43.4213 3.95022 42.6152C5.83932 41.8091 7.54777 40.6327 8.97463 39.1553C10.4015 37.678 11.5179 35.9297 12.2578 34.0137C12.9977 32.0978 13.3462 30.0528 13.2827 27.9999C12.912 15.9863 25.8523 8.20698 36.2882 14.1805C38.0714 15.1997 40.0407 15.8514 42.0799 16.0971C44.1191 16.3428 46.1868 16.1775 48.1611 15.611C50.1353 15.0444 51.9761 14.0881 53.5747 12.7985C55.1734 11.5089 56.4975 9.91212 57.4689 8.10242Z" fill="#3E6352"/>
<path d="M103.195 132.901L92.0507 140.257L37.8516 58.1719L28.2378 64.5209L50.8489 98.7654L38.1842 107.129L15.5731 72.8848L6.1875 79.0817L66.3554 170.201L75.741 164.009L44.3764 116.51L57.041 108.146L88.4057 155.645L92.4831 152.95L98.0194 149.296L109.163 141.939L118.663 135.666L112.694 126.628L67.4627 58.1292L57.963 64.4021L103.195 132.901Z" fill="#FDF9EE"/>
<path d="M129.736 106.842L120.354 113.038L130.266 128.048L139.648 121.852L129.736 106.842Z" fill="#FDF9EE"/>
<path d="M117.732 106.972L124.77 102.33L111.264 80.0891C109.331 76.6549 107.282 73.2935 105.115 70.0049L79.2482 30.8372L69.9861 36.9532L95.8477 76.1257C98.0147 79.4095 100.419 82.5365 102.705 85.7442L117.732 106.972Z" fill="#FDF9EE"/>
<path d="M58.7381 44.4329L49.1057 50.7939L55.4667 60.4263L65.0991 54.0653L58.7381 44.4329Z" fill="#FDF9EE"/>
</g>
<defs>
<clipPath id="clip0_44_801">
<rect width="201" height="201" fill="white" transform="translate(-28)"/>
</clipPath>
</defs>
</svg>
