<svg width="80" height="80" viewBox="0 0 80 80" fill="none" xmlns="http://www.w3.org/2000/svg">
<g clip-path="url(#clip0_5212_2)">
<mask id="mask0_5212_2" style="mask-type:luminance" maskUnits="userSpaceOnUse" x="0" y="0" width="80" height="80">
<path d="M80 0H0V80H80V0Z" fill="white"/>
</mask>
<g mask="url(#mask0_5212_2)">
<path d="M44.5134 1.909C47.9501 -1.6193 53.9241 -0.0187078 55.1353 4.75578C55.3421 5.57165 55.7103 6.3378 56.2182 7.00897C56.7261 7.68012 57.3634 8.2427 58.0924 8.66345C58.8213 9.0842 59.6272 9.35459 60.4624 9.45866C61.2976 9.56273 62.1452 9.49836 62.9551 9.26935C67.6946 7.93164 72.068 12.305 70.7303 17.0444C70.5013 17.8544 70.4369 18.702 70.5409 19.5372C70.645 20.3724 70.9154 21.1783 71.3361 21.9072C71.7569 22.6362 72.3195 23.2735 72.9906 23.7814C73.6618 24.2892 74.428 24.6575 75.2438 24.8643C80.0183 26.0735 81.6189 32.0494 78.0887 35.4842C77.4854 36.0712 77.0059 36.7732 76.6785 37.5486C76.3511 38.324 76.1825 39.1571 76.1825 39.9988C76.1825 40.8405 76.3511 41.6736 76.6785 42.449C77.0059 43.2244 77.4854 43.9264 78.0887 44.5133C81.617 47.9501 80.0164 53.9241 75.2419 55.1352C74.4261 55.3418 73.66 55.7099 72.9888 56.2176C72.3177 56.7253 71.7551 57.3623 71.3343 58.0911C70.9136 58.8199 70.6432 59.6257 70.5391 60.4608C70.435 61.2959 70.4993 62.1434 70.7283 62.9532C72.066 67.6945 67.6926 72.0679 62.9532 70.7283C62.1431 70.4996 61.2955 70.4355 60.4603 70.5398C59.625 70.6441 58.8192 70.9147 58.0903 71.3356C57.3613 71.7565 56.7241 72.3192 56.2162 72.9904C55.7084 73.6617 55.3402 74.4279 55.1333 75.2438C53.9222 80.0183 47.9482 81.6189 44.5114 78.0886C43.9246 77.4854 43.2229 77.006 42.4476 76.6786C41.6724 76.3512 40.8394 76.1826 39.9979 76.1826C39.1563 76.1826 38.3233 76.3512 37.5481 76.6786C36.7729 77.006 36.0711 77.4854 35.4843 78.0886C32.0475 81.6189 26.0736 80.0183 24.8624 75.2438C24.6558 74.4279 24.2878 73.6617 23.7801 72.9904C23.2725 72.3191 22.6355 71.7563 21.9068 71.3352C21.178 70.9142 20.3723 70.6433 19.5372 70.5387C18.7021 70.4342 17.8546 70.4979 17.0445 70.7263C12.3051 72.066 7.93164 67.6926 9.26936 62.9512C9.49834 62.1414 9.5627 61.2939 9.45861 60.4588C9.35452 59.6238 9.0841 58.818 8.66334 58.0892C8.24257 57.3604 7.68 56.7233 7.00885 56.2156C6.3377 55.7079 5.5716 55.3399 4.7558 55.1333C-0.0147972 53.9241 -1.6193 47.9443 1.909 44.5133C2.51247 43.9265 2.9922 43.2246 3.31975 42.4492C3.64731 41.6738 3.81606 40.8406 3.81606 39.9988C3.81606 39.157 3.64731 38.3238 3.31975 37.5484C2.9922 36.773 2.51247 36.0711 1.909 35.4842C-1.6193 32.0494 -0.018692 26.0755 4.7558 24.8643C5.57167 24.6575 6.33783 24.2892 7.00899 23.7814C7.68016 23.2735 8.24273 22.6362 8.66348 21.9072C9.08423 21.1783 9.35464 20.3724 9.4587 19.5372C9.56277 18.702 9.49836 17.8544 9.26936 17.0444C7.93164 12.305 12.3051 7.93164 17.0445 9.26935C17.8544 9.49836 18.702 9.56273 19.5372 9.45866C20.3725 9.35459 21.1783 9.0842 21.9073 8.66345C22.6362 8.2427 23.2735 7.68012 23.7814 7.00897C24.2893 6.3378 24.6575 5.57165 24.8644 4.75578C26.0755 -0.0187078 32.0495 -1.6193 35.4863 1.909C36.0731 2.51217 36.7748 2.99161 37.5501 3.31898C38.3253 3.64636 39.1583 3.81503 39.9998 3.81503C40.8413 3.81503 41.6743 3.64636 42.4496 3.31898C43.2248 2.99161 43.9266 2.51217 44.5134 1.909Z" fill="black"/>
</g>
</g>
<defs>
<clipPath id="clip0_5212_2">
<rect width="80" height="80" fill="white"/>
</clipPath>
</defs>
</svg>
