<svg width="128" height="62" viewBox="0 0 128 62" fill="none" xmlns="http://www.w3.org/2000/svg">
<path d="M10.0545 -7.38886C10.0545 -7.38886 2.3896 -6.36835 0.747119 -17.9865C-0.895354 -29.6046 6.14382 -37.6903 16.3898 -39.4958C21.7083 -40.4378 30.1553 -38.3183 36.4905 -33.0587C42.8258 -27.7991 54.636 -31.9597 54.636 -31.9597C54.636 -31.9597 48.3007 -23.7171 38.9934 -26.1506C29.686 -28.6626 28.5128 -23.9526 29.0603 -21.4405C29.6078 -18.9285 33.9877 -16.7305 40.6359 -19.478C47.2058 -22.2256 48.77 -26.3861 56.2003 -24.7376C63.6305 -23.0891 62.4573 -17.8295 70.5915 -18.693C76.7704 -19.321 79.8989 -23.4031 79.8989 -23.4031C79.8989 -23.4031 78.8039 -14.297 69.9658 -13.7474C61.2059 -13.1979 59.6417 -18.693 52.3678 -15.71C46.189 -13.1194 48.5354 -4.95534 52.9153 -4.09183C58.6249 -2.99282 63.083 -5.50485 63.083 -5.50485C63.083 -5.50485 59.2506 1.63875 50.1779 -0.00977449C41.1051 -1.65829 34.6134 -4.01332 33.9877 1.63875C33.2056 8.15433 41.418 10.1954 48.8482 8.78234C56.2785 7.36932 59.8763 2.73776 66.1334 3.52277C72.4686 4.38628 76.3011 8.78233 86.7816 4.93578C86.7816 4.93578 85.1392 10.7449 76.0664 10.7449C66.9937 10.7449 64.8037 11.2944 64.8037 15.4549C64.8037 19.6155 68.6362 22.363 74.1111 21.4995C79.586 20.636 88.4241 10.7449 100.782 11.5299C113.139 12.3934 114.782 18.6735 128 17.5744C128 17.5744 123.698 22.4415 117.285 21.578C110.793 20.7145 96.5583 15.1409 94.4465 22.9125C92.6476 29.5066 101.173 29.9776 107.117 26.9161C110.48 25.189 117.285 26.288 118.927 28.6431C118.927 28.6431 112.045 27.4656 108.76 29.8991C105.475 32.4111 102.737 36.4932 94.4465 35.7082C86.2342 34.8447 72.1558 26.0526 61.2059 28.5646C50.1779 31.0766 48.8482 37.1212 50.4907 40.9677C52.1332 44.8143 59.016 43.7153 62.6138 42.0668C62.6138 42.0668 60.111 47.3263 51.3511 46.7768C42.5912 46.2273 37.5855 45.9133 36.8034 52.5859C35.9431 59.18 43.3733 61.9275 49.474 60.593C55.4964 59.18 61.8316 53.4494 75.2843 59.494C75.2843 59.494 58.2338 58.6305 61.2842 66.0881C64.3345 73.5456 81.0721 66.088 81.0721 66.088C81.0721 66.088 73.0943 78.2557 57.8428 74.6447C42.5912 71.0336 31.5631 66.0881 25.5407 72.9961C19.5183 79.9042 31.3285 86.2628 37.3509 84.3003C37.3509 84.3003 23.3508 94.6624 9.89809 84.6143C-3.55458 74.6447 -3.31997 49.2104 10.7584 51.9579C10.7584 51.9579 9.35058 48.3468 4.18851 47.2478C-1.05178 46.1488 0.903544 34.8447 7.78631 37.5922C7.78631 37.5922 6.14384 33.4316 2.31139 33.1962C-1.52106 32.8821 2.62423 23.2265 10.5238 26.6021C10.5238 26.6021 10.2109 24.9535 7.47346 22.9125C4.73599 20.8715 8.33381 13.0999 22.0211 15.6119C22.0211 15.6119 18.8926 12.3149 8.49024 12.5504C-1.59927 12.8644 -2.3814 0.147234 5.28349 -2.6003C9.81986 -4.17032 10.0545 -7.38886 10.0545 -7.38886Z" fill="#FF7900"/>
</svg>
