<svg width="42" height="42" viewBox="0 0 42 42" fill="none" xmlns="http://www.w3.org/2000/svg">
<path d="M21 0C9.45827 0 0 9.45827 0 21C0 32.5417 9.45827 42 21 42C32.5417 42 42 32.5417 42 21C42 9.45827 32.5417 0 21 0ZM34.0882 34.0882C30.573 37.6033 25.9248 39.5391 21 39.5391C16.0752 39.5391 11.427 37.6033 7.91185 34.0882C4.39668 30.573 2.46094 25.9248 2.46094 21C2.46094 16.0752 4.39668 11.427 7.91185 7.91185C11.427 4.39668 16.0752 2.46094 21 2.46094C25.9248 2.46094 30.573 4.39668 34.0882 7.91185C37.6033 11.427 39.5391 16.0752 39.5391 21C39.5391 25.9248 37.6033 30.573 34.0882 34.0882Z" fill="#1A482D"/>
<path d="M32.3479 9.65213C29.2977 6.60191 25.2675 4.92188 21 4.92188C16.7325 4.92188 12.7023 6.60191 9.65213 9.65213C6.60191 12.7023 4.92188 16.7325 4.92188 21C4.92188 25.2675 6.60191 29.2977 9.65213 32.3479C12.7023 35.3981 16.7325 37.0781 21 37.0781C25.2675 37.0781 29.2977 35.3981 32.3479 32.3479C35.3984 29.2977 37.0781 25.2675 37.0781 21C37.0781 16.7325 35.3984 12.7023 32.3479 9.65213ZM27.1523 29.6133H14.4538L16.8164 21.3691L12.6328 22.2058L12.1406 19.7942L17.5547 18.7115L19.8189 10.8118L22.1811 11.5007L20.2617 18.1699L24.4453 17.3333L24.9375 19.7449L19.5234 20.8276L17.7024 27.1523H27.1523V29.6133Z" fill="#1A482D"/>
</svg>
