<svg width="390" height="772" viewBox="0 0 390 772" fill="none" xmlns="http://www.w3.org/2000/svg">
<g clip-path="url(#clip0_40_223)">
<path d="M204.131 583.252L-50.3645 679.289L-42.9109 699.029L211.584 602.992L204.131 583.252Z" fill="#FF2B3C"/>
<path d="M246.407 566.63L-20.1074 621.08L-15.8815 641.753L250.633 587.303L246.407 566.63Z" fill="#FF2B3C"/>
<path d="M38.3599 652.992C58.4877 694.927 94.312 727.261 138.091 743.006C181.87 758.751 230.089 756.644 272.326 737.139C314.564 717.634 347.428 682.297 363.819 638.766C380.209 595.235 378.808 547.004 359.919 504.497L38.3599 652.992Z" fill="#FF2B3C"/>
<path d="M306.554 707.003L227.191 743.647L240.288 771.997L319.652 735.354L306.554 707.003Z" fill="#FF2B3C"/>
<path d="M201.818 252.797L-69.5322 233.685L-71.0155 254.733L200.334 273.845L201.818 252.797Z" fill="#FF2B3C"/>
<path d="M247.141 255.371L-17.7373 193.457L-22.5426 214.003L242.336 275.918L247.141 255.371Z" fill="#FF2B3C"/>
<path d="M22.0841 246.872C21.9417 270.237 26.4263 293.4 35.2796 315.025C44.1328 336.649 57.1796 356.309 73.6679 372.869C90.1563 389.43 109.76 402.564 131.349 411.515C152.939 420.467 176.087 425.058 199.459 425.024C222.832 424.99 245.966 420.332 267.53 411.319C289.093 402.305 308.659 389.114 325.1 372.506C341.54 355.898 354.53 336.202 363.321 314.551C372.112 292.901 376.529 269.726 376.319 246.361L22.0841 246.872Z" fill="#FF2B3C"/>
<path d="M243.13 408.029L155.711 408.151L155.755 439.379L243.173 439.257L243.13 408.029Z" fill="#FF2B3C"/>
<path d="M166.32 433.299L434.47 479.025L438.019 458.226L169.869 412.499L166.32 433.299Z" fill="#FF2B3C"/>
<path d="M124.973 425.433L396.983 427.996L397.182 406.897L125.172 404.334L124.973 425.433Z" fill="#FF2B3C"/>
<path d="M345.886 449.374C340.337 471.957 330.393 493.226 316.622 511.967C302.851 530.709 285.522 546.555 265.626 558.601C245.729 570.647 223.654 578.657 200.66 582.174C177.667 585.691 154.206 584.646 131.616 579.099C109.027 573.552 87.7514 563.611 69.0049 549.843C50.2585 536.076 34.408 518.752 22.3585 498.861C10.309 478.97 2.29647 456.901 -1.22163 433.914C-4.73974 410.927 -3.69451 387.472 1.85438 364.889L345.886 449.374Z" fill="#FF2B3C"/>
<path d="M85.4936 583.847L170.393 604.679L177.839 574.351L92.9393 553.519L85.4936 583.847Z" fill="#FF2B3C"/>
<path d="M185.227 0C175.792 9.45715 168.314 20.6796 163.218 33.0265C158.123 45.3734 155.51 58.6028 155.53 71.9593C155.549 85.3157 158.2 98.5375 163.331 110.87C168.463 123.202 175.974 134.402 185.435 143.832C204.484 124.73 215.163 98.8458 215.124 71.8729C215.085 44.9 204.331 19.047 185.227 0Z" fill="#FF2B3C"/>
<path d="M329.297 143.624C310.188 124.583 284.298 113.909 257.318 113.948C230.338 113.987 204.479 124.736 185.425 143.832C204.532 162.875 230.424 173.551 257.404 173.512C284.385 173.473 310.245 162.722 329.297 143.624Z" fill="#FF2B3C"/>
<path d="M215.316 216.781C205.709 207.223 198.114 195.839 192.98 183.299C187.846 170.759 185.277 157.318 185.425 143.77C175.981 153.233 168.495 164.466 163.397 176.824C158.298 189.182 155.686 202.424 155.71 215.792C155.735 229.16 158.394 242.392 163.538 254.732C168.681 267.071 176.207 278.276 185.686 287.706H286.24V246.496C259.613 246.284 234.138 235.611 215.316 216.781Z" fill="#FF2B3C"/>
<path d="M327.472 186.752C329.558 184.04 334.431 179.973 340.628 180.035C346.825 180.098 351.468 184.207 353.419 186.752C359.929 195.389 354.963 213.297 340.628 230.736C326.032 213.308 320.982 195.357 327.472 186.752Z" fill="#FF2B3C"/>
<path d="M368.14 216.927C369.656 217.134 371.1 217.701 372.351 218.582C373.602 219.463 374.623 220.631 375.328 221.988C376.034 223.346 376.403 224.852 376.405 226.382C376.407 227.911 376.041 229.419 375.339 230.778C372.532 236.65 361.588 238.966 348.296 236.139C353.554 223.519 361.744 215.842 368.14 216.927Z" fill="#FF2B3C"/>
</g>
<defs>
<clipPath id="clip0_40_223">
<rect width="509" height="772" fill="white" transform="translate(-71)"/>
</clipPath>
</defs>
</svg>
