<svg width="57" height="57" viewBox="0 0 57 57" fill="none" xmlns="http://www.w3.org/2000/svg">
<g clip-path="url(#clip0_40_224)">
<path d="M31.7098 1.36232C32.2665 0.79033 32.9657 0.377115 33.7352 0.165328C34.5048 -0.0464592 35.317 -0.0491775 36.088 0.157429C36.859 0.364035 37.561 0.772503 38.1215 1.34074C38.6821 1.90897 39.0809 2.6164 39.2771 3.39013C39.4246 3.97049 39.6869 4.51548 40.0483 4.99294C40.4097 5.47041 40.8631 5.87073 41.3816 6.17031C41.9001 6.4699 42.4733 6.66268 43.0675 6.73734C43.6616 6.81199 44.2647 6.76701 44.8412 6.60501C45.6096 6.38789 46.4219 6.37961 47.1944 6.58106C47.967 6.78252 48.6718 7.18643 49.2363 7.75109C49.8007 8.31574 50.2044 9.0207 50.4055 9.79333C50.6067 10.566 50.5981 11.3783 50.3807 12.1465C50.2188 12.7232 50.1738 13.3264 50.2486 13.9207C50.3234 14.515 50.5164 15.0882 50.8162 15.6068C51.116 16.1253 51.5165 16.5786 51.9942 16.94C52.4719 17.3013 53.0171 17.5633 53.5976 17.7107C54.3714 17.9068 55.0788 18.3057 55.647 18.8663C56.2153 19.4269 56.6237 20.1288 56.8303 20.8998C57.0369 21.6708 57.0342 22.4829 56.8224 23.2525C56.6106 24.0221 56.1975 24.7213 55.6255 25.278C55.1956 25.6963 54.854 26.1964 54.6206 26.7489C54.3873 27.3015 54.2671 27.8952 54.2671 28.495C54.2671 29.0947 54.3873 29.6884 54.6206 30.2409C54.854 30.7934 55.1956 31.2936 55.6255 31.7119C56.1975 32.2686 56.6106 32.9678 56.8224 33.7374C57.0342 34.507 57.0369 35.3191 56.8303 36.0901C56.6237 36.8611 56.2153 37.5631 55.647 38.1236C55.0788 38.6842 54.3714 39.0831 53.5976 39.2792C53.0169 39.4263 52.4716 39.6882 51.9938 40.0495C51.5159 40.4108 51.1152 40.8641 50.8154 41.3827C50.5156 41.9013 50.3227 42.4747 50.248 43.0691C50.1733 43.6634 50.2185 44.2667 50.3807 44.8434C50.5977 45.6115 50.6059 46.4235 50.4045 47.1958C50.2031 47.9681 49.7994 48.6728 49.2351 49.2372C48.6707 49.8015 47.966 50.2052 47.1937 50.4066C46.4214 50.608 45.6093 50.5998 44.8412 50.3828C44.2646 50.2206 43.6613 50.1754 43.0669 50.2501C42.4725 50.3248 41.8991 50.5177 41.3805 50.8175C40.8619 51.1174 40.4086 51.518 40.0473 51.9959C39.6861 52.4737 39.4242 53.0191 39.2771 53.5998C39.0806 54.3735 38.6814 55.0809 38.1207 55.649C37.5599 56.2172 36.8578 56.6256 36.0867 56.8321C35.3156 57.0387 34.5034 57.036 33.7337 56.8243C32.964 56.6126 32.2647 56.1995 31.7077 55.6276C31.2896 55.1978 30.7896 54.8562 30.2372 54.6229C29.6849 54.3896 29.0914 54.2694 28.4918 54.2694C27.8922 54.2694 27.2987 54.3896 26.7463 54.6229C26.194 54.8562 25.694 55.1978 25.2759 55.6276C24.7192 56.1996 24.02 56.6128 23.2504 56.8246C22.4808 57.0364 21.6687 57.0391 20.8977 56.8325C20.1267 56.6259 19.4247 56.2174 18.8641 55.6492C18.3036 55.0809 17.9047 54.3735 17.7086 53.5998C17.5612 53.0192 17.2992 52.474 16.9378 51.9963C16.5765 51.5186 16.1232 51.1181 15.6047 50.8183C15.0861 50.5185 14.5128 50.3256 13.9185 50.2508C13.3243 50.176 12.7211 50.2209 12.1444 50.3828C11.3763 50.5998 10.5643 50.608 9.79194 50.4066C9.01962 50.2052 8.31497 49.8015 7.7506 49.2372C7.18623 48.6728 6.78256 47.9681 6.58118 47.1958C6.3798 46.4235 6.38799 45.6115 6.60493 44.8434C6.76722 44.2669 6.81243 43.6637 6.7379 43.0694C6.66338 42.4752 6.47066 41.9018 6.17103 41.3832C5.8714 40.8646 5.47097 40.4113 4.99336 40.0499C4.51574 39.6886 3.9706 39.4265 3.39009 39.2792C2.61636 39.0831 1.90888 38.6842 1.34065 38.1236C0.772417 37.5631 0.363949 36.8611 0.157343 36.0901C-0.0492632 35.3191 -0.0464946 34.507 0.165292 33.7374C0.37708 32.9678 0.790244 32.2686 1.36223 31.7119C1.79184 31.2934 2.13328 30.7933 2.36643 30.2408C2.59957 29.6882 2.71967 29.0946 2.71967 28.495C2.71967 27.8953 2.59957 27.3017 2.36643 26.7491C2.13328 26.1966 1.79184 25.6964 1.36223 25.278C0.790244 24.7213 0.37708 24.0221 0.165292 23.2525C-0.0464946 22.4829 -0.0492632 21.6708 0.157343 20.8998C0.363949 20.1288 0.772417 19.4269 1.34065 18.8663C1.90888 18.3057 2.61636 17.9068 3.39009 17.7107C3.9706 17.5634 4.51574 17.3013 4.99336 16.9399C5.47097 16.5785 5.8714 16.1252 6.17103 15.6066C6.47066 15.088 6.66338 14.5148 6.7379 13.9205C6.81243 13.3262 6.76722 12.723 6.60493 12.1465C6.38822 11.3784 6.38016 10.5663 6.58158 9.79404C6.783 9.02174 7.18664 8.31707 7.7509 7.7526C8.31517 7.18812 9.01966 6.78423 9.79189 6.58252C10.5641 6.38082 11.3762 6.38859 12.1444 6.60501C12.7209 6.76701 13.324 6.81199 13.9182 6.73734C14.5124 6.66268 15.0856 6.4699 15.6041 6.17031C16.1226 5.87073 16.5759 5.47041 16.9374 4.99294C17.2988 4.51548 17.561 3.97049 17.7086 3.39013C17.9047 2.6164 18.3036 1.90897 18.8641 1.34074C19.4247 0.772503 20.1267 0.364035 20.8977 0.157429C21.6687 -0.0491775 22.4808 -0.0464592 23.2504 0.165328C24.02 0.377115 24.7192 0.79033 25.2759 1.36232C25.6942 1.79218 26.1943 2.13381 26.7468 2.36712C27.2994 2.60042 27.893 2.72066 28.4928 2.72066C29.0926 2.72066 29.6863 2.60042 30.2388 2.36712C30.7913 2.13381 31.2915 1.79218 31.7098 1.36232Z" fill="#FF2B3C"/>
<path d="M38.2045 17L17.9028 37.3016L19.6976 39.0964L39.9992 18.7948L38.2045 17Z" fill="#FDF9EE"/>
<path d="M40.0001 37.3017L19.6985 17L17.9037 18.7948L38.2054 39.0964L40.0001 37.3017Z" fill="#FDF9EE"/>
</g>
<defs>
<clipPath id="clip0_40_224">
<rect width="57" height="57" fill="white"/>
</clipPath>
</defs>
</svg>
