<svg width="42" height="42" viewBox="0 0 42 42" fill="none" xmlns="http://www.w3.org/2000/svg">
<path d="M27.1534 19.7695L21.0011 27.9731L14.8487 19.7695V29.6133H10.5684C13.053 32.6175 16.8071 34.5352 21.0011 34.5352C25.1951 34.5352 28.9491 32.6175 31.4338 29.6133H27.1534V19.7695Z" fill="#1A482D"/>
<path d="M21 7.46484C13.5367 7.46484 7.46484 13.5367 7.46484 21C7.46484 23.2162 8.01084 25.3039 8.95904 27.1523H12.3867V12.3867L21 23.8707L29.6133 12.3867V27.1523H33.041C33.9892 25.3039 34.5352 23.2162 34.5352 21C34.5352 13.5367 28.4633 7.46484 21 7.46484Z" fill="#1A482D"/>
<path d="M21 0C9.46559 0 0 9.46559 0 21C0 32.5344 9.46559 42 21 42C32.5344 42 42 32.5344 42 21C42 9.46559 32.5344 0 21 0ZM21 36.9961C12.18 36.9961 5.00391 29.82 5.00391 21C5.00391 12.18 12.18 5.00391 21 5.00391C29.82 5.00391 36.9961 12.18 36.9961 21C36.9961 29.82 29.82 36.9961 21 36.9961Z" fill="#1A482D"/>
</svg>
