<svg width="114" height="114" viewBox="0 0 114 114" fill="none" xmlns="http://www.w3.org/2000/svg">
<g clip-path="url(#clip0_15_234)">
<path d="M63.4304 2.72186C68.3278 -2.30873 76.8407 -0.0278713 78.5666 6.77578C78.8613 7.93839 79.386 9.03016 80.1098 9.98657C80.8335 10.943 81.7416 11.7446 82.7804 12.3442C83.8191 12.9438 84.9676 13.3291 86.1577 13.4774C87.3479 13.6257 88.5558 13.5339 89.7099 13.2076C96.4636 11.2986 102.696 17.5335 100.787 24.2872C100.461 25.4415 100.37 26.6492 100.519 27.8393C100.668 29.0294 101.053 30.1776 101.653 31.2162C102.253 32.2548 103.055 33.1628 104.011 33.8866C104.967 34.6104 106.059 35.1354 107.221 35.4305C114.025 37.1536 116.306 45.6693 111.275 50.5639C110.416 51.4003 109.732 52.4006 109.266 53.5056C108.799 54.6105 108.559 55.7977 108.559 56.9971C108.559 58.1965 108.799 59.3838 109.266 60.4887C109.732 61.5937 110.416 62.5939 111.275 63.4303C116.306 68.3249 114.025 76.8406 107.221 78.5637C106.059 78.8588 104.967 79.3838 104.011 80.1076C103.055 80.8314 102.253 81.7394 101.653 82.778C101.053 83.8166 100.668 84.9648 100.519 86.1549C100.37 87.345 100.461 88.5527 100.787 89.707C102.696 96.4607 96.4636 102.696 89.7099 100.787C88.5558 100.46 87.3479 100.368 86.1577 100.517C84.9676 100.665 83.8191 101.05 82.7804 101.65C81.7416 102.25 80.8335 103.051 80.1098 104.008C79.386 104.964 78.8613 106.056 78.5666 107.218C76.8407 114.025 68.3278 116.306 63.4304 111.275C62.5942 110.416 61.5942 109.732 60.4895 109.266C59.3848 108.799 58.1977 108.559 56.9986 108.559C55.7994 108.559 54.6124 108.799 53.5077 109.266C52.4029 109.732 51.4029 110.416 50.5667 111.275C45.6693 116.306 37.1564 114.025 35.4306 107.218C35.1358 106.056 34.6111 104.964 33.8873 104.008C33.1636 103.051 32.2555 102.25 31.2167 101.65C30.1779 101.05 29.0295 100.665 27.8393 100.517C26.6491 100.368 25.4413 100.46 24.2872 100.787C17.5335 102.696 11.3014 96.4607 13.2077 89.707C13.534 88.5529 13.6257 87.3451 13.4774 86.1549C13.3291 84.9647 12.9438 83.8164 12.3442 82.7776C11.7447 81.7388 10.943 80.8307 9.98658 80.107C9.03017 79.3832 7.93847 78.8585 6.77585 78.5637C-0.0277973 76.8406 -2.30866 68.3249 2.71916 63.4303C3.57876 62.5939 4.26199 61.5937 4.72854 60.4887C5.19508 59.3838 5.4355 58.1965 5.4355 56.9971C5.4355 55.7977 5.19508 54.6105 4.72854 53.5056C4.26199 52.4006 3.57876 51.4003 2.71916 50.5639C-2.30866 45.6693 -0.0277973 37.1536 6.77585 35.4305C7.93847 35.1357 9.03017 34.611 9.98658 33.8872C10.943 33.1635 11.7447 32.2554 12.3442 31.2166C12.9438 30.1778 13.3291 29.0295 13.4774 27.8393C13.6257 26.6491 13.534 25.4413 13.2077 24.2872C11.3014 17.5335 17.5335 11.2986 24.2872 13.2076C25.4413 13.5339 26.6491 13.6257 27.8393 13.4774C29.0295 13.3291 30.1779 12.9438 31.2167 12.3442C32.2555 11.7446 33.1636 10.943 33.8873 9.98657C34.6111 9.03016 35.1358 7.93839 35.4306 6.77578C37.1564 -0.0306461 45.6693 -2.31151 50.5639 2.71908C51.4002 3.57887 52.4003 4.26236 53.5051 4.72914C54.61 5.19592 55.7972 5.43659 56.9966 5.43685C58.196 5.43711 59.3833 5.19694 60.4883 4.73063C61.5934 4.26433 62.5937 3.58128 63.4304 2.72186Z" fill="#FF2B3C"/>
<path d="M72.7508 70.0982C75.8777 65.7847 77.2641 60.4513 76.6337 55.1612C76.0032 49.8711 73.4023 45.0128 69.3494 41.555C65.2964 38.0971 60.0891 36.2938 54.7657 36.5044C49.4423 36.7149 44.3939 38.924 40.6267 42.6912C36.8596 46.4583 34.6505 51.5068 34.4399 56.8302C34.2294 62.1536 36.0327 67.3609 39.4905 71.4139C42.9484 75.4668 47.8066 78.0677 53.0968 78.6982C58.3869 79.3286 63.7203 77.9421 68.0337 74.8152L80.2426 87.0241L84.9596 82.307L72.7508 70.0982ZM70.1009 57.6979C70.1014 60.5605 69.2531 63.359 67.6631 65.7394C66.0731 68.1198 63.8129 69.9754 61.1684 71.0712C58.5238 72.1671 55.6137 72.454 52.806 71.8959C49.9983 71.3378 47.4192 69.9596 45.3948 67.9356C43.3705 65.9116 41.9918 63.3328 41.4331 60.5252C40.8745 57.7176 41.1609 54.8075 42.2563 52.1627C43.3516 49.518 45.2067 47.2574 47.5868 45.6669C49.9669 44.0765 52.7652 43.2277 55.6278 43.2277C59.4645 43.2321 63.1428 44.7579 65.856 47.4706C68.5692 50.1833 70.0958 53.8612 70.1009 57.6979Z" fill="#FDF9EE"/>
<path d="M55.7611 50.1951C54.974 50.1947 54.1947 50.3495 53.4675 50.6506C52.7403 50.9517 52.0797 51.3932 51.5233 51.9499C50.9669 52.5065 50.5257 53.1674 50.2249 53.8947C49.9242 54.622 49.7697 55.4015 49.7704 56.1885C49.7704 60.6808 55.7611 67.3096 55.7611 67.3096C55.7611 67.3096 61.749 60.6808 61.749 56.1885C61.7497 55.4017 61.5953 54.6224 61.2947 53.8953C60.9941 53.1682 60.5532 52.5074 59.9971 51.9508C59.441 51.3942 58.7806 50.9526 58.0538 50.6514C57.327 50.3501 56.5479 50.1951 55.7611 50.1951ZM55.7611 58.3278C55.337 58.3289 54.9222 58.2042 54.5692 57.9693C54.2161 57.7345 53.9407 57.4002 53.7778 57.0087C53.6149 56.6172 53.5719 56.1862 53.6541 55.7702C53.7364 55.3542 53.9403 54.9721 54.2399 54.672C54.5395 54.372 54.9215 54.1676 55.3373 54.0848C55.7532 54.0021 56.1842 54.0446 56.5759 54.207C56.9676 54.3694 57.3023 54.6443 57.5376 54.9971C57.7729 55.3498 57.8982 55.7645 57.8977 56.1885C57.8947 56.7535 57.6684 57.2944 57.2681 57.6931C56.8678 58.0918 56.326 58.316 55.7611 58.3167V58.3278Z" fill="#FDF9EE"/>
</g>
<defs>
<clipPath id="clip0_15_234">
<rect width="114" height="114" fill="white"/>
</clipPath>
</defs>
</svg>
