<svg width="148" height="67" viewBox="0 0 148 67" fill="none" xmlns="http://www.w3.org/2000/svg">
<path d="M114.469 0C107.15 0 100.03 2.40398 94.2265 6.79905C88.5999 2.53484 81.5913 0 74 0C66.6808 0 59.5604 2.40398 53.7566 6.80018C48.13 2.53596 41.1225 0.0011281 33.5312 0.0011281C27.899 0.0011281 22.3278 1.42366 17.4205 4.11417C16.3704 4.69063 15.9865 6.00712 16.5624 7.05625C17.1394 8.10426 18.4571 8.48781 19.5061 7.91248C23.7765 5.57055 28.6262 4.33302 33.5312 4.33302C49.6295 4.33302 62.7266 17.4178 62.7266 33.5011C62.7266 49.5833 49.6295 62.6681 33.5312 62.6681C17.433 62.6681 4.33594 49.5833 4.33594 33.5011C4.33594 25.7838 7.32254 18.5098 12.747 13.0171C13.5871 12.1665 13.578 10.7948 12.7255 9.95434C11.8741 9.11503 10.5011 9.12293 9.65988 9.97464C3.43036 16.2841 0 24.6388 0 33.5011C0 51.9726 15.0414 67 33.5312 67C41.1225 67 48.1323 64.4652 53.7589 60.1998C59.5616 64.5949 66.6808 66.9989 74 66.9989C81.5913 66.9989 88.5999 64.464 94.2265 60.1998C100.03 64.5949 107.15 66.9989 114.469 66.9989C120.733 66.9989 126.843 65.2616 132.138 61.9755C133.155 61.3437 133.468 60.0092 132.836 58.9928C132.203 57.9763 130.866 57.665 129.85 58.2956C125.242 61.1553 119.924 62.667 114.469 62.667C108.403 62.667 102.495 60.7706 97.5846 57.2882C98.62 56.2639 99.5888 55.1719 100.484 54.0201C104.589 56.8144 109.473 58.3351 114.469 58.3351C128.177 58.3351 139.328 47.194 139.328 33.5C139.328 19.8049 128.177 8.66379 114.469 8.66379C109.473 8.66379 104.588 10.1845 100.484 12.9788C99.5888 11.827 98.62 10.7361 97.5846 9.71067C102.495 6.22823 108.403 4.3319 114.469 4.3319C130.567 4.3319 143.664 17.4167 143.664 33.4989C143.664 40.5901 141.087 47.4241 136.409 52.7431C135.619 53.6411 135.707 55.0094 136.607 55.7991C137.019 56.1612 137.529 56.3383 138.038 56.3383C138.639 56.3383 139.238 56.089 139.667 55.6017C145.04 49.4919 148 41.6426 148 33.4989C148 15.0274 132.959 0 114.469 0ZM114.469 12.9957C125.785 12.9957 134.992 22.1931 134.992 33.4989C134.992 44.8047 125.785 54.0032 114.469 54.0032C110.343 54.0032 106.307 52.7465 102.919 50.4361C105.74 45.6474 107.404 40.0994 107.522 34.1791L108.038 34.002L106.805 43.5265C106.725 44.1447 106.916 44.7674 107.327 45.2345C107.739 45.7026 108.332 45.9711 108.955 45.9711H122.785C123.983 45.9711 124.953 45.001 124.953 43.8052C124.953 42.6083 123.983 41.6392 122.785 41.6392H111.422L112.615 32.4215L120.75 29.6137C121.882 29.2223 122.482 27.9892 122.092 26.8589C121.701 25.7285 120.467 25.1284 119.334 25.5187L113.236 27.6237L114.068 21.1947C114.221 20.0079 113.384 18.9216 112.196 18.7682C111.009 18.617 109.922 19.4529 109.768 20.6397L108.659 29.2042L107.311 29.669C106.769 24.9321 105.235 20.4919 102.92 16.5627C106.307 14.2524 110.343 12.9957 114.469 12.9957ZM103.195 33.4989C103.195 49.5822 90.0983 62.667 74 62.667C67.9353 62.667 62.0276 60.7706 57.1158 57.2882C58.1524 56.2639 59.1212 55.1719 60.0166 54.0201C64.1199 56.8144 69.0046 58.3351 74 58.3351C87.7079 58.3351 98.8594 47.194 98.8594 33.4989C98.8594 26.4956 95.8671 19.7778 90.6482 15.0691C89.7607 14.2682 88.3899 14.337 87.5859 15.2248C86.7842 16.1126 86.8531 17.4821 87.7418 18.2842C92.0517 22.1728 94.5234 27.7185 94.5234 33.4989C94.5234 44.8047 85.3163 54.0032 74 54.0032C69.8741 54.0032 65.8396 52.7465 62.451 50.4361C63.5418 48.5849 64.4587 46.6198 65.1813 44.5633C65.4885 45.3856 66.28 45.9711 67.2093 45.9711H74.6493C78.9344 45.9711 82.5815 42.9106 83.3211 38.6938L84.6524 31.1073C85.1029 28.5409 84.3983 25.926 82.7216 23.9315C81.0448 21.937 78.5866 20.7931 75.9805 20.7931H69.7905C68.5936 20.7931 67.6226 21.7621 67.6226 22.9591C67.6226 24.1548 68.5936 25.125 69.7905 25.125H75.9805C77.3039 25.125 78.5505 25.706 79.4019 26.7179C80.2532 27.7298 80.61 29.0576 80.382 30.3594L79.0507 37.9458C78.6758 40.0858 76.824 41.6392 74.6493 41.6392H67.2104C66.743 41.6392 66.3116 41.7881 65.9571 42.0397C66.5623 39.7474 66.9293 37.3592 67.0309 34.9034H73.4908C74.6888 34.9034 75.6587 33.9343 75.6587 32.7374C75.6587 31.5405 74.6888 30.5715 73.4908 30.5715H66.9326C66.49 25.495 64.9103 20.7412 62.4499 16.5627C65.8385 14.2524 69.873 12.9957 74 12.9957C76.2538 12.9957 78.4692 13.3601 80.5841 14.0775C81.7177 14.4611 82.9496 13.8564 83.3347 12.7238C83.7197 11.5912 83.1122 10.3605 81.9797 9.97577C79.4143 9.10488 76.7292 8.66379 74 8.66379C69.0046 8.66379 64.1188 10.1845 60.0155 12.9788C59.1189 11.8281 58.1501 10.7361 57.1147 9.7118C62.0265 6.22823 67.9342 4.3319 74 4.3319C90.0983 4.3319 103.195 17.4167 103.195 33.4989Z" fill="#383838"/>
<path d="M33.5 58C47.0097 58 58 47.0095 58 33.5006C58 19.9905 47.0097 9 33.5 9C19.9903 9 9 19.9905 9 33.5006C9 47.0095 19.9903 58 33.5 58ZM33.5 13.2734C44.6528 13.2734 53.7267 22.3476 53.7267 33.5006C53.7267 44.6536 44.6528 53.7267 33.5 53.7267C22.3472 53.7267 13.2733 44.6536 13.2733 33.5006C13.2733 22.3476 22.3472 13.2734 33.5 13.2734Z" fill="#383838"/>
<path d="M27.0374 43.5101H26.1269C24.9516 43.5101 24 44.497 24 45.7161C24 46.9351 24.9516 47.922 26.1269 47.922H27.0374V48.794C27.0374 50.0131 27.989 51 29.1643 51C30.3396 51 31.2912 50.0131 31.2912 48.794V47.922H34.0217V48.794C34.0217 50.0131 34.9744 51 36.1486 51C37.3239 51 38.2755 50.0131 38.2755 48.794V47.1924C41.0581 45.8918 43 42.9908 43 39.6255V39.5899C43 37.1852 42.0075 35.0172 40.4256 33.5006C42.0075 31.984 43 29.8148 43 27.4101V27.3745C43 24.0092 41.0581 21.1082 38.2755 19.8076V18.206C38.2755 16.9869 37.3239 16 36.1486 16C34.9744 16 34.0217 16.9869 34.0217 18.206V19.078H31.2912V18.206C31.2912 16.9869 30.3396 16 29.1643 16C27.989 16 27.0374 16.9869 27.0374 18.206V19.078H26.1269C24.9516 19.078 24 20.0661 24 21.284C24 22.503 24.9516 23.4899 26.1269 23.4899H27.0374V43.5101ZM38.7463 39.5899V39.6255C38.7463 41.7672 37.0658 43.5101 35.0021 43.5101H31.2912V35.7065H35.0021C37.0658 35.7065 38.7463 37.4483 38.7463 39.5899ZM38.7463 27.4101C38.7463 29.5517 37.0658 31.2946 35.0021 31.2946H31.2912V23.4899H35.0021C37.0658 23.4899 38.7463 25.2328 38.7463 27.3745V27.4101Z" fill="#383838"/>
</svg>
