<svg width="128" height="62" viewBox="0 0 128 62" fill="none" xmlns="http://www.w3.org/2000/svg">
<path d="M117.946 69.389C117.946 69.389 125.61 68.3685 127.253 79.9866C128.895 91.6048 121.856 99.6904 111.61 101.496C106.292 102.438 97.8447 100.318 91.5095 95.0588C85.1742 89.7993 73.364 93.9598 73.364 93.9598C73.364 93.9598 79.6993 85.7172 89.0066 88.1507C98.314 90.6628 99.4872 85.9527 98.9397 83.4407C98.3922 80.9286 94.0123 78.7306 87.3642 81.4781C80.7942 84.2257 79.23 88.3862 71.7997 86.7377C64.3695 85.0892 65.5427 79.8296 57.4085 80.6931C51.2296 81.3211 48.1011 85.4032 48.1011 85.4032C48.1011 85.4032 49.1961 76.2971 58.0342 75.7476C66.7941 75.1981 68.3583 80.6931 75.6322 77.7101C81.811 75.1196 79.4646 66.9555 75.0847 66.092C69.3751 64.9929 64.917 67.505 64.917 67.505C64.917 67.505 68.7494 60.3614 77.8221 62.0099C86.8949 63.6584 93.3866 66.0135 94.0123 60.3614C94.7944 53.8458 86.582 51.8048 79.1518 53.2178C71.7215 54.6308 68.1237 59.2624 61.8666 58.4774C55.5314 57.6138 51.6989 53.2178 41.2184 57.0643C41.2184 57.0643 42.8608 51.2553 51.9336 51.2553C61.0063 51.2553 63.1963 50.7058 63.1963 46.5452C63.1963 42.3847 59.3638 39.6371 53.8889 40.5006C48.414 41.3641 39.5759 51.2553 27.2182 50.4703C14.8605 49.6068 13.218 43.3267 -2.50411e-06 44.4257C-2.50411e-06 44.4257 4.30172 39.5586 10.7152 40.4221C17.2069 41.2856 31.4417 46.8592 33.5535 39.0876C35.3524 32.4935 26.8271 32.0225 20.8829 35.0841C17.5198 36.8111 10.7152 35.7121 9.07273 33.357C9.07273 33.357 15.9555 34.5346 19.2404 32.101C22.5254 29.589 25.2629 25.5069 33.5535 26.292C41.7659 27.1555 55.8442 35.9476 66.7941 33.4355C77.8221 30.9235 79.1518 24.8789 77.5093 21.0324C75.8668 17.1858 68.984 18.2849 65.3862 19.9334C65.3862 19.9334 67.8891 14.6738 76.6489 15.2233C85.4088 15.7728 90.4145 16.0868 91.1966 9.41424C92.0569 2.82016 84.6267 0.0726205 78.5261 1.40714C72.5036 2.82016 66.1684 8.55073 52.7157 2.50615C52.7157 2.50615 69.7662 3.36967 66.7159 -4.08792C63.6655 -11.5455 46.9279 -4.08792 46.9279 -4.08792C46.9279 -4.08792 54.9057 -16.2556 70.1572 -12.6445C85.4088 -9.0335 96.4369 -4.08793 102.459 -10.996C108.482 -17.9041 96.6715 -24.2627 90.6491 -22.3002C90.6491 -22.3002 104.649 -32.6623 118.102 -22.6142C131.555 -12.6445 131.32 12.7898 117.242 10.0422C117.242 10.0422 118.649 13.6533 123.811 14.7523C129.052 15.8513 127.096 27.1555 120.214 24.4079C120.214 24.4079 121.856 28.5685 125.689 28.804C129.521 29.118 125.376 38.7736 117.476 35.3981C117.476 35.3981 117.789 37.0466 120.527 39.0876C123.264 41.1286 119.666 48.9002 105.979 46.3882C105.979 46.3882 109.107 49.6852 119.51 49.4497C129.599 49.1357 130.381 61.8529 122.717 64.6004C118.18 66.1705 117.946 69.389 117.946 69.389Z" fill="#FF7900"/>
</svg>
