<svg width="166" height="188" viewBox="0 0 166 188" fill="none" xmlns="http://www.w3.org/2000/svg">
<path d="M42.1 151.2C42.1 151.2 43.4 161 28.6 163.1C13.8 165.2 3.49999 156.2 1.19999 143.1C-8.43406e-06 136.3 2.69999 125.5 9.39999 117.4C16.1 109.3 10.8 94.2 10.8 94.2C10.8 94.2 21.3 102.3 18.2 114.2C15 126.1 21 127.6 24.2 126.9C27.4 126.2 30.2 120.6 26.7 112.1C23.2 103.7 17.9 101.7 20 92.2C22.1 82.7 28.8 84.2 27.7 73.8C26.9 65.9 21.7 61.9 21.7 61.9C21.7 61.9 33.3 63.3 34 74.6C34.7 85.8 27.7 87.8 31.5 97.1C34.8 105 45.2 102 46.3 96.4C47.7 89.1 44.5 83.4 44.5 83.4C44.5 83.4 53.6 88.3 51.5 99.9C49.4 111.5 46.4 119.8 53.6 120.6C61.9 121.6 64.5 111.1 62.7 101.6C60.9 92.1 55 87.5 56 79.5C57.1 71.4 62.7 66.5 57.8 53.1C57.8 53.1 65.2 55.2 65.2 66.8C65.2 78.4 65.9 81.2 71.2 81.2C76.5 81.2 80 76.3 78.9 69.3C77.8 62.3 65.2 51 66.2 35.2C67.3 19.4 75.3 17.3 73.9 0.400002C73.9 0.400002 80.1 5.9 79 14.1C77.9 22.4 70.8 40.6 80.7 43.3C89.1 45.6 89.7 34.7 85.8 27.1C83.6 22.8 85 14.1 88 12C88 12 86.5 20.8 89.6 25C92.8 29.2 98 32.7 97 43.3C95.9 53.8 84.7 71.8 87.9 85.8C91.1 99.9 98.8 101.6 103.7 99.5C108.6 97.4 107.2 88.6 105.1 84C105.1 84 111.8 87.2 111.1 98.4C110.4 109.6 110 116 118.5 117C126.9 118.1 130.4 108.6 128.7 100.8C126.9 93.1 119.6 85 127.3 67.8C127.3 67.8 126.2 89.6 135.7 85.7C145.2 81.8 135.7 60.4 135.7 60.4C135.7 60.4 151.2 70.6 146.6 90.1C142 109.6 135.7 123.7 144.5 131.4C153.3 139.1 161.4 124 158.9 116.3C158.9 116.3 172.1 134.2 159.3 151.4C146.6 168.6 114.2 168.3 117.7 150.3C117.7 150.3 113.1 152.1 111.7 158.7C110.3 165.4 95.9 162.9 99.4 154.1C99.4 154.1 94.1 156.2 93.8 161.1C93.4 166 81.1 160.7 85.4 150.6C85.4 150.6 83.3 151 80.7 154.5C78.1 158 68.2 153.4 71.4 135.9C71.4 135.9 67.2 139.9 67.5 153.2C67.9 166.1 51.7 167.1 48.2 157.3C46.2 151.5 42.1 151.2 42.1 151.2Z" fill="#FF7900"/>
<path d="M42.1 151.2C42.1 151.2 43.4 161 28.6 163.1C13.8 165.2 3.49999 156.2 1.19999 143.1C-8.43406e-06 136.3 2.69999 125.5 9.39999 117.4C16.1 109.3 10.8 94.2 10.8 94.2C10.8 94.2 21.3 102.3 18.2 114.2C15 126.1 21 127.6 24.2 126.9C27.4 126.2 30.2 120.6 26.7 112.1C23.2 103.7 17.9 101.7 20 92.2C22.1 82.7 28.8 84.2 27.7 73.8C26.9 65.9 21.7 61.9 21.7 61.9C21.7 61.9 33.3 63.3 34 74.6C34.7 85.8 27.7 87.8 31.5 97.1C34.8 105 45.2 102 46.3 96.4C47.7 89.1 44.5 83.4 44.5 83.4C44.5 83.4 53.6 88.3 51.5 99.9C49.4 111.5 46.4 119.8 53.6 120.6C61.9 121.6 64.5 111.1 62.7 101.6C60.9 92.1 55 87.5 56 79.5C57.1 71.4 62.7 66.5 57.8 53.1C57.8 53.1 65.2 55.2 65.2 66.8C65.2 78.4 65.9 81.2 71.2 81.2C76.5 81.2 80 76.3 78.9 69.3C77.8 62.3 65.2 51 66.2 35.2C67.3 19.4 75.3 17.3 73.9 0.400002C73.9 0.400002 80.1 5.9 79 14.1C77.9 22.4 70.8 40.6 80.7 43.3C89.1 45.6 89.7 34.7 85.8 27.1C83.6 22.8 85 14.1 88 12C88 12 86.5 20.8 89.6 25C92.8 29.2 98 32.7 97 43.3C95.9 53.8 84.7 71.8 87.9 85.8C91.1 99.9 98.8 101.6 103.7 99.5C108.6 97.4 107.2 88.6 105.1 84C105.1 84 111.8 87.2 111.1 98.4C110.4 109.6 110 116 118.5 117C126.9 118.1 130.4 108.6 128.7 100.8C126.9 93.1 119.6 85 127.3 67.8C127.3 67.8 126.2 89.6 135.7 85.7C145.2 81.8 135.7 60.4 135.7 60.4C135.7 60.4 151.2 70.6 146.6 90.1C142 109.6 135.7 123.7 144.5 131.4C153.3 139.1 161.4 124 158.9 116.3C158.9 116.3 172.1 134.2 159.3 151.4C146.6 168.6 114.2 168.3 117.7 150.3C117.7 150.3 113.1 152.1 111.7 158.7C110.3 165.4 95.9 162.9 99.4 154.1C99.4 154.1 94.1 156.2 93.8 161.1C93.4 166 81.1 160.7 85.4 150.6C85.4 150.6 83.3 151 80.7 154.5C78.1 158 68.2 153.4 71.4 135.9C71.4 135.9 67.2 139.9 67.5 153.2C67.9 166.1 51.7 167.1 48.2 157.3C46.2 151.5 42.1 151.2 42.1 151.2Z" stroke="black" stroke-width="0.291" stroke-miterlimit="10" stroke-linejoin="bevel"/>
<path d="M60.8 182.6C60.8 186.4 58.3 187.4 53.7 187.4C46.1 187.4 46.1 183.2 46.1 181.7H49.5C49.5 184 51.5 184.4 53.5 184.4C56 184.4 57.1 183.8 57.1 182.6C57.1 181.6 56 181.4 53 180.9C48.4 180.2 46.3 179.3 46.3 176.4C46.3 174.2 47.9 171.7 52.9 171.7C58.9 171.7 60.1 175 60.1 177.4H56.6C56.6 176.3 56.1 174.7 52.9 174.7C50.3 174.7 49.7 175.6 49.7 176.4C49.7 177.2 50.6 177.5 53.2 177.9C56.9 178.7 60.8 179.2 60.8 182.6Z" fill="black"/>
<path d="M79.3 187.4H75.8L74.9 184.9H67L66.1 187.4H62.6L68.1 172H73.7L79.3 187.4ZM73.8 181.8L71.4 175H70.6L68.2 181.8H73.8Z" fill="black"/>
<path d="M85.6 184.4H94.9V187.4H82.3V172H85.6V184.4Z" fill="black"/>
<path d="M110.9 172V175.1H101.6V178.2H110.9V181.2H101.6V184.4H110.9V187.4H101.6H98.2V172H110.9Z" fill="black"/>
<path d="M114.3 171.5H117.6V183.1H114.3V171.5ZM114.3 184.4H117.6V187.5H114.3V184.4Z" fill="black"/>
<path d="M103.5 109.2H62.9V148H103.5V109.2Z" fill="#D10613"/>
<path d="M103.5 109.2H62.9V148H103.5V109.2Z" stroke="black" stroke-width="0.291" stroke-miterlimit="10" stroke-linejoin="bevel"/>
<path d="M82.8 148V46L66.8 101.6L82.8 148Z" fill="#D10613"/>
<path d="M82.8 148V46L66.8 101.6L82.8 148Z" stroke="black" stroke-width="0.291" stroke-miterlimit="10" stroke-linejoin="bevel"/>
<path d="M66.8 101.6L82.8 91.3" stroke="black" stroke-width="0.291" stroke-miterlimit="10" stroke-linejoin="bevel"/>
<path d="M82.8 148V46L98.8 101.6L82.8 148Z" fill="#D10613"/>
<path d="M82.8 148V46L98.8 101.6L82.8 148Z" stroke="black" stroke-width="0.291" stroke-miterlimit="10" stroke-linejoin="bevel"/>
<path d="M98.8 101.6L82.8 91.3" stroke="black" stroke-width="0.291" stroke-miterlimit="10" stroke-linejoin="bevel"/>
<path d="M82.8 148L11.8 89.6L41.4 132.6L82.8 148Z" fill="#D10613"/>
<path d="M82.8 148L11.8 89.6L41.4 132.6L82.8 148Z" stroke="black" stroke-width="0.291" stroke-miterlimit="10" stroke-linejoin="bevel"/>
<path d="M41.4 132.6L43.4 115.6" stroke="black" stroke-width="0.291" stroke-miterlimit="10" stroke-linejoin="bevel"/>
<path d="M82.8 148L11.8 89.6L59.7 110.3L82.8 148Z" fill="#D10613"/>
<path d="M82.8 148L11.8 89.6L59.7 110.3L82.8 148Z" stroke="black" stroke-width="0.291" stroke-miterlimit="10" stroke-linejoin="bevel"/>
<path d="M59.7 110.3L43.4 115.6" stroke="black" stroke-width="0.291" stroke-miterlimit="10" stroke-linejoin="bevel"/>
<path d="M82.8 148L19 146.4L53.5 157.2L82.8 148Z" fill="#D10613"/>
<path d="M82.8 148L19 146.4L53.5 157.2L82.8 148Z" stroke="black" stroke-width="0.291" stroke-miterlimit="10" stroke-linejoin="bevel"/>
<path d="M53.5 157.2L47.3 147.1" stroke="black" stroke-width="0.291" stroke-miterlimit="10" stroke-linejoin="bevel"/>
<path d="M82.8 148L19 146.4L54 137.3L82.8 148Z" fill="#D10613"/>
<path d="M82.8 148L19 146.4L54 137.3L82.8 148Z" stroke="black" stroke-width="0.291" stroke-miterlimit="10" stroke-linejoin="bevel"/>
<path d="M54 137.3L47.3 147.1" stroke="black" stroke-width="0.291" stroke-miterlimit="10" stroke-linejoin="bevel"/>
<path d="M83.2 148L154.2 89.6L124.6 132.6L83.2 148Z" fill="#D10613"/>
<path d="M83.2 148L154.2 89.6L124.6 132.6L83.2 148Z" stroke="black" stroke-width="0.291" stroke-miterlimit="10" stroke-linejoin="bevel"/>
<path d="M124.6 132.6L122.6 115.6" stroke="black" stroke-width="0.291" stroke-miterlimit="10" stroke-linejoin="bevel"/>
<path d="M83.2 148L154.2 89.6L106.3 110.3L83.2 148Z" fill="#D10613"/>
<path d="M83.2 148L154.2 89.6L106.3 110.3L83.2 148Z" stroke="black" stroke-width="0.291" stroke-miterlimit="10" stroke-linejoin="bevel"/>
<path d="M106.3 110.3L122.6 115.6" stroke="black" stroke-width="0.291" stroke-miterlimit="10" stroke-linejoin="bevel"/>
<path d="M83.2 148L147 146.4L112.5 157.2L83.2 148Z" fill="#D10613"/>
<path d="M83.2 148L147 146.4L112.5 157.2L83.2 148Z" stroke="black" stroke-width="0.291" stroke-miterlimit="10" stroke-linejoin="bevel"/>
<path d="M112.5 157.2L118.7 147.1" stroke="black" stroke-width="0.291" stroke-miterlimit="10" stroke-linejoin="bevel"/>
<path d="M83.2 148L147 146.4L112 137.3L83.2 148Z" fill="#D10613"/>
<path d="M83.2 148L147 146.4L112 137.3L83.2 148Z" stroke="black" stroke-width="0.291" stroke-miterlimit="10" stroke-linejoin="bevel"/>
<path d="M112 137.3L118.7 147.1" stroke="black" stroke-width="0.291" stroke-miterlimit="10" stroke-linejoin="bevel"/>
<path d="M94.7 135.8C91.8 139 87.6 140.5 82.9 140.5C78.2 140.5 74 139 71.1 135.8C71 136.5 70.9 137.2 70.9 137.9C70.9 144.5 76.3 149.9 82.9 149.9C89.5 149.9 94.9 144.5 94.9 137.9C94.9 137.2 94.8 136.5 94.7 135.8Z" fill="black"/>
<path d="M94.7 135.8C91.8 139 87.6 140.5 82.9 140.5C78.2 140.5 74 139 71.1 135.8C71 136.5 70.9 137.2 70.9 137.9C70.9 144.5 76.3 149.9 82.9 149.9C89.5 149.9 94.9 144.5 94.9 137.9C94.9 137.2 94.8 136.5 94.7 135.8Z" stroke="black" stroke-width="0.291" stroke-miterlimit="10" stroke-linejoin="bevel"/>
<path d="M71.9 108C70.4 107.4 68.8 107 67.1 107C60.4 107 55 112.4 55 119.1C55 125.8 60.4 131.2 67.1 131.2C73.2 131.2 78.2 126.8 79.1 121C79.2 120.4 79.2 119.8 79.2 119.1C79.1 114.2 76.2 109.9 71.9 108Z" fill="white"/>
<path d="M71.9 108C70.4 107.4 68.8 107 67.1 107C60.4 107 55 112.4 55 119.1C55 125.8 60.4 131.2 67.1 131.2C73.2 131.2 78.2 126.8 79.1 121C79.2 120.4 79.2 119.8 79.2 119.1C79.1 114.2 76.2 109.9 71.9 108Z" stroke="black" stroke-width="0.291" stroke-miterlimit="10" stroke-linejoin="bevel"/>
<path d="M86.9 119.1C86.9 125.8 92.3 131.2 99 131.2C105.7 131.2 111.1 125.8 111.1 119.1C111.1 112.4 105.7 107 99 107C92.3 107 86.9 112.4 86.9 119.1Z" fill="#4D8054"/>
<path d="M86.9 119.1C86.9 125.8 92.3 131.2 99 131.2C105.7 131.2 111.1 125.8 111.1 119.1C111.1 112.4 105.7 107 99 107C92.3 107 86.9 112.4 86.9 119.1Z" stroke="black" stroke-width="0.291" stroke-miterlimit="10" stroke-linejoin="bevel"/>
<path d="M103.8 108C102.3 107.4 100.7 107 99 107C92.3 107 86.9 112.4 86.9 119.1C86.9 125.8 92.3 131.2 99 131.2C105.1 131.2 110.1 126.8 111 121C111.1 120.4 111.1 119.8 111.1 119.1C111.1 114.2 108.1 109.9 103.8 108Z" fill="white"/>
<path d="M103.8 108C102.3 107.4 100.7 107 99 107C92.3 107 86.9 112.4 86.9 119.1C86.9 125.8 92.3 131.2 99 131.2C105.1 131.2 110.1 126.8 111 121C111.1 120.4 111.1 119.8 111.1 119.1C111.1 114.2 108.1 109.9 103.8 108Z" stroke="black" stroke-width="0.291" stroke-miterlimit="10" stroke-linejoin="bevel"/>
<path d="M100.8 112C100.2 111.8 99.6 111.6 99 111.6C96.5 111.6 94.5 113.6 94.5 116.1C94.5 118.6 96.5 120.6 99 120.6C101.3 120.6 103.1 118.9 103.5 116.8C103.5 116.6 103.6 116.3 103.6 116.1C103.5 114.3 102.4 112.7 100.8 112Z" fill="#FF7900"/>
<path d="M100.8 112C100.2 111.8 99.6 111.6 99 111.6C96.5 111.6 94.5 113.6 94.5 116.1C94.5 118.6 96.5 120.6 99 120.6C101.3 120.6 103.1 118.9 103.5 116.8C103.5 116.6 103.6 116.3 103.6 116.1C103.5 114.3 102.4 112.7 100.8 112Z" stroke="black" stroke-width="0.291" stroke-miterlimit="10" stroke-linejoin="bevel"/>
<path d="M68.7 112C68.1 111.8 67.5 111.6 66.9 111.6C64.4 111.6 62.4 113.6 62.4 116.1C62.4 118.6 64.4 120.6 66.9 120.6C69.2 120.6 71 118.9 71.4 116.8C71.4 116.6 71.5 116.3 71.5 116.1C71.4 114.3 70.3 112.7 68.7 112Z" fill="#FF7900"/>
<path d="M68.7 112C68.1 111.8 67.5 111.6 66.9 111.6C64.4 111.6 62.4 113.6 62.4 116.1C62.4 118.6 64.4 120.6 66.9 120.6C69.2 120.6 71 118.9 71.4 116.8C71.4 116.6 71.5 116.3 71.5 116.1C71.4 114.3 70.3 112.7 68.7 112Z" stroke="black" stroke-width="0.291" stroke-miterlimit="10" stroke-linejoin="bevel"/>
<path d="M64.8 115.8C64.8 114.7 65.7 113.8 66.8 113.8C67.9 113.8 68.8 114.7 68.8 115.8C68.8 116.9 67.9 117.8 66.8 117.8C65.7 117.8 64.8 116.9 64.8 115.8Z" fill="black"/>
<path d="M66.8 117.8C67.9046 117.8 68.8 116.905 68.8 115.8C68.8 114.695 67.9046 113.8 66.8 113.8C65.6954 113.8 64.8 114.695 64.8 115.8C64.8 116.905 65.6954 117.8 66.8 117.8Z" stroke="black" stroke-width="0.291" stroke-miterlimit="10" stroke-linejoin="bevel"/>
<path d="M96.9 115.8C96.9 114.7 97.8 113.8 98.9 113.8C100 113.8 100.9 114.7 100.9 115.8C100.9 116.9 100 117.8 98.9 117.8C97.9 117.8 96.9 116.9 96.9 115.8Z" fill="black"/>
<path d="M96.9 115.8C96.9 114.7 97.8 113.8 98.9 113.8C100 113.8 100.9 114.7 100.9 115.8C100.9 116.9 100 117.8 98.9 117.8C97.9 117.8 96.9 116.9 96.9 115.8Z" stroke="black" stroke-width="0.291" stroke-miterlimit="10" stroke-linejoin="bevel"/>
<path d="M77 126.1C75.7 127.9 74 129.4 71.9 130.3C70.4 130.9 68.8 131.3 67.1 131.3C63 131.3 59.4 129.2 57.2 126.1C59.4 124.1 63 122.8 67.1 122.8C71.1 122.7 74.8 124 77 126.1Z" fill="#D10613"/>
<path d="M77 126.1C75.7 127.9 74 129.4 71.9 130.3C70.4 130.9 68.8 131.3 67.1 131.3C63 131.3 59.4 129.2 57.2 126.1C59.4 124.1 63 122.8 67.1 122.8C71.1 122.7 74.8 124 77 126.1Z" stroke="black" stroke-width="0.291" stroke-miterlimit="10" stroke-linejoin="bevel"/>
<path d="M108.9 126.1C107.6 127.9 105.9 129.4 103.8 130.3C102.3 130.9 100.7 131.3 99 131.3C94.9 131.3 91.3 129.2 89.1 126.1C91.3 124.1 94.9 122.8 99 122.8C103.1 122.7 106.7 124 108.9 126.1Z" fill="#D10613"/>
<path d="M108.9 126.1C107.6 127.9 105.9 129.4 103.8 130.3C102.3 130.9 100.7 131.3 99 131.3C94.9 131.3 91.3 129.2 89.1 126.1C91.3 124.1 94.9 122.8 99 122.8C103.1 122.7 106.7 124 108.9 126.1Z" stroke="black" stroke-width="0.291" stroke-miterlimit="10" stroke-linejoin="bevel"/>
<path d="M114.5 51.2C114.5 51.2 104.5 55.4 104.5 63.7C104.5 72 112.9 70.3 114.5 78.2C114.5 78.2 116.6 72.1 112.8 66.2C109 60.3 114.5 51.2 114.5 51.2Z" fill="#FF7900"/>
<path d="M114.5 51.2C114.5 51.2 104.5 55.4 104.5 63.7C104.5 72 112.9 70.3 114.5 78.2C114.5 78.2 116.6 72.1 112.8 66.2C109 60.3 114.5 51.2 114.5 51.2Z" stroke="black" stroke-width="0.291" stroke-miterlimit="10" stroke-linejoin="bevel"/>
<path d="M42.5 66.7C42.5 66.7 52.1 59.6 48.4 48.4C46.1 41.4 39.1 41.9 33.7 33.4C33.7 33.4 31.4 43 37.6 49.3C45.2 57.2 42.5 66.7 42.5 66.7Z" fill="#FF7900"/>
<path d="M42.5 66.7C42.5 66.7 52.1 59.6 48.4 48.4C46.1 41.4 39.1 41.9 33.7 33.4C33.7 33.4 31.4 43 37.6 49.3C45.2 57.2 42.5 66.7 42.5 66.7Z" stroke="black" stroke-width="0.291" stroke-miterlimit="10" stroke-linejoin="bevel"/>
</svg>
