<svg width="131" height="131" viewBox="0 0 131 131" fill="none" xmlns="http://www.w3.org/2000/svg">
<path d="M33.4948 120.517C33.4948 120.517 34.5207 128.284 22.8412 129.948C11.1616 131.613 3.03331 124.48 1.21825 114.097C0.271262 108.708 2.40198 100.148 7.68933 93.7287C12.9767 87.309 8.79416 75.3415 8.79416 75.3415C8.79416 75.3415 17.0803 81.7612 14.6339 91.1926C12.1086 100.624 16.8436 101.813 19.3689 101.258C21.8942 100.703 24.1038 96.2649 21.3418 89.5282C18.5797 82.8707 14.3972 81.2856 16.0544 73.7564C17.7116 66.2271 22.999 67.416 22.1309 59.1734C21.4996 52.9122 17.396 49.742 17.396 49.742C17.396 49.742 26.5502 50.8516 27.1026 59.8074C27.655 68.684 22.1309 70.2691 25.1297 77.6399C27.7339 83.9011 35.9412 81.5234 36.8092 77.0851C37.914 71.2995 35.3887 66.7819 35.3887 66.7819C35.3887 66.7819 42.5701 70.6654 40.9128 79.859C39.2556 89.0527 36.8881 95.6309 42.5701 96.2649C49.1201 97.0574 51.1719 88.7356 49.7514 81.2064C48.3309 73.6771 43.6749 70.0314 44.464 63.691C45.3321 57.2713 49.7514 53.3878 45.8845 42.7676C45.8845 42.7676 51.7243 44.4319 51.7243 53.6255C51.7243 62.8191 52.2767 65.0383 56.4592 65.0383C60.6418 65.0383 63.4038 61.1548 62.5357 55.6069C61.6677 50.059 51.7243 41.1032 52.5134 28.5809C53.3815 16.0585 59.6948 14.3941 58.59 1C58.59 1 63.4827 5.35904 62.6147 11.858C61.7466 18.4362 56.1436 32.8606 63.9562 35.0005C70.5851 36.8234 71.0586 28.1846 67.9809 22.1612C66.2448 18.7532 67.3496 11.858 69.7171 10.1936C69.7171 10.1936 68.5333 17.1681 70.9797 20.4968C73.505 23.8255 77.6086 26.5995 76.8195 35.0005C75.9514 43.3223 67.1128 57.5883 69.6381 68.684C72.1634 79.859 78.24 81.2064 82.1068 79.542C85.9737 77.8777 84.8689 70.9032 83.2116 67.2574C83.2116 67.2574 88.499 69.7936 87.9466 78.6702C87.3942 87.5468 87.0785 92.6191 93.7863 93.4117C100.415 94.2835 103.177 86.7543 101.836 80.5723C100.415 74.4697 94.6544 68.05 100.731 54.4181C100.731 54.4181 99.8628 71.6957 107.36 68.6048C114.857 65.5138 107.36 48.5532 107.36 48.5532C107.36 48.5532 119.592 56.6372 115.962 72.092C112.332 87.5468 107.36 98.7218 114.304 104.824C121.249 110.927 127.641 98.9596 125.668 92.8569C125.668 92.8569 136.085 107.044 125.984 120.676C115.962 134.307 90.393 134.07 93.155 119.804C93.155 119.804 89.5249 121.23 88.4201 126.461C87.3153 131.771 75.9514 129.79 78.7134 122.815C78.7134 122.815 74.5309 124.48 74.2942 128.363C73.9785 132.247 64.2719 128.046 67.6653 120.041C67.6653 120.041 66.008 120.359 63.9562 123.132C61.9044 125.906 54.0918 122.261 56.6171 108.391C56.6171 108.391 53.3026 111.561 53.5393 122.102C53.855 132.326 41.0707 133.119 38.3086 125.352C36.7303 120.755 33.4948 120.517 33.4948 120.517Z" fill="#FF7900"/>
<path d="M33.4948 120.517C33.4948 120.517 34.5207 128.284 22.8412 129.948C11.1616 131.613 3.03331 124.48 1.21825 114.097C0.271262 108.708 2.40198 100.148 7.68933 93.7287C12.9767 87.309 8.79416 75.3415 8.79416 75.3415C8.79416 75.3415 17.0803 81.7612 14.6339 91.1925C12.1086 100.624 16.8436 101.813 19.3689 101.258C21.8942 100.703 24.1038 96.2649 21.3418 89.5282C18.5797 82.8707 14.3972 81.2856 16.0544 73.7564C17.7116 66.2271 22.999 67.416 22.1309 59.1734C21.4996 52.9122 17.396 49.742 17.396 49.742C17.396 49.742 26.5502 50.8516 27.1026 59.8074C27.655 68.684 22.1309 70.2691 25.1297 77.6399C27.7339 83.9011 35.9412 81.5234 36.8092 77.0851C37.914 71.2995 35.3887 66.7819 35.3887 66.7819C35.3887 66.7819 42.5701 70.6654 40.9128 79.859C39.2556 89.0527 36.8881 95.6308 42.5701 96.2649C49.1201 97.0574 51.1719 88.7356 49.7514 81.2064C48.3309 73.6771 43.6749 70.0314 44.464 63.691C45.3321 57.2713 49.7514 53.3878 45.8845 42.7676C45.8845 42.7676 51.7243 44.4319 51.7243 53.6255C51.7243 62.8192 52.2767 65.0383 56.4592 65.0383C60.6418 65.0383 63.4038 61.1548 62.5357 55.6069C61.6677 50.059 51.7243 41.1032 52.5134 28.5809C53.3815 16.0585 59.6948 14.3941 58.59 1C58.59 1 63.4827 5.35904 62.6146 11.858C61.7466 18.4362 56.1436 32.8606 63.9562 35.0005C70.5851 36.8234 71.0586 28.1846 67.9809 22.1612C66.2448 18.7532 67.3496 11.858 69.7171 10.1936C69.7171 10.1936 68.5333 17.1681 70.9797 20.4968C73.505 23.8255 77.6086 26.5995 76.8195 35.0005C75.9514 43.3223 67.1128 57.5883 69.6381 68.684C72.1634 79.859 78.24 81.2064 82.1068 79.542C85.9737 77.8777 84.8689 70.9032 83.2116 67.2574C83.2116 67.2574 88.499 69.7936 87.9466 78.6702C87.3942 87.5468 87.0785 92.6191 93.7863 93.4117C100.415 94.2835 103.177 86.7543 101.836 80.5723C100.415 74.4697 94.6544 68.05 100.731 54.4181C100.731 54.4181 99.8628 71.6957 107.36 68.6048C114.857 65.5138 107.36 48.5532 107.36 48.5532C107.36 48.5532 119.592 56.6372 115.962 72.092C112.332 87.5468 107.36 98.7218 114.304 104.824C121.249 110.927 127.641 98.9596 125.668 92.8569C125.668 92.8569 136.085 107.044 125.984 120.676C115.962 134.307 90.393 134.07 93.155 119.804C93.155 119.804 89.5249 121.23 88.4201 126.461C87.3153 131.771 75.9514 129.79 78.7134 122.815C78.7134 122.815 74.5309 124.48 74.2942 128.363C73.9785 132.247 64.2719 128.046 67.6653 120.041C67.6653 120.041 66.008 120.359 63.9562 123.132C61.9044 125.906 54.0918 122.261 56.6171 108.391C56.6171 108.391 53.3026 111.561 53.5393 122.102C53.855 132.326 41.0707 133.119 38.3086 125.352C36.7303 120.755 33.4948 120.517 33.4948 120.517Z" stroke="black" stroke-width="0.291" stroke-miterlimit="10" stroke-linejoin="bevel"/>
<path d="M81.949 87.2297H49.9092V117.981H81.949V87.2297Z" fill="#D10613"/>
<path d="M81.949 87.2297H49.9092V117.981H81.949V87.2297Z" stroke="black" stroke-width="0.291" stroke-miterlimit="10" stroke-linejoin="bevel"/>
<path d="M65.6134 117.981V37.1404L52.9869 81.2063L65.6134 117.981Z" fill="#D10613"/>
<path d="M65.6134 117.981V37.1404L52.9869 81.2063L65.6134 117.981Z" stroke="black" stroke-width="0.291" stroke-miterlimit="10" stroke-linejoin="bevel"/>
<path d="M52.9869 81.2063L65.6134 73.043" stroke="black" stroke-width="0.291" stroke-miterlimit="10" stroke-linejoin="bevel"/>
<path d="M65.6134 117.981V37.1404L78.2399 81.2063L65.6134 117.981Z" fill="#D10613"/>
<path d="M65.6134 117.981V37.1404L78.2399 81.2063L65.6134 117.981Z" stroke="black" stroke-width="0.291" stroke-miterlimit="10" stroke-linejoin="bevel"/>
<path d="M78.2399 81.2063L65.6134 73.043" stroke="black" stroke-width="0.291" stroke-miterlimit="10" stroke-linejoin="bevel"/>
<path d="M65.6134 117.981L9.58331 71.6956L32.9423 105.775L65.6134 117.981Z" fill="#D10613"/>
<path d="M65.6134 117.981L9.58331 71.6956L32.9423 105.775L65.6134 117.981Z" stroke="black" stroke-width="0.291" stroke-miterlimit="10" stroke-linejoin="bevel"/>
<path d="M32.9424 105.775L34.5207 92.302" stroke="black" stroke-width="0.291" stroke-miterlimit="10" stroke-linejoin="bevel"/>
<path d="M65.6134 117.981L9.58331 71.6956L47.3839 88.1014L65.6134 117.981Z" fill="#D10613"/>
<path d="M65.6134 117.981L9.58331 71.6956L47.3839 88.1014L65.6134 117.981Z" stroke="black" stroke-width="0.291" stroke-miterlimit="10" stroke-linejoin="bevel"/>
<path d="M47.3839 88.1014L34.5207 92.302" stroke="black" stroke-width="0.291" stroke-miterlimit="10" stroke-linejoin="bevel"/>
<path d="M65.6135 117.981L15.2653 116.713L42.4912 125.272L65.6135 117.981Z" fill="#D10613"/>
<path d="M65.6135 117.981L15.2653 116.713L42.4912 125.272L65.6135 117.981Z" stroke="black" stroke-width="0.291" stroke-miterlimit="10" stroke-linejoin="bevel"/>
<path d="M42.4912 125.272L37.5984 117.267" stroke="black" stroke-width="0.291" stroke-miterlimit="10" stroke-linejoin="bevel"/>
<path d="M65.6135 117.981L15.2653 116.713L42.8857 109.5L65.6135 117.981Z" fill="#D10613"/>
<path d="M65.6135 117.981L15.2653 116.713L42.8857 109.5L65.6135 117.981Z" stroke="black" stroke-width="0.291" stroke-miterlimit="10" stroke-linejoin="bevel"/>
<path d="M42.8857 109.5L37.5984 117.267" stroke="black" stroke-width="0.291" stroke-miterlimit="10" stroke-linejoin="bevel"/>
<path d="M65.9291 117.981L121.959 71.6956L98.6002 105.775L65.9291 117.981Z" fill="#D10613"/>
<path d="M65.9291 117.981L121.959 71.6956L98.6002 105.775L65.9291 117.981Z" stroke="black" stroke-width="0.291" stroke-miterlimit="10" stroke-linejoin="bevel"/>
<path d="M98.6002 105.775L97.0219 92.302" stroke="black" stroke-width="0.291" stroke-miterlimit="10" stroke-linejoin="bevel"/>
<path d="M65.9291 117.981L121.959 71.6956L84.1586 88.1014L65.9291 117.981Z" fill="#D10613"/>
<path d="M65.9291 117.981L121.959 71.6956L84.1586 88.1014L65.9291 117.981Z" stroke="black" stroke-width="0.291" stroke-miterlimit="10" stroke-linejoin="bevel"/>
<path d="M84.1586 88.1014L97.0219 92.302" stroke="black" stroke-width="0.291" stroke-miterlimit="10" stroke-linejoin="bevel"/>
<path d="M65.9291 117.981L116.277 116.713L89.0514 125.272L65.9291 117.981Z" fill="#D10613"/>
<path d="M65.9291 117.981L116.277 116.713L89.0514 125.272L65.9291 117.981Z" stroke="black" stroke-width="0.291" stroke-miterlimit="10" stroke-linejoin="bevel"/>
<path d="M89.0514 125.272L93.9442 117.267" stroke="black" stroke-width="0.291" stroke-miterlimit="10" stroke-linejoin="bevel"/>
<path d="M65.9291 117.981L116.277 116.713L88.6568 109.5L65.9291 117.981Z" fill="#D10613"/>
<path d="M65.9291 117.981L116.277 116.713L88.6568 109.5L65.9291 117.981Z" stroke="black" stroke-width="0.291" stroke-miterlimit="10" stroke-linejoin="bevel"/>
<path d="M88.6568 109.5L93.9442 117.267" stroke="black" stroke-width="0.291" stroke-miterlimit="10" stroke-linejoin="bevel"/>
<path d="M75.0044 108.312C72.7158 110.848 69.4014 112.037 65.6923 112.037C61.9833 112.037 58.6689 110.848 56.3803 108.312C56.3014 108.866 56.2225 109.421 56.2225 109.976C56.2225 115.207 60.4839 119.487 65.6923 119.487C70.9008 119.487 75.1622 115.207 75.1622 109.976C75.1622 109.421 75.0833 108.866 75.0044 108.312Z" fill="black"/>
<path d="M75.0044 108.312C72.7158 110.848 69.4014 112.037 65.6923 112.037C61.9833 112.037 58.6689 110.848 56.3803 108.312C56.3014 108.866 56.2225 109.421 56.2225 109.976C56.2225 115.207 60.4839 119.487 65.6923 119.487C70.9008 119.487 75.1622 115.207 75.1622 109.976C75.1622 109.421 75.0833 108.866 75.0044 108.312Z" stroke="black" stroke-width="0.291" stroke-miterlimit="10" stroke-linejoin="bevel"/>
<path d="M57.0116 86.2786C55.8279 85.8031 54.5653 85.4861 53.2237 85.4861C47.9363 85.4861 43.6749 89.7659 43.6749 95.076C43.6749 100.386 47.9363 104.666 53.2237 104.666C58.0375 104.666 61.9833 101.179 62.6936 96.5818C62.7725 96.1063 62.7725 95.6308 62.7725 95.076C62.6936 91.1925 60.405 87.7845 57.0116 86.2786Z" fill="white"/>
<path d="M57.0116 86.2786C55.8279 85.8031 54.5653 85.4861 53.2237 85.4861C47.9363 85.4861 43.6749 89.7659 43.6749 95.076C43.6749 100.386 47.9363 104.666 53.2237 104.666C58.0375 104.666 61.9833 101.179 62.6936 96.5818C62.7725 96.1063 62.7725 95.6308 62.7725 95.076C62.6936 91.1925 60.405 87.7845 57.0116 86.2786Z" stroke="black" stroke-width="0.291" stroke-miterlimit="10" stroke-linejoin="bevel"/>
<path d="M68.849 95.076C68.849 100.386 73.1104 104.666 78.3978 104.666C83.6851 104.666 87.9466 100.386 87.9466 95.076C87.9466 89.7659 83.6851 85.4861 78.3978 85.4861C73.1104 85.4861 68.849 89.7659 68.849 95.076Z" fill="#4D8054"/>
<path d="M68.849 95.076C68.849 100.386 73.1104 104.666 78.3978 104.666C83.6851 104.666 87.9466 100.386 87.9466 95.076C87.9466 89.7659 83.6851 85.4861 78.3978 85.4861C73.1104 85.4861 68.849 89.7659 68.849 95.076Z" stroke="black" stroke-width="0.291" stroke-miterlimit="10" stroke-linejoin="bevel"/>
<path d="M82.1857 86.2786C81.002 85.8031 79.7393 85.4861 78.3978 85.4861C73.1104 85.4861 68.849 89.7659 68.849 95.076C68.849 100.386 73.1104 104.666 78.3978 104.666C83.2116 104.666 87.1574 101.179 87.8677 96.5818C87.9466 96.1063 87.9466 95.6308 87.9466 95.076C87.9466 91.1925 85.5791 87.7845 82.1857 86.2786Z" fill="white"/>
<path d="M82.1857 86.2786C81.002 85.8031 79.7393 85.4861 78.3978 85.4861C73.1104 85.4861 68.849 89.7659 68.849 95.076C68.849 100.386 73.1104 104.666 78.3978 104.666C83.2116 104.666 87.1574 101.179 87.8677 96.5818C87.9466 96.1063 87.9466 95.6308 87.9466 95.076C87.9466 91.1925 85.5791 87.7845 82.1857 86.2786Z" stroke="black" stroke-width="0.291" stroke-miterlimit="10" stroke-linejoin="bevel"/>
<path d="M79.8183 89.4489C79.3448 89.2903 78.8713 89.1318 78.3978 89.1318C76.4249 89.1318 74.8466 90.7169 74.8466 92.6983C74.8466 94.6797 76.4249 96.2648 78.3978 96.2648C80.2129 96.2648 81.6333 94.9175 81.949 93.2531C81.949 93.0946 82.0279 92.8568 82.0279 92.6983C81.949 91.2717 81.0809 90.0036 79.8183 89.4489Z" fill="#FF7900"/>
<path d="M79.8183 89.4489C79.3448 89.2903 78.8713 89.1318 78.3978 89.1318C76.4249 89.1318 74.8466 90.7169 74.8466 92.6983C74.8466 94.6797 76.4249 96.2648 78.3978 96.2648C80.2129 96.2648 81.6333 94.9175 81.949 93.2531C81.949 93.0946 82.0279 92.8568 82.0279 92.6983C81.949 91.2717 81.0809 90.0036 79.8183 89.4489Z" stroke="black" stroke-width="0.291" stroke-miterlimit="10" stroke-linejoin="bevel"/>
<path d="M54.4863 89.4489C54.0128 89.2903 53.5394 89.1318 53.0659 89.1318C51.093 89.1318 49.5146 90.7169 49.5146 92.6983C49.5146 94.6797 51.093 96.2648 53.0659 96.2648C54.8809 96.2648 56.3014 94.9175 56.6171 93.2531C56.6171 93.0946 56.696 92.8568 56.696 92.6983C56.6171 91.2717 55.749 90.0036 54.4863 89.4489Z" fill="#FF7900"/>
<path d="M54.4863 89.4489C54.0128 89.2903 53.5394 89.1318 53.0659 89.1318C51.093 89.1318 49.5146 90.7169 49.5146 92.6983C49.5146 94.6797 51.093 96.2648 53.0659 96.2648C54.8809 96.2648 56.3014 94.9175 56.6171 93.2531C56.6171 93.0946 56.696 92.8568 56.696 92.6983C56.6171 91.2717 55.749 90.0036 54.4863 89.4489Z" stroke="black" stroke-width="0.291" stroke-miterlimit="10" stroke-linejoin="bevel"/>
<path d="M51.4086 92.4605C51.4086 91.5887 52.1189 90.8754 52.9869 90.8754C53.855 90.8754 54.5653 91.5887 54.5653 92.4605C54.5653 93.3323 53.855 94.0456 52.9869 94.0456C52.1189 94.0456 51.4086 93.3323 51.4086 92.4605Z" fill="black"/>
<path d="M52.9869 94.0456C53.8586 94.0456 54.5653 93.3363 54.5653 92.4605C54.5653 91.5847 53.8586 90.8754 52.9869 90.8754C52.1152 90.8754 51.4086 91.5847 51.4086 92.4605C51.4086 93.3363 52.1152 94.0456 52.9869 94.0456Z" stroke="black" stroke-width="0.291" stroke-miterlimit="10" stroke-linejoin="bevel"/>
<path d="M76.7405 92.4605C76.7405 91.5887 77.4508 90.8754 78.3188 90.8754C79.1869 90.8754 79.8972 91.5887 79.8972 92.4605C79.8972 93.3323 79.1869 94.0456 78.3188 94.0456C77.5297 94.0456 76.7405 93.3323 76.7405 92.4605Z" fill="black"/>
<path d="M76.7405 92.4605C76.7405 91.5887 77.4508 90.8754 78.3188 90.8754C79.1869 90.8754 79.8972 91.5887 79.8972 92.4605C79.8972 93.3323 79.1869 94.0456 78.3188 94.0456C77.5297 94.0456 76.7405 93.3323 76.7405 92.4605Z" stroke="black" stroke-width="0.291" stroke-miterlimit="10" stroke-linejoin="bevel"/>
<path d="M61.0364 100.624C60.0104 102.05 58.6689 103.239 57.0117 103.953C55.8279 104.428 54.5653 104.745 53.2237 104.745C49.9882 104.745 47.1472 103.081 45.411 100.624C47.1472 99.0387 49.9882 98.0084 53.2237 98.0084C56.3803 97.9292 59.3002 98.9595 61.0364 100.624Z" fill="#D10613"/>
<path d="M61.0363 100.624C60.0104 102.05 58.6689 103.239 57.0117 103.953C55.8279 104.428 54.5653 104.745 53.2237 104.745C49.9882 104.745 47.1472 103.081 45.411 100.624C47.1472 99.0387 49.9882 98.0084 53.2237 98.0084C56.3803 97.9292 59.3002 98.9595 61.0363 100.624Z" stroke="black" stroke-width="0.291" stroke-miterlimit="10" stroke-linejoin="bevel"/>
<path d="M86.2104 100.624C85.1845 102.05 83.8429 103.239 82.1857 103.953C81.002 104.428 79.7393 104.745 78.3978 104.745C75.1622 104.745 72.3213 103.081 70.5851 100.624C72.3213 99.0387 75.1622 98.0084 78.3978 98.0084C81.6333 97.9292 84.4743 98.9595 86.2104 100.624Z" fill="#D10613"/>
<path d="M86.2104 100.624C85.1845 102.05 83.8429 103.239 82.1857 103.953C81.002 104.428 79.7393 104.745 78.3978 104.745C75.1622 104.745 72.3213 103.081 70.5851 100.624C72.3213 99.0387 75.1622 98.0084 78.3978 98.0084C81.6333 97.9292 84.4743 98.9595 86.2104 100.624Z" stroke="black" stroke-width="0.291" stroke-miterlimit="10" stroke-linejoin="bevel"/>
<path d="M90.6297 41.2615C90.6297 41.2615 82.7381 44.5902 82.7381 51.1684C82.7381 57.7466 89.367 56.3992 90.6297 62.6604C90.6297 62.6604 92.2869 57.8258 89.2881 53.1498C86.2893 48.4737 90.6297 41.2615 90.6297 41.2615Z" fill="#FF7900"/>
<path d="M90.6297 41.2615C90.6297 41.2615 82.7381 44.5902 82.7381 51.1684C82.7381 57.7466 89.367 56.3992 90.6297 62.6604C90.6297 62.6604 92.2869 57.8258 89.2881 53.1498C86.2893 48.4737 90.6297 41.2615 90.6297 41.2615Z" stroke="black" stroke-width="0.291" stroke-miterlimit="10" stroke-linejoin="bevel"/>
<path d="M33.8104 53.5461C33.8104 53.5461 41.3863 47.9189 38.4665 39.0424C36.6514 33.4945 31.1273 33.8908 26.8659 27.1541C26.8659 27.1541 25.0508 34.7626 29.9436 39.7556C35.9412 46.0168 33.8104 53.5461 33.8104 53.5461Z" fill="#FF7900"/>
<path d="M33.8104 53.5461C33.8104 53.5461 41.3863 47.9189 38.4665 39.0424C36.6514 33.4945 31.1273 33.8908 26.8659 27.1541C26.8659 27.1541 25.0508 34.7626 29.9436 39.7556C35.9412 46.0168 33.8104 53.5461 33.8104 53.5461Z" stroke="black" stroke-width="0.291" stroke-miterlimit="10" stroke-linejoin="bevel"/>
</svg>
