<svg width="279" height="279" viewBox="0 0 279 279" fill="none" xmlns="http://www.w3.org/2000/svg">
<g clip-path="url(#clip0_40_88)">
<path d="M266.846 112.665C264.27 111.433 261.967 109.697 260.073 107.56C258.179 105.422 256.732 102.927 255.819 100.221C254.906 97.5153 254.544 94.6538 254.756 91.8059C254.968 88.9579 255.748 86.1812 257.051 83.64C258.787 80.2565 259.589 76.4708 259.373 72.674C259.158 68.8771 257.933 65.2066 255.824 62.0414C253.716 58.8762 250.802 56.3311 247.381 54.6688C243.961 53.0064 240.159 52.2872 236.368 52.5852C235.809 52.5852 235.25 52.651 234.724 52.651C229.247 52.6452 223.98 50.5357 220.014 46.7583C216.047 42.9809 213.682 37.8241 213.408 32.3532C213.144 26.8579 210.77 21.6765 206.781 17.8878C202.791 14.0991 197.495 11.9953 191.993 12.0143C187.695 12.0225 183.501 13.3411 179.971 15.7945C176.423 18.2379 172.216 19.5448 167.908 19.5417C164.334 19.5461 160.816 18.654 157.677 16.947C154.537 15.24 151.876 12.7726 149.936 9.77087C147.875 6.57551 144.998 3.98818 141.603 2.27594C138.208 0.563707 134.417 -0.211392 130.623 0.030655C126.828 0.272702 123.166 1.52312 120.016 3.65285C116.866 5.78258 114.341 8.71443 112.703 12.1458C111.472 14.723 109.736 17.0271 107.599 18.9221C105.462 20.817 102.967 22.2642 100.261 23.1782C97.5555 24.0922 94.6938 24.4544 91.8456 24.2434C88.9973 24.0323 86.2203 23.2523 83.6786 21.9495C80.2958 20.2138 76.5112 19.4123 72.7152 19.6276C68.9192 19.8429 65.2495 21.0673 62.0847 23.1745C58.9198 25.2816 56.3746 28.1952 54.7117 31.6144C53.0488 35.0336 52.3284 38.8347 52.6248 42.6253C52.6248 43.1841 52.6905 43.743 52.6905 44.2689C52.6867 49.7494 50.5771 55.019 46.7979 58.988C43.0186 62.957 37.8588 65.322 32.3852 65.5939C26.8929 65.8603 21.7148 68.2341 17.9282 72.2213C14.1416 76.2086 12.0381 81.5022 12.0551 87.0011C12.0633 91.2997 13.3819 95.4937 15.8351 99.0236C17.4519 101.379 18.5797 104.035 19.152 106.834C19.7243 109.633 19.7295 112.519 19.1672 115.32C18.6048 118.121 17.4863 120.781 15.878 123.142C14.2696 125.504 12.204 127.519 9.80343 129.068C6.61053 131.13 4.02577 134.007 2.31561 137.402C0.605439 140.797 -0.168186 144.586 0.0746557 148.38C0.317498 152.173 1.56802 155.833 3.69709 158.982C5.82616 162.131 8.75669 164.655 12.1865 166.294C14.7629 167.526 17.0662 169.262 18.9602 171.399C20.8543 173.536 22.3006 176.032 23.2138 178.738C24.127 181.444 24.4884 184.305 24.2768 187.153C24.0652 190.001 23.2848 192.778 21.9818 195.319C20.2331 198.702 19.4202 202.491 19.6274 206.293C19.8346 210.096 21.0543 213.774 23.1602 216.947C25.2662 220.119 28.1819 222.672 31.6054 224.339C35.029 226.007 38.8359 226.729 42.6323 226.431C43.1911 226.39 43.7499 226.365 44.2758 226.365C49.7548 226.371 55.0221 228.482 58.9893 232.261C62.9564 236.04 65.3201 241.199 65.5919 246.671C65.8585 252.165 68.2333 257.345 72.2222 261.132C76.2111 264.919 81.5067 267.021 87.0068 267.002C91.3045 266.997 95.4985 265.681 99.0289 263.23C101.384 261.614 104.038 260.487 106.836 259.915C109.634 259.343 112.518 259.337 115.318 259.899C118.119 260.46 120.778 261.577 123.139 263.184C125.499 264.791 127.514 266.855 129.064 269.254C131.125 272.449 134.002 275.036 137.397 276.749C140.792 278.461 144.583 279.236 148.377 278.994C152.172 278.752 155.834 277.502 158.984 275.372C162.134 273.242 164.659 270.31 166.297 266.879C167.528 264.302 169.264 261.998 171.401 260.103C173.538 258.208 176.033 256.76 178.739 255.846C181.445 254.932 184.306 254.57 187.154 254.781C190.003 254.992 192.78 255.772 195.321 257.075C198.706 258.814 202.494 259.618 206.294 259.403C210.094 259.187 213.767 257.961 216.934 255.851C220.1 253.74 222.646 250.822 224.308 247.398C225.969 243.974 226.686 240.168 226.383 236.375C226.342 235.816 226.318 235.257 226.318 234.731C226.321 229.251 228.431 223.981 232.21 220.012C235.99 216.043 241.149 213.678 246.623 213.406C252.117 213.14 257.296 210.765 261.083 206.776C264.87 202.787 266.972 197.491 266.953 191.991C266.945 187.692 265.626 183.498 263.173 179.968C261.558 177.613 260.431 174.958 259.859 172.159C259.288 169.361 259.283 166.476 259.845 163.676C260.408 160.876 261.526 158.217 263.133 155.856C264.741 153.496 266.805 151.481 269.205 149.932C272.4 147.87 274.986 144.993 276.698 141.597C278.409 138.202 279.184 134.411 278.941 130.616C278.698 126.821 277.447 123.159 275.316 120.01C273.186 116.86 270.253 114.336 266.822 112.698L266.846 112.665ZM130.6 68.1742C138.933 62.8327 155.738 74.1896 168.138 93.5424C180.538 112.895 183.842 132.905 175.534 138.239C167.226 143.572 150.396 132.223 137.996 112.879C125.596 93.5341 122.268 73.5158 130.6 68.1742ZM78.4113 101.629C86.7438 96.2871 103.549 107.644 115.949 126.989C128.349 146.333 131.652 166.351 123.344 171.693C115.037 177.034 98.2072 165.678 85.807 146.325C73.4068 126.972 70.0788 106.97 78.4113 101.629ZM222.735 157.715C219.124 174.168 210.717 189.182 198.577 200.86C186.437 212.538 171.109 220.356 154.528 223.327C137.947 226.297 120.858 224.287 105.419 217.55C89.9804 210.812 76.8846 199.651 67.786 185.474L78.855 178.382C89.1669 194.471 105.447 205.805 124.115 209.889C142.783 213.974 162.309 210.475 178.397 200.163C194.486 189.851 205.819 173.57 209.904 154.902C213.988 136.233 210.49 116.707 200.178 100.618L211.247 93.5177C217.312 102.927 221.45 113.446 223.422 124.465C225.394 135.485 225.16 146.786 222.735 157.715Z" fill="#FF2B3C"/>
<path d="M175.509 138.239C167.177 143.58 150.372 132.223 137.972 112.879C125.571 93.5342 122.268 73.5158 130.576 68.1743C138.884 62.8327 155.713 74.1896 168.113 93.5424C180.514 112.895 183.842 132.905 175.509 138.239Z" fill="#FDF9EE"/>
<path d="M123.32 171.693C114.987 177.034 98.1825 165.678 85.7823 146.325C73.3822 126.972 70.0787 106.97 78.3866 101.629C86.6945 96.2871 103.524 107.644 115.924 126.989C128.324 146.333 131.652 166.351 123.32 171.693Z" fill="#FDF9EE"/>
<path d="M222.735 157.715C219.124 174.168 210.717 189.182 198.577 200.86C186.437 212.538 171.109 220.356 154.528 223.327C137.947 226.297 120.858 224.287 105.419 217.55C89.9804 210.812 76.8846 199.651 67.786 185.474L78.855 178.382C89.1668 194.471 105.447 205.804 124.115 209.889C142.783 213.974 162.309 210.475 178.397 200.163C194.486 189.851 205.819 173.57 209.904 154.902C213.988 136.233 210.49 116.707 200.178 100.618L211.247 93.5177C217.312 102.927 221.45 113.446 223.422 124.465C225.394 135.485 225.16 146.786 222.735 157.715Z" fill="#FDF9EE"/>
</g>
<defs>
<clipPath id="clip0_40_88">
<rect width="279" height="279" fill="white"/>
</clipPath>
</defs>
</svg>
