<svg width="28" height="28" viewBox="0 0 28 28" fill="none" xmlns="http://www.w3.org/2000/svg">
<path d="M11.9067 1.12931C12.0869 0.793964 12.3532 0.512715 12.6783 0.314535C13.0034 0.116356 13.3754 0.00839913 13.756 0.00178787C14.1367 -0.00482339 14.5122 0.0901552 14.8439 0.276928C15.1757 0.4637 15.4516 0.73552 15.6434 1.0644C15.7874 1.31162 15.9794 1.52747 16.2082 1.69921C16.437 1.87095 16.6979 1.99509 16.9755 2.0643C17.253 2.13351 17.5417 2.14639 17.8243 2.10217C18.1069 2.05795 18.3778 1.95751 18.621 1.80683C18.9448 1.60624 19.3162 1.49563 19.697 1.4864C20.0778 1.47716 20.4541 1.56962 20.7872 1.75427C21.1203 1.93892 21.3982 2.20907 21.5922 2.53688C21.7861 2.86468 21.8892 3.23827 21.8907 3.61915C21.8918 3.90534 21.9503 4.18839 22.0627 4.45161C22.1751 4.71482 22.339 4.95285 22.5449 5.15166C22.7507 5.35046 22.9943 5.50602 23.2613 5.60913C23.5283 5.71225 23.8132 5.76085 24.0993 5.75205C24.4799 5.7403 24.8567 5.83023 25.191 6.01259C25.5253 6.19495 25.8049 6.46314 26.0011 6.78953C26.1973 7.11592 26.3028 7.48869 26.307 7.86947C26.3111 8.25024 26.2137 8.62523 26.0247 8.95581C25.8826 9.20412 25.7918 9.47836 25.7575 9.76235C25.7232 10.0463 25.7462 10.3343 25.825 10.6093C25.9038 10.8843 26.0369 11.1407 26.2165 11.3633C26.396 11.586 26.6184 11.7705 26.8703 11.9059C27.2057 12.0861 27.4869 12.3525 27.6851 12.6775C27.8833 13.0026 27.9913 13.3746 27.9979 13.7552C28.0045 14.1359 27.9095 14.5114 27.7227 14.8431C27.536 15.1749 27.2641 15.4508 26.9352 15.6426C26.688 15.7867 26.4721 15.9788 26.3004 16.2077C26.1286 16.4366 26.0045 16.6975 25.9353 16.9752C25.8661 17.2528 25.8532 17.5415 25.8974 17.8242C25.9417 18.107 26.0421 18.3779 26.1928 18.6212C26.3934 18.945 26.504 19.3164 26.5133 19.6972C26.5225 20.0779 26.43 20.4543 26.2454 20.7874C26.0607 21.1205 25.7906 21.3984 25.4628 21.5924C25.135 21.7863 24.7614 21.8894 24.3805 21.8908C24.0943 21.8919 23.8113 21.9503 23.5481 22.0625C23.2849 22.1748 23.0469 22.3386 22.8481 22.5444C22.6492 22.7502 22.4936 22.9938 22.3905 23.2607C22.2874 23.5276 22.2388 23.8125 22.2476 24.0985C22.2595 24.4792 22.1696 24.8563 21.9871 25.1907C21.8047 25.5251 21.5364 25.8048 21.2099 26.001C20.8834 26.1972 20.5104 26.3027 20.1295 26.3068C19.7486 26.3108 19.3734 26.2131 19.0428 26.0239C18.7946 25.8817 18.5203 25.7908 18.2363 25.7564C17.9523 25.7221 17.6643 25.745 17.3893 25.8238C17.1143 25.9027 16.8578 26.0358 16.6351 26.2154C16.4125 26.395 16.228 26.6175 16.0928 26.8696C15.9126 27.205 15.6464 27.4863 15.3214 27.6845C14.9964 27.8828 14.6244 27.9909 14.2437 27.9976C13.8631 28.0043 13.4875 27.9094 13.1557 27.7227C12.8239 27.536 12.5479 27.2643 12.356 26.9354C12.2121 26.6881 12.02 26.4722 11.7912 26.3003C11.5623 26.1285 11.3014 26.0042 11.0237 25.9349C10.7461 25.8656 10.4573 25.8527 10.1746 25.8968C9.89181 25.941 9.62079 26.0414 9.37749 26.192C9.0537 26.3926 8.68228 26.5032 8.30151 26.5125C7.92074 26.5217 7.54438 26.4292 7.21125 26.2446C6.87812 26.0599 6.60026 25.7898 6.4063 25.462C6.21234 25.1342 6.10931 24.7606 6.10782 24.3797C6.10665 24.0936 6.04817 23.8107 5.93586 23.5476C5.82354 23.2845 5.65967 23.0466 5.45389 22.8479C5.24812 22.6492 5.00462 22.4937 4.73777 22.3906C4.47092 22.2876 4.18613 22.239 3.9002 22.2478C3.51944 22.2597 3.14242 22.1698 2.80799 21.9873C2.47356 21.8049 2.19383 21.5366 1.99764 21.2101C1.80146 20.8835 1.69592 20.5106 1.69191 20.1297C1.68789 19.7487 1.78554 19.3736 1.9748 19.043C2.11681 18.7947 2.20764 18.5205 2.24193 18.2365C2.27622 17.9525 2.25327 17.6645 2.17445 17.3896C2.09562 17.1146 1.96252 16.8582 1.78298 16.6355C1.60344 16.4128 1.3811 16.2283 1.12911 16.093C0.793713 15.9128 0.5124 15.6466 0.314132 15.3216C0.115863 14.9966 0.0078073 14.6246 0.00109584 14.2439C-0.00561561 13.8633 0.0892595 13.4877 0.275947 13.1559C0.462635 12.8241 0.734395 12.5481 1.06323 12.3562C1.31052 12.2124 1.52647 12.0204 1.6983 11.7916C1.87014 11.5629 1.99439 11.302 2.06369 11.0244C2.13299 10.7469 2.14595 10.4582 2.1018 10.1755C2.05765 9.89285 1.95729 9.62188 1.80664 9.37865C1.60605 9.05486 1.49543 8.68344 1.4862 8.30267C1.47696 7.9219 1.56944 7.54556 1.75409 7.21243C1.93874 6.87929 2.20889 6.60143 2.53669 6.40747C2.86449 6.21352 3.23808 6.11048 3.61896 6.109C3.90511 6.10782 4.18812 6.04932 4.45127 5.93695C4.71443 5.82457 4.9524 5.66061 5.15113 5.45473C5.34986 5.24885 5.50533 5.00523 5.60833 4.73827C5.71134 4.4713 5.7598 4.1864 5.75087 3.90039C5.73932 3.51975 5.82944 3.1429 6.01193 2.80865C6.19441 2.47441 6.46267 2.19484 6.7891 1.99872C7.11554 1.8026 7.48834 1.69701 7.86913 1.69284C8.24993 1.68867 8.62497 1.78606 8.95562 1.97499C9.20397 2.11716 9.47829 2.20811 9.76238 2.24248C10.0465 2.27686 10.3346 2.25396 10.6097 2.17513C10.8848 2.09629 11.1413 1.96313 11.364 1.7835C11.5868 1.60388 11.7713 1.38144 11.9067 1.12931Z" fill="#FDF9EE"/>
</svg>
