<svg width="75" height="75" viewBox="0 0 75 75" fill="none" xmlns="http://www.w3.org/2000/svg">
<g clip-path="url(#clip0_4549_43)">
<path d="M31.8945 3.0212C32.3772 2.1229 33.0908 1.36953 33.9615 0.838646C34.8323 0.307767 35.8288 0.0185756 36.8485 0.000865405C37.8682 -0.0168447 38.8742 0.23755 39.7628 0.737871C40.6514 1.23819 41.3907 1.96633 41.9044 2.84734C42.29 3.50958 42.8044 4.08781 43.4173 4.54785C44.0301 5.0079 44.7291 5.34047 45.4727 5.52587C46.2162 5.71127 46.9894 5.74574 47.7464 5.62729C48.5036 5.50883 49.2293 5.23982 49.8807 4.83617C50.7484 4.2996 51.7434 4.004 52.7633 3.9798C53.7833 3.95558 54.7911 4.20365 55.6833 4.69844C56.5755 5.19323 57.3197 5.91687 57.8392 6.79485C58.3589 7.67283 58.635 8.6734 58.6394 9.69353C58.6425 10.4601 58.7991 11.2182 59.1002 11.9231C59.4012 12.6281 59.8405 13.2656 60.392 13.798C60.9436 14.3303 61.5961 14.7468 62.3113 15.0227C63.0264 15.2986 63.7895 15.4285 64.5557 15.4045C65.5754 15.3732 66.5851 15.6144 67.4806 16.1033C68.376 16.592 69.125 17.3109 69.6502 18.1855C70.1755 19.0601 70.4579 20.059 70.4685 21.0791C70.4792 22.0993 70.2176 23.104 69.7108 23.9892C69.3304 24.6547 69.0873 25.3894 68.9957 26.1503C68.904 26.9111 68.9657 27.6825 69.1771 28.4192C69.3884 29.1558 69.7453 29.8426 70.2266 30.4391C70.7077 31.0355 71.3036 31.5295 71.9789 31.8919C72.8771 32.3747 73.6305 33.0881 74.1614 33.9589C74.6922 34.8297 74.9815 35.8262 74.9991 36.8458C75.0169 37.8656 74.7625 38.8715 74.2622 39.7602C73.7619 40.6488 73.0338 41.3881 72.1526 41.9017C71.4904 42.2876 70.9121 42.8023 70.452 43.4155C69.9919 44.0285 69.6594 44.7276 69.474 45.4714C69.2885 46.2152 69.2542 46.9885 69.3726 47.746C69.4911 48.5032 69.7602 49.229 70.1639 49.8807C70.7012 50.748 70.9976 51.743 71.0224 52.7629C71.0471 53.783 70.7993 54.7911 70.3046 55.6835C69.81 56.5759 69.0863 57.3203 68.2083 57.8398C67.3301 58.3594 66.3294 58.6354 65.309 58.6394C64.5426 58.6421 63.7844 58.7985 63.0793 59.0992C62.3743 59.3999 61.7366 59.8389 61.204 60.3902C60.6714 60.9415 60.2546 61.5937 59.9784 62.3088C59.7021 63.0238 59.572 63.7869 59.5956 64.5531C59.6274 65.573 59.3864 66.583 58.8978 67.4788C58.4092 68.3748 57.6904 69.1241 56.8158 69.6496C55.9411 70.1751 54.942 70.4579 53.9216 70.4687C52.9012 70.4794 51.8964 70.2177 51.0108 69.7108C50.3455 69.3301 49.6107 69.0866 48.8498 68.9948C48.0889 68.9029 47.3172 68.9645 46.5805 69.1759C45.8438 69.3874 45.157 69.7444 44.5606 70.2258C43.9641 70.7072 43.4704 71.3034 43.1082 71.9789C42.6254 72.8771 41.9119 73.6305 41.0411 74.1614C40.1704 74.6922 39.1739 74.9815 38.1542 74.9991C37.1345 75.0169 36.1286 74.7625 35.2399 74.2622C34.3513 73.7619 33.612 73.0338 33.0983 72.1526C32.7124 71.4904 32.1978 70.9121 31.5846 70.452C30.9716 69.9919 30.2725 69.6594 29.5286 69.474C28.7849 69.2886 28.0115 69.2542 27.2541 69.3726C26.4968 69.4911 25.7711 69.7602 25.1194 70.1639C24.2516 70.7005 23.2566 70.9961 22.2367 71.0202C21.2168 71.0445 20.209 70.7965 19.3167 70.3016C18.4246 69.8068 17.6804 69.0832 17.1609 68.2053C16.6412 67.3271 16.3651 66.3266 16.3607 65.3064C16.3576 64.5401 16.2009 63.7823 15.9 63.0775C15.5992 62.3728 15.1602 61.7354 14.609 61.2031C14.0577 60.6708 13.4054 60.2543 12.6906 59.9781C11.9758 59.7021 11.2129 59.572 10.447 59.5956C9.42697 59.6274 8.41702 59.3864 7.52117 58.8978C6.6253 58.4092 5.87597 57.6904 5.35044 56.8158C4.8249 55.9411 4.54219 54.942 4.53144 53.9216C4.52067 52.9012 4.78227 51.8964 5.28925 51.0108C5.67029 50.3456 5.91407 49.6108 6.00612 48.8498C6.09817 48.0887 6.03664 47.3171 5.82518 46.5802C5.61372 45.8434 5.25661 45.1565 4.77499 44.5601C4.29336 43.9638 3.69701 43.47 3.02121 43.1082C2.12291 42.6254 1.36954 41.9119 0.838661 41.0411C0.307782 40.1704 0.0185755 39.1739 0.000865363 38.1542C-0.0168447 37.1345 0.237565 36.1286 0.737886 35.2399C1.23821 34.3513 1.96636 33.612 2.84735 33.0983C3.50989 32.7127 4.08844 32.1981 4.54877 31.5851C5.00912 30.9722 5.34194 30.273 5.52758 29.5293C5.71322 28.7855 5.74791 28.0121 5.62961 27.2546C5.51132 26.4971 5.24242 25.7711 4.83881 25.1194C4.30149 24.252 4.00517 23.2571 3.98043 22.2371C3.95568 21.2171 4.20341 20.2088 4.69803 19.3166C5.19266 18.4241 5.91631 17.6798 6.79441 17.1603C7.67252 16.6406 8.67329 16.3646 9.69362 16.3607C10.4599 16.3575 11.2178 16.2009 11.9225 15.9C12.6273 15.5992 13.2647 15.1602 13.797 14.6089C14.3292 14.0577 14.7458 13.4054 15.022 12.6906C15.298 11.9758 15.4281 11.2129 15.4045 10.447C15.3732 9.42724 15.6144 8.4176 16.1033 7.52212C16.592 6.62662 17.3109 5.87767 18.1855 5.35245C19.0601 4.82724 20.059 4.54474 21.0791 4.53409C22.0993 4.52344 23.104 4.78502 23.9892 5.29188C24.655 5.67251 25.39 5.91585 26.1513 6.00755C26.9125 6.09926 27.6844 6.03746 28.4214 5.82578C29.1582 5.61409 29.8453 5.25687 30.4419 4.77516C31.0384 4.29345 31.5323 3.69704 31.8945 3.0212Z" fill="#3E6352"/>
<path d="M13.4219 35.5286V33.1602L33.9482 39.0812V41.0548L13.4219 35.5286Z" fill="white"/>
<path d="M7.89844 41.0559V38.6875L21.3195 39.4769V41.0559H7.89844Z" fill="white"/>
<path d="M37.4984 58.8148C48.1807 58.8148 56.8405 50.155 56.8405 39.4727H18.1562C18.1562 50.155 26.816 58.8148 37.4984 58.8148Z" fill="white"/>
<path d="M32.3672 60.0012V57.6328H41.8408V60.0012H32.3672Z" fill="white"/>
<path d="M50.1174 36.0002C54.5099 31.6076 55.4207 22.5859 55.4207 22.5859C55.4207 22.5859 46.3989 23.4967 42.0064 27.8892C37.6139 32.2818 36.7031 41.3035 36.7031 41.3035C36.7031 41.3035 45.7247 40.3927 50.1174 36.0002Z" fill="white"/>
<path d="M35.4143 31.3884C32.2778 28.2519 25.8359 27.6016 25.8359 27.6016C25.8359 27.6016 26.4862 34.0434 29.6227 37.1799C32.7592 40.3164 39.2011 40.9667 39.2011 40.9667C39.2011 40.9667 38.5508 34.5249 35.4143 31.3884Z" fill="white"/>
</g>
<defs>
<clipPath id="clip0_4549_43">
<rect width="75" height="75" fill="white"/>
</clipPath>
</defs>
</svg>
